base.sfdir
StartChar: exclam
Encoding: 894 33 894
GlifName: exclam
Width: 312
VWidth: 0
Flags: W
LayerCount: 2
Back
Fore
SplineSet
65 71 m 256
 65 20 107 -21 157 -21 c 256
 209 -21 250 20 250 71 c 256
 250 123 209 164 157 164 c 256
 107 164 65 123 65 71 c 256
164 207 m 257
 185 336 267 382 267 459 c 256
 267 514 237 569 157 569 c 256
 74 569 45 514 45 458 c 256
 45 379 130 336 148 207 c 257
 164 207 l 257
EndSplineSet
Validated: 9
PickledDataWithLists: "(dp1
S'com.typemytype.robofont.layerData'
p2
(dp3
S'Back'
p4
(dp5
S'name'
p6
S'exclam'
p7
sS'lib'
p8
(dp9
sS'unicodes'
p10
(lp11
sS'width'
p12
I312
sS'contours'
p13
(lp14
sS'components'
p15
(lp16
sS'anchors'
p17
(lp18
sss."
EndChar
StartChar: quotedbl
Encoding: 954 34 954
GlifName: quotedbl
Width: 262
VWidth: 0
Flags: W
LayerCount: 2
Back
Fore
SplineSet
71 451 m 257
 90 531 117 614 117 650 c 256
 117 684 98 712 67 712 c 256
 34 712 15 684 15 649 c 256
 15 612 44 531 61 451 c 257
 71 451 l 257
205 451 m 257
 224 531 251 614 251 650 c 256
 251 684 232 712 201 712 c 256
 168 712 149 684 149 649 c 256
 149 612 178 531 195 451 c 257
 205 451 l 257
EndSplineSet
PickledDataWithLists: "(dp1
S'com.typemytype.robofont.layerData'
p2
(dp3
S'Back'
p4
(dp5
S'name'
p6
S'quotedbl'
p7
sS'lib'
p8
(dp9
sS'unicodes'
p10
(lp11
sS'width'
p12
I262
sS'contours'
p13
(lp14
sS'components'
p15
(lp16
sS'anchors'
p17
(lp18
sss."
EndChar
StartChar: numbersign
Encoding: 971 35 971
GlifName: numbersign
Width: 501
VWidth: 0
Flags: W
LayerCount: 2
Back
Fore
SplineSet
65 9 m 257
 86 9 l 257
 259 568 l 257
 238 568 l 257
 65 9 l 257
255 7 m 257
 276 7 l 257
 449 566 l 257
 428 566 l 257
 255 7 l 257
448 197 m 257
 20 197 l 257
 20 177 l 257
 448 177 l 257
 448 197 l 257
494 393 m 257
 61 393 l 257
 61 373 l 257
 494 373 l 257
 494 393 l 257
EndSplineSet
PickledDataWithLists: "(dp1
S'com.typemytype.robofont.layerData'
p2
(dp3
S'Back'
p4
(dp5
S'name'
p6
S'numbersign'
p7
sS'lib'
p8
(dp9
sS'unicodes'
p10
(lp11
sS'width'
p12
I501
sS'contours'
p13
(lp14
sS'components'
p15
(lp16
sS'anchors'
p17
(lp18
sss."
EndChar
StartChar: dollar
Encoding: 180 36 180
GlifName: dollar
Width: 548
VWidth: 0
Flags: W
LayerCount: 2
Back
Fore
SplineSet
70 0 m 257
 70 28 85 40 107 40 c 256
 143 40 195 -15 306 -15 c 256
 424 -15 497 42 508 151 c 257
 518 283 408 318 318 360 c 256
 245 394 172 410 172 473 c 256
 172 517 201 550 251 550 c 256
 361 550 440 483 440 387 c 257
 440 387 460 387 460 387 c 257
 460 570 l 257
 460 570 440 570 440 570 c 257
 440 556 436 535 420 535 c 256
 390 535 348 570 250 570 c 256
 156 570 76 511 66 407 c 256
 55 291 142 257 251 208 c 256
 331 172 391 146 391 93 c 256
 391 40 354 7 302 7 c 256
 173 7 70 108 70 233 c 257
 50 233 l 257
 50 0 l 257
 50 0 70 0 70 0 c 257
274 -51 m 257
 294 -51 l 257
 294 633 l 257
 274 633 l 257
 274 -51 l 257
EndSplineSet
PickledDataWithLists: "(dp1
S'com.typemytype.robofont.layerData'
p2
(dp3
S'Back'
p4
(dp5
S'name'
p6
S'dollar'
p7
sS'lib'
p8
(dp9
sS'unicodes'
p10
(lp11
sS'width'
p12
I548
sS'contours'
p13
(lp14
sS'components'
p15
(lp16
sS'anchors'
p17
(lp18
sss."
EndChar
StartChar: ampersand
Encoding: 117 38 117
GlifName: ampersand
Width: 856
VWidth: 0
Flags: W
LayerCount: 2
Back
Fore
SplineSet
730 334 m 256
 623 370 503 312 467 106 c 257
 486 104 l 257
 520 238 579 313 626 294 c 256
 661 280 619 208 689 179 c 256
 729 163 771 180 788 220 c 256
 810 274 773 319 730 334 c 256
234 369 m 257
 197 368 154 358 120 339 c 256
 -34 254 8 -9 254 -9 c 257
 337 -9 404 3 450 69 c 256
 450 69 428 83 428 83 c 257
 364 -12 228 77 191 161 c 256
 152 249 186 333 244 356 c 257
 234 369 l 257
357 486 m 256
 357 549 388 586 433 586 c 257
 492 586 511 542 511 470 c 256
 511 421 491 358 456 345 c 257
 461 329 l 257
 561 329 624 386 624 468 c 257
 624 525 578 606 433 606 c 257
 309 606 222 527 222 418 c 257
 222 324 275 230 343 154 c 256
 419 68 513 -10 648 -10 c 257
 855 -10 846 216 846 216 c 257
 846 216 826 216 826 216 c 257
 826 216 817 105 692 105 c 257
 599 105 530 169 462 246 c 256
 391 326 357 436 357 486 c 256
EndSplineSet
PickledDataWithLists: "(dp1
S'com.typemytype.robofont.layerData'
p2
(dp3
S'Back'
p4
(dp5
S'name'
p6
S'ampersand'
p7
sS'lib'
p8
(dp9
sS'unicodes'
p10
(lp11
sS'width'
p12
I856
sS'contours'
p13
(lp14
sS'components'
p15
(lp16
sS'anchors'
p17
(lp18
sss."
EndChar
StartChar: quotesingle
Encoding: 961 39 961
GlifName: quotesingle
Width: 181
VWidth: 0
Flags: W
LayerCount: 2
Back
Fore
SplineSet
100 451 m 257
 119 531 146 614 146 650 c 256
 146 684 127 712 96 712 c 256
 63 712 44 684 44 649 c 256
 44 612 73 531 90 451 c 257
 100 451 l 257
EndSplineSet
PickledDataWithLists: "(dp1
S'com.typemytype.robofont.layerData'
p2
(dp3
S'Back'
p4
(dp5
S'name'
p6
S'quotesingle'
p7
sS'lib'
p8
(dp9
sS'unicodes'
p10
(lp11
sS'width'
p12
I181
sS'contours'
p13
(lp14
sS'components'
p15
(lp16
sS'anchors'
p17
(lp18
sss."
EndChar
StartChar: parenleft
Encoding: 940 40 940
GlifName: parenleft
Width: 319
VWidth: 0
Flags: W
LayerCount: 2
Back
Fore
SplineSet
40 285 m 256
 40 73 186 -65 309 -82 c 257
 309 -62 l 257
 228 -24 180 102 180 285 c 256
 180 468 228 594 309 632 c 257
 309 652 l 257
 186 635 40 497 40 285 c 256
EndSplineSet
PickledDataWithLists: "(dp1
S'com.typemytype.robofont.layerData'
p2
(dp3
S'Back'
p4
(dp5
S'name'
p6
S'parenleft'
p7
sS'lib'
p8
(dp9
sS'unicodes'
p10
(lp11
sS'width'
p12
I319
sS'contours'
p13
(lp14
sS'components'
p15
(lp16
sS'anchors'
p17
(lp18
sss."
EndChar
StartChar: parenright
Encoding: 993 41 993
GlifName: parenright
Width: 319
VWidth: 0
Flags: W
LayerCount: 2
Back
Fore
SplineSet
279 285 m 256
 279 497 133 635 10 652 c 257
 10 632 l 257
 91 594 139 468 139 285 c 256
 139 102 91 -24 10 -62 c 257
 10 -82 l 257
 133 -65 279 73 279 285 c 256
EndSplineSet
Validated: 9
PickledDataWithLists: "(dp1
S'com.typemytype.robofont.layerData'
p2
(dp3
S'Back'
p4
(dp5
S'name'
p6
S'parenright'
p7
sS'lib'
p8
(dp9
sS'unicodes'
p10
(lp11
sS'width'
p12
I319
sS'contours'
p13
(lp14
sS'components'
p15
(lp16
sS'anchors'
p17
(lp18
sss."
EndChar
StartChar: asterisk
Encoding: 124 42 124
GlifName: asterisk
Width: 328
VWidth: 0
Flags: W
LayerCount: 2
Back
Fore
SplineSet
169 439 m 257
 158 439 l 257
 158 389 119 380 119 342 c 257
 119 320 127 291 163 291 c 256
 200 291 208 320 208 342 c 257
 208 381 169 389 169 439 c 257
158 439 m 257
 151 448 l 257
 109 423 81 453 48 433 c 257
 30 423 9 401 26 370 c 256
 45 338 75 346 93 356 c 257
 127 376 115 414 158 439 c 257
169 439 m 257
 212 414 200 376 235 356 c 257
 253 346 283 338 302 370 c 256
 319 401 298 423 279 433 c 257
 247 453 219 423 176 448 c 257
 169 439 l 257
169 457 m 257
 176 448 l 257
 219 473 247 443 279 463 c 257
 298 473 319 495 302 526 c 256
 283 558 253 550 235 540 c 257
 200 520 212 482 169 457 c 257
158 457 m 257
 115 482 127 520 93 540 c 257
 75 550 45 558 26 526 c 256
 9 495 30 473 48 463 c 257
 81 443 109 473 151 448 c 257
 158 457 l 257
169 457 m 257
 169 507 208 515 208 554 c 257
 208 576 200 605 163 605 c 256
 127 605 119 576 119 554 c 257
 119 516 158 507 158 457 c 257
 169 457 l 257
151 439 m 257
 176 439 l 257
 176 457 l 257
 151 457 l 257
 151 439 l 257
EndSplineSet
PickledDataWithLists: "(dp1
S'com.typemytype.robofont.layerData'
p2
(dp3
S'Back'
p4
(dp5
S'name'
p6
S'asterisk'
p7
sS'lib'
p8
(dp9
sS'unicodes'
p10
(lp11
sS'width'
p12
I328
sS'contours'
p13
(lp14
sS'components'
p15
(lp16
sS'anchors'
p17
(lp18
sss."
EndChar
StartChar: plus
Encoding: 948 43 948
GlifName: plus
Width: 485
VWidth: 0
Flags: W
LayerCount: 2
Back
Fore
SplineSet
252 242 m 257
 252 454 l 257
 232 454 l 257
 232 242 l 257
 20 242 l 257
 20 222 l 257
 232 222 l 257
 232 9 l 257
 252 9 l 257
 252 222 l 257
 465 222 l 257
 465 242 l 257
 252 242 l 257
EndSplineSet
PickledDataWithLists: "(dp1
S'com.typemytype.robofont.layerData'
p2
(dp3
S'Back'
p4
(dp5
S'name'
p6
S'plus'
p7
sS'lib'
p8
(dp9
sS'unicodes'
p10
(lp11
sS'width'
p12
I485
sS'contours'
p13
(lp14
sS'components'
p15
(lp16
sS'anchors'
p17
(lp18
sss."
EndChar
StartChar: comma
Encoding: 167 44 167
GlifName: comma
Width: 290
VWidth: 0
Flags: W
LayerCount: 2
Back
Fore
SplineSet
74 -148 m 257
 175 -102 231 -30 231 53 c 256
 231 106 195 164 126 164 c 256
 72 164 37 125 37 76 c 256
 37 23 78 -1 112 -1 c 256
 132 -1 136 5 153 5 c 256
 162 5 171 -1 171 -12 c 256
 171 -56 127 -95 67 -130 c 257
 74 -148 l 257
EndSplineSet
PickledDataWithLists: "(dp1
S'com.typemytype.robofont.layerData'
p2
(dp3
S'Back'
p4
(dp5
S'name'
p6
S'comma'
p7
sS'lib'
p8
(dp9
sS'unicodes'
p10
(lp11
sS'width'
p12
I290
sS'contours'
p13
(lp14
sS'components'
p15
(lp16
sS'anchors'
p17
(lp18
sss."
EndChar
StartChar: hyphen
Encoding: 879 45 879
GlifName: hyphen
Width: 251
VWidth: 0
Flags: W
LayerCount: 2
Back
Fore
SplineSet
40 198 m 257
 211 198 l 257
 211 274 l 257
 40 274 l 257
 40 198 l 257
EndSplineSet
PickledDataWithLists: "(dp1
S'com.typemytype.robofont.layerData'
p2
(dp3
S'Back'
p4
(dp5
S'name'
p6
S'hyphen'
p7
sS'lib'
p8
(dp9
sS'unicodes'
p10
(lp11
sS'width'
p12
I251
sS'contours'
p13
(lp14
sS'components'
p15
(lp16
sS'anchors'
p17
(lp18
sss."
EndChar
StartChar: period
Encoding: 996 46 996
GlifName: period
Width: 255
VWidth: 0
Flags: W
LayerCount: 2
Back
Fore
SplineSet
36 71 m 256
 36 20 78 -21 128 -21 c 256
 180 -21 221 20 221 71 c 256
 221 123 180 164 128 164 c 256
 78 164 36 123 36 71 c 256
EndSplineSet
PickledDataWithLists: "(dp1
S'com.typemytype.robofont.layerData'
p2
(dp3
S'Back'
p4
(dp5
S'name'
p6
S'period'
p7
sS'lib'
p8
(dp9
sS'unicodes'
p10
(lp11
sS'width'
p12
I255
sS'contours'
p13
(lp14
sS'components'
p15
(lp16
sS'anchors'
p17
(lp18
sss."
EndChar
StartChar: slash
Encoding: 1028 47 1028
GlifName: slash
Width: 264
VWidth: 0
Flags: W
LayerCount: 2
Back
Fore
SplineSet
40 1 m 257
 59 -5 l 257
 224 559 l 257
 206 564 l 257
 40 1 l 257
EndSplineSet
Validated: 9
PickledDataWithLists: "(dp1
S'com.typemytype.robofont.layerData'
p2
(dp3
S'Back'
p4
(dp5
S'name'
p6
S'slash'
p7
sS'lib'
p8
(dp9
sS'unicodes'
p10
(lp11
sS'width'
p12
I264
sS'contours'
p13
(lp14
sS'components'
p15
(lp16
sS'anchors'
p17
(lp18
sss."
EndChar
StartChar: zero
Encoding: 1093 48 1093
GlifName: zero
Width: 572
VWidth: 0
Flags: W
LayerCount: 2
Back
Fore
SplineSet
286 567 m 256
 363 567 383 448 383 298 c 256
 383 122 367 8 286 8 c 256
 208 8 189 122 189 298 c 256
 189 448 211 567 286 567 c 256
286 -12 m 256
 433 -12 532 99 532 298 c 256
 532 453 451 587 286 587 c 256
 127 587 40 453 40 298 c 256
 40 99 134 -12 286 -12 c 256
EndSplineSet
PickledDataWithLists: "(dp1
S'com.typemytype.robofont.layerData'
p2
(dp3
S'Back'
p4
(dp5
S'name'
p6
S'zero'
p7
sS'lib'
p8
(dp9
sS'unicodes'
p10
(lp11
sS'width'
p12
I572
sS'contours'
p13
(lp14
sS'components'
p15
(lp16
sS'anchors'
p17
(lp18
sss."
EndChar
StartChar: one
Encoding: 983 49 983
GlifName: one
Width: 377
VWidth: 0
Flags: W
LayerCount: 2
Back
Fore
SplineSet
277 0 m 257
 277 582 l 257
 241 582 l 257
 40 489 l 257
 46 470 l 257
 127 501 l 257
 127 0 l 257
 277 0 l 257
347 20 m 257
 47 20 l 257
 47 0 l 257
 347 0 l 257
 347 20 l 257
EndSplineSet
PickledDataWithLists: "(dp1
S'com.typemytype.robofont.layerData'
p2
(dp3
S'Back'
p4
(dp5
S'name'
p6
S'one'
p7
sS'lib'
p8
(dp9
sS'unicodes'
p10
(lp11
sS'width'
p12
I377
sS'contours'
p13
(lp14
sS'components'
p15
(lp16
sS'anchors'
p17
(lp18
sss."
EndChar
StartChar: two
Encoding: 1042 50 1042
GlifName: two
Width: 528
VWidth: 0
Flags: W
LayerCount: 2
Back
Fore
SplineSet
460 205 m 257
 453 150 410 145 358 145 c 256
 305 145 266 171 204 171 c 256
 180 171 154 166 136 151 c 257
 205 254 468 221 468 433 c 256
 468 531 367 587 232 587 c 256
 116 587 42 524 42 444 c 256
 42 393 74 355 122 355 c 256
 167 355 193 386 193 420 c 256
 193 499 108 478 108 517 c 256
 108 545 156 563 198 563 c 256
 271 563 305 511 305 444 c 256
 305 331 175 261 86 143 c 256
 59 107 34 52 30 0 c 257
 50 0 l 257
 59 42 84 65 123 65 c 256
 195 65 260 -10 358 -10 c 256
 445 -10 478 67 478 142 c 256
 478 164 475 185 470 205 c 257
 460 205 l 257
EndSplineSet
Validated: 9
PickledDataWithLists: "(dp1
S'com.typemytype.robofont.guides'
p2
(lp3
(dp4
S'y'
I587
sS'x'
I244
sS'magnetic'
p5
I5
sS'angle'
p6
I0
sS'isGlobal'
p7
I0
sasS'com.typemytype.robofont.layerData'
p8
(dp9
S'Back'
p10
(dp11
S'name'
p12
S'two'
p13
sS'lib'
p14
(dp15
sS'unicodes'
p16
(lp17
sS'width'
p18
I528
sS'contours'
p19
(lp20
sS'components'
p21
(lp22
sS'anchors'
p23
(lp24
sss."
EndChar
StartChar: three
Encoding: 991 51 991
GlifName: three
Width: 526
VWidth: 0
Flags: W
LayerCount: 2
Back
Fore
SplineSet
222 587 m 256
 116 587 54 527 54 456 c 256
 54 405 83 374 127 374 c 256
 167 374 190 402 190 432 c 256
 190 503 109 481 109 516 c 256
 109 541 140 564 189 564 c 256
 257 564 295 513 295 447 c 256
 295 399 271 323 175 323 c 258
 159 323 l 257
 159 303 l 257
 175 303 l 258
 290 303 321 254 321 163 c 256
 321 68 268 8 191 8 c 256
 145 8 97 25 97 55 c 256
 97 94 192 67 192 150 c 256
 192 184 166 215 121 215 c 256
 70 215 40 177 40 125 c 256
 40 42 105 -16 224 -16 c 256
 391 -16 486 51 486 164 c 256
 486 257 401 313 282 314 c 257
 394 320 450 380 450 449 c 256
 450 539 379 587 222 587 c 256
EndSplineSet
PickledDataWithLists: "(dp1
S'com.typemytype.robofont.layerData'
p2
(dp3
S'Back'
p4
(dp5
S'name'
p6
S'three'
p7
sS'lib'
p8
(dp9
sS'unicodes'
p10
(lp11
sS'width'
p12
I526
sS'contours'
p13
(lp14
sS'components'
p15
(lp16
sS'anchors'
p17
(lp18
sss."
EndChar
StartChar: four
Encoding: 911 52 911
GlifName: four
Width: 531
VWidth: 0
Flags: W
LayerCount: 2
Back
Fore
SplineSet
244 8 m 257
 394 8 l 257
 394 582 l 257
 294 582 l 257
 10 163 l 257
 36 163 l 257
 244 472 l 257
 244 8 l 257
459 20 m 257
 179 20 l 257
 179 0 l 257
 459 0 l 257
 459 20 l 257
488 163 m 257
 10 163 l 257
 10 143 l 257
 488 143 l 257
 488 163 l 257
468 229 m 257
 468 75 l 257
 491 75 l 257
 491 229 l 257
 468 229 l 257
EndSplineSet
PickledDataWithLists: "(dp1
S'com.typemytype.robofont.layerData'
p2
(dp3
S'Back'
p4
(dp5
S'name'
p6
S'four'
p7
sS'lib'
p8
(dp9
sS'unicodes'
p10
(lp11
sS'width'
p12
I531
sS'contours'
p13
(lp14
sS'components'
p15
(lp16
sS'anchors'
p17
(lp18
sss."
EndChar
StartChar: five
Encoding: 859 53 859
GlifName: five
Width: 515
VWidth: 0
Flags: W
LayerCount: 2
Back
Fore
SplineSet
75 272 m 257
 92 268 l 257
 113 294 151 318 199 318 c 256
 296 318 310 253 310 177 c 256
 310 82 278 14 181 14 c 256
 135 14 87 31 87 61 c 256
 87 100 182 73 182 156 c 256
 182 190 156 221 111 221 c 256
 60 221 30 183 30 131 c 256
 30 48 95 -10 214 -10 c 256
 390 -10 475 67 475 180 c 256
 475 280 402 347 235 347 c 256
 169 347 121 326 101 307 c 257
 122 496 l 257
 171 444 241 402 321 402 c 256
 405 402 443 467 443 549 c 256
 443 580 441 594 435 617 c 257
 425 617 l 257
 397 553 360 554 286 554 c 256
 227 554 146 562 109 577 c 257
 75 272 l 257
EndSplineSet
PickledDataWithLists: "(dp1
S'com.typemytype.robofont.layerData'
p2
(dp3
S'Back'
p4
(dp5
S'name'
p6
S'five'
p7
sS'lib'
p8
(dp9
sS'unicodes'
p10
(lp11
sS'width'
p12
I515
sS'contours'
p13
(lp14
sS'components'
p15
(lp16
sS'anchors'
p17
(lp18
sss."
EndChar
StartChar: six
Encoding: 1027 54 1027
GlifName: six
Width: 551
VWidth: 0
Flags: W
LayerCount: 2
Back
Fore
SplineSet
166 240 m 257
 194 273 226 301 274 301 c 256
 340 301 371 244 371 164 c 256
 371 73 350 8 289 8 c 256
 220 8 189 91 189 284 c 256
 189 442 180 564 315 564 c 256
 345 564 394 553 401 528 c 256
 411 491 323 473 357 401 c 256
 372 369 410 356 449 372 c 256
 493 390 500 438 484 487 c 256
 460 561 370 588 314 588 c 256
 126 588 30 471 30 284 c 256
 30 93 111 -12 288 -12 c 256
 431 -12 511 60 511 175 c 256
 511 277 427 333 311 333 c 256
 237 333 189 302 164 265 c 257
 166 240 l 257
EndSplineSet
PickledDataWithLists: "(dp1
S'com.typemytype.robofont.layerData'
p2
(dp3
S'Back'
p4
(dp5
S'name'
p6
S'six'
p7
sS'lib'
p8
(dp9
sS'unicodes'
p10
(lp11
sS'width'
p12
I551
sS'contours'
p13
(lp14
sS'components'
p15
(lp16
sS'anchors'
p17
(lp18
sss."
EndChar
StartChar: seven
Encoding: 1026 55 1026
GlifName: seven
Width: 472
VWidth: 0
Flags: W
LayerCount: 2
Back
Fore
SplineSet
409 485 m 257
 332 309 129 294 129 96 c 256
 129 37 158 -12 225 -12 c 256
 276 -12 313 37 313 81 c 256
 313 121 295 150 295 192 c 256
 295 366 452 375 452 599 c 257
 435 599 l 257
 428 561 416 534 379 534 c 256
 313 534 223 592 127 592 c 256
 44 592 10 533 10 460 c 256
 10 438 13 395 19 372 c 257
 30 372 l 257
 32 414 56 447 95 447 c 256
 146 447 212 424 274 424 c 256
 336 424 378 441 406 488 c 257
 409 485 l 257
EndSplineSet
Validated: 9
PickledDataWithLists: "(dp1
S'com.typemytype.robofont.layerData'
p2
(dp3
S'Back'
p4
(dp5
S'name'
p6
S'seven'
p7
sS'lib'
p8
(dp9
sS'unicodes'
p10
(lp11
sS'width'
p12
I472
sS'contours'
p13
(lp14
sS'components'
p15
(lp16
sS'anchors'
p17
(lp18
sss."
EndChar
StartChar: eight
Encoding: 884 56 884
GlifName: eight
Width: 530
VWidth: 0
Flags: W
LayerCount: 2
Back
Fore
SplineSet
278 -12 m 256
 388 -12 500 52 500 153 c 256
 500 334 169 400 169 496 c 256
 169 539 200 566 255 566 c 256
 314 566 363 522 363 460 c 256
 363 411 352 347 327 334 c 257
 333 329 l 257
 417 347 476 386 476 458 c 256
 476 525 400 586 255 586 c 256
 141 586 74 517 74 438 c 256
 74 249 382 197 382 100 c 256
 382 44 341 8 278 8 c 256
 225 8 153 56 153 133 c 256
 153 194 170 235 192 284 c 257
 185 289 l 257
 91 272 30 214 30 141 c 256
 30 22 152 -12 278 -12 c 256
EndSplineSet
PickledDataWithLists: "(dp1
S'com.typemytype.robofont.layerData'
p2
(dp3
S'Back'
p4
(dp5
S'name'
p6
S'eight'
p7
sS'lib'
p8
(dp9
sS'unicodes'
p10
(lp11
sS'width'
p12
I530
sS'contours'
p13
(lp14
sS'components'
p15
(lp16
sS'anchors'
p17
(lp18
sss."
EndChar
StartChar: nine
Encoding: 968 57 968
GlifName: nine
Width: 551
VWidth: 0
Flags: W
LayerCount: 2
Back
Fore
SplineSet
385 336 m 257
 357 303 325 275 277 275 c 256
 211 275 180 332 180 412 c 256
 180 503 201 568 262 568 c 256
 331 568 362 485 362 292 c 256
 362 134 371 12 236 12 c 256
 206 12 157 23 150 48 c 256
 140 85 228 103 194 175 c 256
 179 207 141 220 102 204 c 256
 58 186 51 138 67 89 c 256
 91 15 181 -12 237 -12 c 256
 425 -12 521 105 521 292 c 256
 521 483 440 588 263 588 c 256
 120 588 40 516 40 401 c 256
 40 299 124 243 240 243 c 256
 314 243 362 274 387 311 c 257
 385 336 l 257
EndSplineSet
Validated: 37
PickledDataWithLists: "(dp1
S'com.typemytype.robofont.layerData'
p2
(dp3
S'Back'
p4
(dp5
S'name'
p6
S'nine'
p7
sS'lib'
p8
(dp9
sS'unicodes'
p10
(lp11
sS'width'
p12
I551
sS'contours'
p13
(lp14
sS'components'
p15
(lp16
sS'anchors'
p17
(lp18
sss."
EndChar
StartChar: colon
Encoding: 150 58 150
GlifName: colon
Width: 264
VWidth: 0
Flags: W
LayerCount: 2
Back
Fore
SplineSet
36 374 m 256
 36 323 78 282 128 282 c 256
 180 282 221 323 221 374 c 256
 221 426 180 467 128 467 c 256
 78 467 36 426 36 374 c 256
36 71 m 256
 36 20 78 -21 128 -21 c 256
 180 -21 221 20 221 71 c 256
 221 123 180 164 128 164 c 256
 78 164 36 123 36 71 c 256
EndSplineSet
PickledDataWithLists: "(dp1
S'com.typemytype.robofont.layerData'
p2
(dp3
S'Back'
p4
(dp5
S'name'
p6
S'colon'
p7
sS'lib'
p8
(dp9
sS'unicodes'
p10
(lp11
sS'width'
p12
I264
sS'contours'
p13
(lp14
sS'components'
p15
(lp16
sS'anchors'
p17
(lp18
sss."
EndChar
StartChar: less
Encoding: 898 60 898
GlifName: less
Width: 483
VWidth: 0
Flags: W
LayerCount: 2
Back
Fore
SplineSet
453 45 m 257
 61 242 l 257
 453 439 l 257
 453 461 l 257
 30 249 l 257
 30 236 l 257
 453 22 l 257
 453 45 l 257
EndSplineSet
PickledDataWithLists: "(dp1
S'com.typemytype.robofont.layerData'
p2
(dp3
S'Back'
p4
(dp5
S'name'
p6
S'less'
p7
sS'lib'
p8
(dp9
sS'unicodes'
p10
(lp11
sS'width'
p12
I483
sS'contours'
p13
(lp14
sS'components'
p15
(lp16
sS'anchors'
p17
(lp18
sss."
EndChar
StartChar: equal
Encoding: 891 61 891
GlifName: equal
Width: 465
VWidth: 0
Flags: W
LayerCount: 2
Back
Fore
SplineSet
435 321 m 257
 30 321 l 257
 30 301 l 257
 435 301 l 257
 435 321 l 257
435 166 m 257
 30 166 l 257
 30 145 l 257
 435 145 l 257
 435 166 l 257
EndSplineSet
Validated: 9
PickledDataWithLists: "(dp1
S'com.typemytype.robofont.layerData'
p2
(dp3
S'Back'
p4
(dp5
S'name'
p6
S'equal'
p7
sS'lib'
p8
(dp9
sS'unicodes'
p10
(lp11
sS'width'
p12
I465
sS'contours'
p13
(lp14
sS'components'
p15
(lp16
sS'anchors'
p17
(lp18
sss."
EndChar
StartChar: greater
Encoding: 920 62 920
GlifName: greater
Width: 483
VWidth: 0
Flags: W
LayerCount: 2
Back
Fore
SplineSet
30 22 m 257
 453 236 l 257
 453 249 l 257
 30 461 l 257
 30 439 l 257
 422 242 l 257
 30 45 l 257
 30 22 l 257
EndSplineSet
Validated: 9
PickledDataWithLists: "(dp1
S'com.typemytype.robofont.layerData'
p2
(dp3
S'Back'
p4
(dp5
S'name'
p6
S'greater'
p7
sS'lib'
p8
(dp9
sS'unicodes'
p10
(lp11
sS'width'
p12
I483
sS'contours'
p13
(lp14
sS'components'
p15
(lp16
sS'anchors'
p17
(lp18
sss."
EndChar
StartChar: question
Encoding: 952 63 952
GlifName: question
Width: 451
VWidth: 0
Flags: W
LayerCount: 2
Back
Fore
SplineSet
110 71 m 256
 110 20 152 -21 202 -21 c 256
 254 -21 295 20 295 71 c 256
 295 123 254 164 202 164 c 256
 152 164 110 123 110 71 c 256
203 570 m 256
 85 570 10 507 10 434 c 256
 10 389 41 354 88 354 c 256
 115 354 147 381 147 413 c 256
 147 477 83 466 83 502 c 256
 83 520 140 543 183 543 c 256
 229 543 285 519 267 442 c 256
 252 377 144 363 134 288 c 256
 129 247 151 217 190 195 c 257
 207 195 l 257
 177 321 408 267 421 425 c 256
 430 532 310 570 203 570 c 256
EndSplineSet
PickledDataWithLists: "(dp1
S'com.typemytype.robofont.layerData'
p2
(dp3
S'Back'
p4
(dp5
S'name'
p6
S'question'
p7
sS'lib'
p8
(dp9
sS'unicodes'
p10
(lp11
sS'width'
p12
I451
sS'contours'
p13
(lp14
sS'components'
p15
(lp16
sS'anchors'
p17
(lp18
sss."
EndChar
StartChar: at
Encoding: 141 64 141
GlifName: at
Width: 1000
VWidth: 0
Flags: W
LayerCount: 2
Back
Fore
SplineSet
533 145 m 257
 533 105 503 90 477 90 c 256
 429 90 391 123 391 239 c 257
 391 343 433 397 479 397 c 256
 497 397 518 384 533 353 c 257
 533 145 l 257
654 117 m 257
 654 418 l 257
 694 418 l 257
 694 434 l 257
 534 434 l 257
 533 387 l 257
 514 426 469 442 429 442 c 256
 346 442 268 365 268 239 c 257
 268 94 347 38 429 38 c 256
 490 38 518 61 533 85 c 257
 533 85 555 28 649 28 c 257
 795 28 818 178 818 248 c 257
 818 439 703 575 472 575 c 257
 271 575 127 429 127 238 c 257
 127 17 281 -99 472 -99 c 257
 490 -99 509 -98 526 -95 c 257
 526 -68 l 257
 508 -71 490 -73 471 -73 c 256
 295 -73 153 31 153 238 c 257
 153 415 285 550 471 550 c 257
 688 550 792 425 792 248 c 257
 792 170 750 70 701 70 c 256
 665 70 654 90 654 117 c 257
EndSplineSet
Validated: 9
PickledDataWithLists: "(dp1
S'com.typemytype.robofont.guides'
p2
(lp3
(dp4
S'y'
I230
sS'x'
I148
sS'magnetic'
p5
I5
sS'angle'
p6
F90
sS'isGlobal'
p7
I00
sa(dp8
S'y'
I248
sS'x'
I495
sg5
I5
sg6
I0
sg7
I00
sa(dp9
S'y'
I240
sS'x'
I475
sg5
I5
sg6
F90
sg7
I00
sasS'com.typemytype.robofont.layerData'
p10
(dp11
S'Back'
p12
(dp13
S'name'
p14
S'at'
p15
sS'lib'
p16
(dp17
sS'unicodes'
p18
(lp19
sS'width'
p20
I1000
sS'contours'
p21
(lp22
sS'components'
p23
(lp24
sS'anchors'
p25
(lp26
sss."
EndChar
StartChar: A
Encoding: 1 65 1
GlifName: A_
Width: 643
VWidth: 0
Flags: W
LayerCount: 2
Back
Fore
SplineSet
390 180 m 257
 160 180 l 257
 157 159 l 257
 390 159 l 257
 390 180 l 257
633 20 m 257
 370 20 l 257
 370 0 l 257
 633 0 l 257
 633 20 l 257
181 20 m 257
 10 20 l 257
 10 0 l 257
 181 0 l 257
 181 20 l 257
331 570 m 257
 310 570 l 257
 310 570 250 392 250 392 c 257
 438 1 l 257
 594 1 l 257
 331 570 l 257
94 0 m 257
 331 570 l 257
 306 570 l 257
 69 0 l 257
 94 0 l 257
EndSplineSet
PickledDataWithLists: "(dp1
S'com.typemytype.robofont.guides'
p2
(lp3
sS'com.typemytype.robofont.layerData'
p4
(dp5
S'Back'
p6
(dp7
S'name'
p8
S'A'
sS'lib'
p9
(dp10
sS'unicodes'
p11
(lp12
sS'width'
p13
I643
sS'contours'
p14
(lp15
sS'components'
p16
(lp17
sS'anchors'
p18
(lp19
sss."
EndChar
StartChar: B
Encoding: 13 66 13
GlifName: B_
Width: 596
VWidth: 0
Flags: W
LayerCount: 2
Back
Fore
SplineSet
392 421 m 256
 392 333 338 306 271 306 c 257
 240 306 l 257
 240 540 l 257
 271 540 l 257
 339 540 392 509 392 421 c 256
240 20 m 257
 240 286 l 257
 272 286 l 257
 355 286 426 261 426 141 c 257
 426 61 374 20 296 20 c 257
 240 20 l 257
40 0 m 257
 239 0 l 257
 356 0 l 257
 497 0 576 51 576 141 c 257
 576 246 494 292 406 292 c 257
 406 298 l 257
 484 298 533 349 533 418 c 256
 533 502 464 560 292 560 c 258
 40 560 l 257
 40 540 l 257
 90 540 l 257
 90 20 l 257
 40 20 l 257
 40 0 l 257
EndSplineSet
PickledDataWithLists: "(dp1
S'com.typemytype.robofont.layerData'
p2
(dp3
S'Back'
p4
(dp5
S'name'
p6
S'B'
sS'lib'
p7
(dp8
sS'unicodes'
p9
(lp10
sS'width'
p11
I596
sS'contours'
p12
(lp13
sS'components'
p14
(lp15
sS'anchors'
p16
(lp17
sss."
EndChar
StartChar: C
Encoding: 13 67 13
GlifName: C_
Width: 560
VWidth: 0
Flags: W
LayerCount: 2
Back
Fore
SplineSet
186 286 m 257
 186 493 246 553 308 553 c 256
 447 553 505 428 505 337 c 257
 505 337 525 337 525 337 c 257
 525 560 l 257
 525 560 506 560 506 560 c 257
 506 548 497 523 475 523 c 256
 443 523 406 573 308 573 c 256
 150 573 25 493 25 286 c 257
 25 67 143 -15 333 -15 c 257
 429 -15 516 42 535 181 c 257
 515 181 l 257
 499 64 420 5 333 5 c 257
 232 5 186 71 186 286 c 257
EndSplineSet
PickledDataWithLists: "(dp1
S'com.typemytype.robofont.guides'
p2
(lp3
sS'com.typemytype.robofont.layerData'
p4
(dp5
S'Back'
p6
(dp7
S'name'
p8
S'C'
sS'lib'
p9
(dp10
sS'unicodes'
p11
(lp12
sS'width'
p13
I560
sS'contours'
p14
(lp15
sS'components'
p16
(lp17
sS'anchors'
p18
(lp19
sss."
EndChar
StartChar: D
Encoding: 18 68 18
GlifName: D_
Width: 615
VWidth: 0
Flags: W
LayerCount: 2
Back
Fore
SplineSet
240 20 m 257
 240 540 l 257
 377 540 444 439 444 281 c 256
 444 85 381 20 240 20 c 257
290 0 m 257
 497 0 595 94 595 283 c 256
 595 416 495 560 290 560 c 258
 40 560 l 257
 40 540 l 257
 90 540 l 257
 90 20 l 257
 40 20 l 257
 40 0 l 257
 290 0 l 257
EndSplineSet
PickledDataWithLists: "(dp1
S'com.typemytype.robofont.guides'
p2
(lp3
sS'com.typemytype.robofont.layerData'
p4
(dp5
S'Back'
p6
(dp7
S'name'
p8
S'D'
sS'lib'
p9
(dp10
sS'unicodes'
p11
(lp12
sS'width'
p13
I615
sS'contours'
p14
(lp15
sS'components'
p16
(lp17
sS'anchors'
p18
(lp19
sss."
EndChar
StartChar: E
Encoding: 23 69 23
GlifName: E_
Width: 545
VWidth: 0
Flags: W
LayerCount: 2
Back
Fore
SplineSet
340 20 m 257
 240 20 l 257
 240 280 l 257
 280 280 l 257
 380 280 390 262 390 190 c 257
 410 190 l 257
 410 390 l 257
 390 390 l 257
 390 322 380 300 280 300 c 257
 240 300 l 257
 240 540 l 257
 330 540 l 257
 427 540 480 516 480 390 c 257
 500 390 l 257
 500 560 l 257
 40 560 l 257
 40 540 l 257
 90 540 l 257
 90 20 l 257
 40 20 l 257
 40 0 l 257
 510 0 l 257
 510 190 l 257
 490 190 l 257
 490 54 417 20 340 20 c 257
EndSplineSet
Validated: 9
PickledDataWithLists: "(dp1
S'com.typemytype.robofont.guides'
p2
(lp3
(dp4
S'y'
I300
sS'x'
I432
sS'magnetic'
p5
I5
sS'angle'
p6
I0
sS'isGlobal'
p7
I0
sasS'com.typemytype.robofont.layerData'
p8
(dp9
S'Back'
p10
(dp11
S'name'
p12
S'E'
sS'lib'
p13
(dp14
sS'unicodes'
p15
(lp16
sS'width'
p17
I545
sS'contours'
p18
(lp19
sS'components'
p20
(lp21
sS'anchors'
p22
(lp23
sss."
EndChar
StartChar: F
Encoding: 33 70 33
GlifName: F_
Width: 530
VWidth: 0
Flags: W
LayerCount: 2
Back
Fore
SplineSet
500 390 m 257
 500 540 l 257
 330 540 l 257
 427 540 480 516 480 390 c 257
 500 390 l 257
240 560 m 257
 90 560 l 257
 90 1 l 257
 240 1 l 257
 240 560 l 257
390 278 m 257
 150 278 l 257
 150 258 l 257
 390 258 l 257
 390 278 l 257
500 560 m 257
 40 560 l 257
 40 540 l 257
 500 540 l 257
 500 560 l 257
410 168 m 257
 410 368 l 257
 390 368 l 257
 390 300 380 278 280 278 c 257
 280 258 l 257
 380 258 390 240 390 168 c 257
 410 168 l 257
300 20 m 257
 40 20 l 257
 40 0 l 257
 300 0 l 257
 300 20 l 257
EndSplineSet
PickledDataWithLists: "(dp1
S'com.typemytype.robofont.guides'
p2
(lp3
sS'com.typemytype.robofont.layerData'
p4
(dp5
S'Back'
p6
(dp7
S'name'
p8
S'F'
sS'lib'
p9
(dp10
sS'unicodes'
p11
(lp12
sS'width'
p13
I530
sS'contours'
p14
(lp15
sS'components'
p16
(lp17
sS'anchors'
p18
(lp19
sss."
EndChar
StartChar: G
Encoding: 37 71 37
GlifName: G_
Width: 608
VWidth: 0
Flags: W
LayerCount: 2
Back
Fore
SplineSet
477 54 m 257
 503 54 522 31 522 0 c 257
 541 0 l 257
 541 250 l 257
 588 250 l 257
 588 270 l 257
 348 270 l 256
 348 250 l 257
 411 250 l 257
 411 176 l 257
 411 61 380 5 315 5 c 257
 239 5 191 70 191 270 c 257
 191 484 237 553 313 553 c 256
 418 553 510 458 510 357 c 257
 530 357 l 257
 530 560 l 257
 511 560 l 257
 511 548 502 523 480 523 c 256
 448 523 401 573 313 573 c 256
 138 573 30 484 30 270 c 257
 30 72 139 -15 315 -15 c 257
 409 -15 421 54 477 54 c 257
EndSplineSet
PickledDataWithLists: "(dp1
S'com.typemytype.robofont.guides'
p2
(lp3
(dp4
S'y'
I290
sS'x'
I304
sS'magnetic'
p5
I5
sS'angle'
p6
I0
sS'isGlobal'
p7
I0
sasS'com.typemytype.robofont.layerData'
p8
(dp9
S'Back'
p10
(dp11
S'name'
p12
S'G'
sS'lib'
p13
(dp14
sS'unicodes'
p15
(lp16
sS'width'
p17
I608
sS'contours'
p18
(lp19
sS'components'
p20
(lp21
sS'anchors'
p22
(lp23
sss."
EndChar
StartChar: H
Encoding: 41 72 41
GlifName: H_
Width: 657
VWidth: 0
Flags: W
LayerCount: 2
Back
Fore
SplineSet
464 308 m 257
 184 308 l 257
 184 288 l 257
 464 288 l 257
 464 308 l 257
627 20 m 257
 377 20 l 256
 377 0 l 257
 627 0 l 257
 627 20 l 257
577 560 m 257
 427 560 l 257
 427 1 l 257
 577 1 l 257
 577 560 l 257
627 560 m 257
 377 560 l 257
 377 540 l 257
 627 540 l 257
 627 560 l 257
280 20 m 257
 30 20 l 256
 30 0 l 257
 280 0 l 257
 280 20 l 257
280 560 m 257
 30 560 l 257
 30 540 l 257
 280 540 l 257
 280 560 l 257
230 560 m 257
 80 560 l 257
 80 1 l 257
 230 1 l 257
 230 560 l 257
EndSplineSet
Validated: 5
PickledDataWithLists: "(dp1
S'com.typemytype.robofont.layerData'
p2
(dp3
S'Back'
p4
(dp5
S'name'
p6
S'H'
sS'lib'
p7
(dp8
sS'unicodes'
p9
(lp10
sS'width'
p11
I657
sS'contours'
p12
(lp13
sS'components'
p14
(lp15
sS'anchors'
p16
(lp17
sss."
EndChar
StartChar: I
Encoding: 43 73 43
GlifName: I_
Width: 330
VWidth: 0
Flags: W
LayerCount: 2
Back
Fore
SplineSet
290 0 m 257
 290 20 l 257
 240 20 l 257
 240 540 l 257
 290 540 l 257
 290 560 l 257
 40 560 l 257
 40 540 l 257
 90 540 l 257
 90 20 l 257
 40 20 l 256
 40 0 l 257
 290 0 l 257
EndSplineSet
Validated: 9
PickledDataWithLists: "(dp1
S'com.typemytype.robofont.guides'
p2
(lp3
sS'com.typemytype.robofont.layerData'
p4
(dp5
S'Back'
p6
(dp7
S'name'
p8
S'I'
sS'lib'
p9
(dp10
sS'unicodes'
p11
(lp12
sS'width'
p13
I330
sS'contours'
p14
(lp15
sS'components'
p16
(lp17
sS'anchors'
p18
(lp19
sss."
EndChar
StartChar: J
Encoding: 46 74 46
GlifName: J_
Width: 500
VWidth: 0
Flags: W
LayerCount: 2
Back
Fore
SplineSet
184 0 m 256
 346 0 420 80 420 206 c 257
 420 540 l 257
 470 540 l 257
 470 560 l 257
 220 560 l 257
 220 540 l 257
 270 540 l 257
 270 197 l 257
 270 102 246 23 151 23 c 256
 107 23 65 45 65 70 c 256
 65 89 86 87 110 95 c 256
 146 106 162 131 162 160 c 256
 162 201 133 232 93 232 c 256
 43 232 10 188 10 140 c 256
 10 46 83 0 184 0 c 256
EndSplineSet
PickledDataWithLists: "(dp1
S'com.typemytype.robofont.layerData'
p2
(dp3
S'Back'
p4
(dp5
S'name'
p6
S'J'
sS'lib'
p7
(dp8
sS'unicodes'
p9
(lp10
sS'width'
p11
I500
sS'contours'
p12
(lp13
sS'components'
p14
(lp15
sS'anchors'
p16
(lp17
sss."
EndChar
StartChar: K
Encoding: 56 75 56
GlifName: K_
Width: 640
VWidth: 0
Flags: W
LayerCount: 2
Back
Fore
SplineSet
630 20 m 257
 370 20 l 257
 370 0 l 257
 630 0 l 257
 630 20 l 257
584 560 m 257
 380 560 l 257
 380 540 l 257
 584 540 l 257
 584 560 l 257
290 560 m 257
 40 560 l 257
 40 540 l 257
 290 540 l 257
 290 560 l 257
426 0 m 257
 598 0 l 257
 376 400 l 256
 277 272 l 257
 426 0 l 257
240 560 m 257
 90 560 l 257
 90 0 l 257
 240 0 l 257
 240 560 l 257
232 200 m 257
 514 559 l 257
 487 559 l 257
 205 200 l 257
 232 200 l 257
290 20 m 257
 40 20 l 257
 40 0 l 257
 290 0 l 257
 290 20 l 257
EndSplineSet
Validated: 5
PickledDataWithLists: "(dp1
S'com.typemytype.robofont.layerData'
p2
(dp3
S'Back'
p4
(dp5
S'name'
p6
S'K'
sS'lib'
p7
(dp8
sS'unicodes'
p9
(lp10
sS'width'
p11
I640
sS'contours'
p12
(lp13
sS'components'
p14
(lp15
sS'anchors'
p16
(lp17
sss."
EndChar
StartChar: L
Encoding: 57 76 57
GlifName: L_
Width: 520
VWidth: 0
Flags: W
LayerCount: 2
Back
Fore
SplineSet
300 560 m 257
 40 560 l 257
 40 540 l 257
 300 540 l 257
 300 560 l 257
510 20 m 257
 40 20 l 257
 40 0 l 257
 510 0 l 257
 510 20 l 257
240 560 m 257
 90 560 l 257
 90 1 l 257
 240 1 l 257
 240 560 l 257
510 190 m 257
 510 20 l 257
 340 20 l 257
 417 20 490 34 490 190 c 257
 510 190 l 257
EndSplineSet
PickledDataWithLists: "(dp1
S'com.typemytype.robofont.layerData'
p2
(dp3
S'Back'
p4
(dp5
S'name'
p6
S'L'
sS'lib'
p7
(dp8
sS'unicodes'
p9
(lp10
sS'width'
p11
I520
sS'contours'
p12
(lp13
sS'components'
p14
(lp15
sS'anchors'
p16
(lp17
sss."
EndChar
StartChar: M
Encoding: 54 77 54
GlifName: M_
Width: 784
VWidth: 0
Flags: W
LayerCount: 2
Back
Fore
SplineSet
754 20 m 257
 504 20 l 257
 504 0 l 257
 754 0 l 257
 754 20 l 257
754 560 m 257
 704 560 l 257
 704 540 l 257
 754 540 l 257
 754 560 l 257
704 560 m 257
 554 560 l 257
 554 1 l 257
 704 1 l 257
 704 560 l 257
356 -10 m 257
 576 560 l 257
 554 560 l 257
 333 -10 l 257
 356 -10 l 257
111 12 m 257
 111 560 l 257
 91 560 l 257
 91 12 l 257
 111 12 l 257
191 20 m 257
 31 20 l 257
 31 0 l 257
 191 0 l 257
 191 20 l 257
253 560 m 257
 93 560 l 257
 333 -10 l 257
 333 -10 413 175 413 175 c 257
 253 560 l 257
91 560 m 257
 30 560 l 257
 30 540 l 257
 91 540 l 257
 91 560 l 257
224 560 m 257
 82 560 l 257
 82 540 l 257
 224 540 l 257
 224 560 l 257
EndSplineSet
PickledDataWithLists: "(dp1
S'com.typemytype.robofont.layerData'
p2
(dp3
S'Back'
p4
(dp5
S'name'
p6
S'M'
sS'lib'
p7
(dp8
sS'unicodes'
p9
(lp10
sS'width'
p11
I784
sS'contours'
p12
(lp13
sS'components'
p14
(lp15
sS'anchors'
p16
(lp17
sss."
EndChar
StartChar: N
Encoding: 63 78 63
GlifName: N_
Width: 598
VWidth: 0
Flags: W
LayerCount: 2
Back
Fore
SplineSet
488 -10 m 257
 508 -10 l 257
 508 540 l 257
 578 540 l 257
 578 560 l 257
 408 560 l 257
 408 540 l 257
 488 540 l 257
 488 227 l 257
 207 560 l 257
 20 560 l 257
 20 540 l 257
 36 540 57 528 80 496 c 257
 80 20 l 257
 20 20 l 256
 20 0 l 257
 180 0 l 257
 180 20 l 257
 100 20 l 257
 100 471 l 257
 488 -10 l 257
EndSplineSet
PickledDataWithLists: "(dp1
S'com.typemytype.robofont.layerData'
p2
(dp3
S'Back'
p4
(dp5
S'name'
p6
S'N'
sS'lib'
p7
(dp8
sS'unicodes'
p9
(lp10
sS'width'
p11
I598
sS'contours'
p12
(lp13
sS'components'
p14
(lp15
sS'anchors'
p16
(lp17
sss."
EndChar
StartChar: O
Encoding: 68 79 68
GlifName: O_
Width: 622
VWidth: 0
Flags: W
LayerCount: 2
Back
Fore
SplineSet
311 -10 m 256
 473 -10 602 82 602 281 c 257
 602 456 491 572 311 572 c 256
 137 572 20 456 20 281 c 257
 20 82 144 -10 311 -10 c 256
311 552 m 256
 393 552 441 451 441 281 c 257
 441 105 397 10 311 10 c 256
 228 10 181 105 181 281 c 257
 181 451 231 552 311 552 c 256
EndSplineSet
PickledDataWithLists: "(dp1
S'com.typemytype.robofont.guides'
p2
(lp3
(dp4
S'y'
I281
sS'x'
I373
sS'magnetic'
p5
I5
sS'angle'
p6
I0
sS'isGlobal'
p7
I0
sasS'com.typemytype.robofont.layerData'
p8
(dp9
S'Back'
p10
(dp11
S'name'
p12
S'O'
sS'lib'
p13
(dp14
sS'unicodes'
p15
(lp16
sS'width'
p17
I622
sS'contours'
p18
(lp19
sS'components'
p20
(lp21
sS'anchors'
p22
(lp23
sss."
EndChar
StartChar: P
Encoding: 80 80 80
GlifName: P_
Width: 563
VWidth: 0
Flags: W
LayerCount: 2
Back
Fore
SplineSet
290 20 m 257
 240 20 l 257
 240 194 l 257
 438 184 533 254 533 371 c 257
 533 499 447 570 239 560 c 257
 40 560 l 257
 40 540 l 257
 90 540 l 257
 90 20 l 257
 40 20 l 257
 40 0 l 257
 290 0 l 257
 290 20 l 257
240 540 m 257
 352 540 382 490 382 372 c 257
 382 260 352 214 240 214 c 257
 240 540 l 257
EndSplineSet
Validated: 41
PickledDataWithLists: "(dp1
S'com.typemytype.robofont.layerData'
p2
(dp3
S'Back'
p4
(dp5
S'name'
p6
S'P'
sS'lib'
p7
(dp8
sS'unicodes'
p9
(lp10
sS'width'
p11
I563
sS'contours'
p12
(lp13
sS'components'
p14
(lp15
sS'anchors'
p16
(lp17
sss."
EndChar
StartChar: Q
Encoding: 73 81 73
GlifName: Q_
Width: 684
VWidth: 0
Flags: W
LayerCount: 2
Back
Fore
SplineSet
250 -69 m 257
 465 -32 642 71 642 275 c 257
 642 443 515 570 331 570 c 257
 147 570 30 440 30 276 c 257
 30 92 147 8 321 8 c 257
 321 28 l 257
 232 28 192 132 192 276 c 257
 192 458 250 550 331 550 c 257
 411 550 480 464 480 276 c 257
 480 86 409 -3 309 -33 c 256
 258 -48 196 -57 135 -109 c 257
 146 -127 l 257
 173 -106 202 -92 233 -92 c 256
 365 -92 421 -262 558 -262 c 256
 673 -262 702 -174 702 -32 c 257
 682 -32 l 257
 682 -77 645 -113 586 -113 c 256
 443 -113 403 -63 250 -73 c 257
 250 -69 l 257
EndSplineSet
PickledDataWithLists: "(dp1
S'com.typemytype.robofont.layerData'
p2
(dp3
S'Back'
p4
(dp5
S'name'
p6
S'Q'
sS'lib'
p7
(dp8
sS'unicodes'
p9
(lp10
sS'width'
p11
I684
sS'contours'
p12
(lp13
sS'components'
p14
(lp15
sS'anchors'
p16
(lp17
sss."
EndChar
StartChar: R
Encoding: 82 82 82
GlifName: R_
Width: 633
VWidth: 0
Flags: W
LayerCount: 2
Back
Fore
SplineSet
623 -10 m 257
 623 10 l 257
 585 10 561 46 534 139 c 256
 517 197 483 271 395 271 c 257
 395 278 l 257
 483 278 548 331 548 411 c 257
 548 490 496 560 293 560 c 257
 30 560 l 257
 30 540 l 257
 80 540 l 257
 80 20 l 257
 30 20 l 257
 30 0 l 257
 280 0 l 257
 280 20 l 257
 230 20 l 257
 230 262 l 257
 274 262 l 257
 409 262 266 -10 579 -10 c 258
 623 -10 l 257
230 540 m 257
 369 540 398 490 398 412 c 257
 398 320 369 282 230 282 c 257
 230 540 l 257
EndSplineSet
PickledDataWithLists: "(dp1
S'com.typemytype.robofont.layerData'
p2
(dp3
S'Back'
p4
(dp5
S'name'
p6
S'R'
sS'lib'
p7
(dp8
sS'unicodes'
p9
(lp10
sS'width'
p11
I633
sS'contours'
p12
(lp13
sS'components'
p14
(lp15
sS'anchors'
p16
(lp17
sss."
EndChar
StartChar: S
Encoding: 85 83 85
GlifName: S_
Width: 558
VWidth: 0
Flags: W
LayerCount: 2
Back
Fore
SplineSet
80 0 m 257
 80 28 95 40 117 40 c 256
 153 40 205 -15 316 -15 c 256
 434 -15 507 42 518 151 c 257
 528 283 418 318 328 360 c 256
 255 394 182 410 182 473 c 256
 182 517 211 550 261 550 c 256
 371 550 450 483 450 387 c 257
 450 387 470 387 470 387 c 257
 470 570 l 257
 470 570 450 570 450 570 c 257
 450 556 446 535 430 535 c 256
 400 535 358 570 260 570 c 256
 166 570 86 511 76 407 c 256
 65 291 152 257 261 208 c 256
 341 172 401 146 401 93 c 256
 401 40 364 7 312 7 c 256
 183 7 80 108 80 233 c 257
 60 233 l 257
 60 0 l 257
 60 0 80 0 80 0 c 257
EndSplineSet
PickledDataWithLists: "(dp1
S'com.typemytype.robofont.guides'
p2
(lp3
sS'com.typemytype.robofont.layerData'
p4
(dp5
S'Back'
p6
(dp7
S'name'
p8
S'S'
sS'lib'
p9
(dp10
sS'unicodes'
p11
(lp12
sS'width'
p13
I558
sS'contours'
p14
(lp15
sS'components'
p16
(lp17
sS'anchors'
p18
(lp19
sss."
EndChar
StartChar: T
Encoding: 89 84 89
GlifName: T_
Width: 569
VWidth: 0
Flags: W
LayerCount: 2
Back
Fore
SplineSet
529 390 m 257
 549 390 l 257
 549 560 l 257
 20 560 l 257
 20 390 l 257
 40 390 l 257
 40 510 74 540 179 540 c 257
 209 540 l 257
 209 20 l 257
 139 20 l 256
 139 0 l 257
 429 0 l 257
 429 20 l 257
 359 20 l 257
 359 540 l 257
 389 540 l 258
 495 540 529 510 529 390 c 257
EndSplineSet
PickledDataWithLists: "(dp1
S'com.typemytype.robofont.layerData'
p2
(dp3
S'Back'
p4
(dp5
S'name'
p6
S'T'
sS'lib'
p7
(dp8
sS'unicodes'
p9
(lp10
sS'width'
p11
I569
sS'contours'
p12
(lp13
sS'components'
p14
(lp15
sS'anchors'
p16
(lp17
sss."
EndChar
StartChar: U
Encoding: 88 85 88
GlifName: U_
Width: 605
VWidth: 0
Flags: W
LayerCount: 2
Back
Fore
SplineSet
545 244 m 258
 545 540 l 257
 595 540 l 257
 595 560 l 257
 441 560 l 257
 441 540 l 257
 520 540 l 257
 520 224 l 258
 520 85 439 14 370 14 c 256
 277 14 230 87 230 223 c 258
 230 540 l 257
 280 540 l 257
 280 560 l 257
 20 560 l 257
 20 540 l 257
 70 540 l 257
 70 234 l 258
 70 63 171 -15 327 -15 c 256
 471 -15 545 71 545 244 c 258
EndSplineSet
PickledDataWithLists: "(dp1
S'com.typemytype.robofont.guides'
p2
(lp3
sS'com.typemytype.robofont.layerData'
p4
(dp5
S'Back'
p6
(dp7
S'name'
p8
S'U'
sS'lib'
p9
(dp10
sS'unicodes'
p11
(lp12
sS'width'
p13
I605
sS'contours'
p14
(lp15
sS'components'
p16
(lp17
sS'anchors'
p18
(lp19
sss."
EndChar
StartChar: V
Encoding: 97 86 97
GlifName: V_
Width: 626
VWidth: 0
Flags: W
LayerCount: 2
Back
Fore
SplineSet
293 560 m 257
 10 560 l 257
 10 540 l 257
 293 540 l 257
 293 560 l 257
616 560 m 257
 442 560 l 257
 442 540 l 257
 616 540 l 257
 616 560 l 257
235 560 m 257
 49 560 l 257
 309 0 l 257
 309 0 401 180 401 180 c 257
 235 560 l 257
335 0 m 257
 556 560 l 257
 530 560 l 257
 309 0 l 257
 335 0 l 257
EndSplineSet
PickledDataWithLists: "(dp1
S'com.typemytype.robofont.guides'
p2
(lp3
sS'com.typemytype.robofont.layerData'
p4
(dp5
S'Back'
p6
(dp7
S'name'
p8
S'V'
sS'lib'
p9
(dp10
sS'unicodes'
p11
(lp12
sS'width'
p13
I626
sS'contours'
p14
(lp15
sS'components'
p16
(lp17
sS'anchors'
p18
(lp19
sss."
EndChar
StartChar: W
Encoding: 105 87 105
GlifName: W_
Width: 919
VWidth: 0
Flags: W
LayerCount: 2
Back
Fore
SplineSet
629 0 m 257
 634 11 l 257
 630 0 l 257
 654 0 l 257
 841 540 l 257
 909 540 l 257
 909 560 l 257
 737 560 l 257
 737 540 l 257
 817 540 l 257
 711 235 l 257
 577 540 l 257
 624 540 l 257
 624 560 l 257
 350 560 l 257
 350 540 l 257
 388 540 l 257
 455 390 l 257
 391 231 l 257
 254 540 l 257
 303 540 l 257
 303 560 l 257
 10 560 l 257
 10 540 l 257
 58 540 l 257
 299 0 l 257
 323 0 l 257
 468 362 l 257
 629 0 l 257
EndSplineSet
PickledDataWithLists: "(dp1
S'com.typemytype.robofont.guides'
p2
(lp3
sS'com.typemytype.robofont.layerData'
p4
(dp5
S'Back'
p6
(dp7
S'name'
p8
S'W'
sS'lib'
p9
(dp10
sS'unicodes'
p11
(lp12
sS'width'
p13
I919
sS'contours'
p14
(lp15
sS'components'
p16
(lp17
sS'anchors'
p18
(lp19
sss."
EndChar
StartChar: X
Encoding: 110 88 110
GlifName: X_
Width: 625
VWidth: 0
Flags: W
LayerCount: 2
Back
Fore
SplineSet
340 292 m 257
 520 560 l 257
 493 560 l 257
 313 292 l 257
 340 292 l 257
400 540 m 257
 580 540 l 257
 580 560 l 257
 400 560 l 257
 400 540 l 257
190 20 m 257
 10 20 l 257
 10 0 l 257
 190 0 l 257
 190 20 l 257
250 290 m 257
 70 0 l 257
 97 0 l 257
 277 290 l 257
 250 290 l 257
615 20 m 257
 340 20 l 257
 340 0 l 257
 615 0 l 257
 615 20 l 257
242 560 m 257
 62 560 l 257
 402 0 l 257
 402 0 579 0 579 0 c 257
 242 560 l 257
300 560 m 257
 21 560 l 257
 21 540 l 257
 300 540 l 257
 300 560 l 257
EndSplineSet
Validated: 5
PickledDataWithLists: "(dp1
S'com.typemytype.robofont.layerData'
p2
(dp3
S'Back'
p4
(dp5
S'name'
p6
S'X'
sS'lib'
p7
(dp8
sS'unicodes'
p9
(lp10
sS'width'
p11
I625
sS'contours'
p12
(lp13
sS'components'
p14
(lp15
sS'anchors'
p16
(lp17
sss."
EndChar
StartChar: Y
Encoding: 111 89 111
GlifName: Y_
Width: 616
VWidth: 0
Flags: W
LayerCount: 2
Back
Fore
SplineSet
431 0 m 257
 431 20 l 257
 391 20 l 257
 391 258 l 257
 536 540 l 257
 606 540 l 257
 606 560 l 257
 431 560 l 257
 431 540 l 257
 511 540 l 257
 381 288 l 257
 241 540 l 257
 290 540 l 257
 290 560 l 257
 10 560 l 257
 10 540 l 257
 62 540 l 257
 241 231 l 257
 241 20 l 257
 201 20 l 256
 201 0 l 257
 431 0 l 257
EndSplineSet
PickledDataWithLists: "(dp1
S'com.typemytype.robofont.layerData'
p2
(dp3
S'Back'
p4
(dp5
S'name'
p6
S'Y'
sS'lib'
p7
(dp8
sS'unicodes'
p9
(lp10
sS'width'
p11
I616
sS'contours'
p12
(lp13
sS'components'
p14
(lp15
sS'anchors'
p16
(lp17
sss."
EndChar
StartChar: Z
Encoding: 103 90 103
GlifName: Z_
Width: 529
VWidth: 0
Flags: W
LayerCount: 2
Back
Fore
SplineSet
324 560 m 257
 30 20 l 257
 30 20 35 0 35 0 c 257
 184 0 l 257
 482 540 l 257
 482 540 478 560 478 560 c 257
 324 560 l 257
30 0 m 257
 489 0 l 257
 489 210 l 257
 469 210 l 257
 469 44 416 20 300 20 c 257
 300 20 30 20 30 20 c 257
 30 0 l 257
482 560 m 257
 60 560 l 257
 60 370 l 257
 80 370 l 257
 80 516 133 540 249 540 c 257
 249 540 482 540 482 540 c 257
 482 560 l 257
EndSplineSet
PickledDataWithLists: "(dp1
S'com.typemytype.robofont.layerData'
p2
(dp3
S'Back'
p4
(dp5
S'name'
p6
S'Z'
sS'lib'
p7
(dp8
sS'unicodes'
p9
(lp10
sS'width'
p11
I529
sS'contours'
p12
(lp13
sS'components'
p14
(lp15
sS'anchors'
p16
(lp17
sss."
EndChar
StartChar: bracketleft
Encoding: 148 91 148
GlifName: bracketleft
Width: 270
VWidth: 0
Flags: W
LayerCount: 2
Back
Fore
SplineSet
50 -57 m 257
 260 -57 l 257
 260 -37 l 257
 174 -37 l 257
 174 597 l 257
 260 597 l 257
 260 617 l 257
 50 617 l 257
 50 -57 l 257
EndSplineSet
Validated: 9
PickledDataWithLists: "(dp1
S'com.typemytype.robofont.layerData'
p2
(dp3
S'Back'
p4
(dp5
S'name'
p6
S'bracketleft'
p7
sS'lib'
p8
(dp9
sS'unicodes'
p10
(lp11
sS'width'
p12
I270
sS'contours'
p13
(lp14
sS'components'
p15
(lp16
sS'anchors'
p17
(lp18
sss."
EndChar
StartChar: backslash
Encoding: 144 92 144
GlifName: backslash
Width: 264
VWidth: 0
Flags: W
LayerCount: 2
Back
Fore
SplineSet
58 564 m 257
 40 559 l 257
 205 -5 l 257
 224 1 l 257
 58 564 l 257
EndSplineSet
PickledDataWithLists: "(dp1
S'com.typemytype.robofont.layerData'
p2
(dp3
S'Back'
p4
(dp5
S'name'
p6
S'backslash'
p7
sS'lib'
p8
(dp9
sS'unicodes'
p10
(lp11
sS'width'
p12
I264
sS'contours'
p13
(lp14
sS'components'
p15
(lp16
sS'anchors'
p17
(lp18
sss."
EndChar
StartChar: bracketright
Encoding: 149 93 149
GlifName: bracketright
Width: 270
VWidth: 0
Flags: W
LayerCount: 2
Back
Fore
SplineSet
220 -57 m 257
 220 617 l 257
 10 617 l 257
 10 597 l 257
 96 597 l 257
 96 -37 l 257
 10 -37 l 257
 10 -57 l 257
 220 -57 l 257
EndSplineSet
PickledDataWithLists: "(dp1
S'com.typemytype.robofont.layerData'
p2
(dp3
S'Back'
p4
(dp5
S'name'
p6
S'bracketright'
p7
sS'lib'
p8
(dp9
sS'unicodes'
p10
(lp11
sS'width'
p12
I270
sS'contours'
p13
(lp14
sS'components'
p15
(lp16
sS'anchors'
p17
(lp18
sss."
EndChar
StartChar: asciicircum
Encoding: 138 94 138
GlifName: asciicircum
Width: 342
VWidth: 0
Flags: W
LayerCount: 2
Back
Fore
SplineSet
171 455 m 257
 294 198 l 257
 312 206 l 257
 177 489 l 257
 165 489 l 257
 30 206 l 257
 47 198 l 257
 171 455 l 257
EndSplineSet
Validated: 9
PickledDataWithLists: "(dp1
S'com.typemytype.robofont.layerData'
p2
(dp3
S'Back'
p4
(dp5
S'name'
p6
S'asciicircum'
p7
sS'lib'
p8
(dp9
sS'unicodes'
p10
(lp11
sS'width'
p12
I342
sS'contours'
p13
(lp14
sS'components'
p15
(lp16
sS'anchors'
p17
(lp18
sss."
EndChar
StartChar: underscore
Encoding: 1052 95 1052
GlifName: underscore
Width: 522
VWidth: 0
Flags: W
LayerCount: 2
Back
Fore
SplineSet
30 -64 m 257
 492 -64 l 257
 492 -44 l 257
 30 -44 l 257
 30 -64 l 257
EndSplineSet
Validated: 9
PickledDataWithLists: "(dp1
S'com.typemytype.robofont.layerData'
p2
(dp3
S'Back'
p4
(dp5
S'name'
p6
S'underscore'
p7
sS'lib'
p8
(dp9
sS'unicodes'
p10
(lp11
sS'width'
p12
I522
sS'contours'
p13
(lp14
sS'components'
p15
(lp16
sS'anchors'
p17
(lp18
sss."
EndChar
StartChar: grave
Encoding: 918 96 918
GlifName: grave
Width: 539
VWidth: 0
Flags: W
LayerCount: 2
Back
Fore
SplineSet
339 511 m 257
 305 560 330 587 297 632 c 256
 281 654 248 663 227 650 c 256
 200 638 190 600 213 568 c 256
 241 529 290 552 325 501 c 257
 339 511 l 257
EndSplineSet
Validated: 41
PickledDataWithLists: "(dp1
S'com.typemytype.robofont.layerData'
p2
(dp3
S'Back'
p4
(dp5
S'name'
p6
S'grave'
p7
sS'lib'
p8
(dp9
sS'unicodes'
p10
(lp11
sS'width'
p12
I539
sS'contours'
p13
(lp14
sS'components'
p15
(lp16
sS'anchors'
p17
(lp18
sss."
EndChar
StartChar: a
Encoding: 123 97 123
GlifName: a
Width: 545
VWidth: 0
Flags: W
LayerCount: 2
Back
Fore
SplineSet
254 34 m 256
 226 34 186 58 179 113 c 257
 173 187 223 222 278 229 c 258
 314 234 l 257
 314 64 l 257
 301 47 281 34 254 34 c 256
433 -5 m 256
 466 -5 511 6 525 20 c 256
 525 30 l 257
 480 20 464 29 464 102 c 258
 464 282 l 257
 464 423 408 468 269 468 c 257
 122 468 61 406 61 344 c 257
 61 303 95 270 135 270 c 257
 176 270 209 303 209 344 c 257
 209 390 153 449 243 449 c 257
 306 449 314 411 314 302 c 257
 314 253 l 257
 274 248 l 258
 95 227 40 179 40 93 c 257
 40 23 98 -8 166 -8 c 256
 234 -8 286 10 319 44 c 257
 336 5 373 -5 433 -5 c 256
EndSplineSet
PickledDataWithLists: "(dp1
S'com.typemytype.robofont.guides'
p2
(lp3
sS'com.typemytype.robofont.layerData'
p4
(dp5
S'Back'
p6
(dp7
S'name'
p8
S'a'
sS'lib'
p9
(dp10
sS'unicodes'
p11
(lp12
sS'width'
p13
I545
sS'contours'
p14
(lp15
sS'components'
p16
(lp17
sS'anchors'
p18
(lp19
sss."
EndChar
StartChar: b
Encoding: 127 98 127
GlifName: b
Width: 558
VWidth: 0
Flags: HWO
LayerCount: 2
Back
SplineSet
303 -9 m 257
 384 -9 528 32 528 230 c 256
 528 398 432 482 339 482 c 260
 289 482 232 462 210 424 c 261
 210 670 l 257
 10 670 l 257
 10 650 l 257
 60 650 l 257
 60 0 l 257
 79 0 l 257
 79 41 100 70 124 70 c 256
 178 70 209 -9 303 -9 c 257
210 394 m 261
 227 428 251 441 277 441 c 260
 324 441 377 374 377 231 c 256
 377 81 327 13 280 13 c 256
 233 13 210 52 210 156 c 257
 210 394 l 261
EndSplineSet
Fore
SplineSet
303 -9 m 0
NamedP: "connection"
 384 -9 528 32 528 230 c 260
NamedP: "vertical right"
 528 398 432 482 339 482 c 256
NamedP: "horizontal top"
 289 482 232 462 210 424 c 257
NamedP: "to-stem"
 210 394 l 257
NamedP: "to-stem"
 227 428 251 441 277 441 c 256
NamedP: "horizontal top"
 324 441 377 374 377 231 c 256
NamedP: "vertical right"
 377 81 327 13 280 13 c 256
NamedP: "connection"
 303 -9 l 0
NamedP: "connection"
  Named: "bowl"
79 0 m 257
NamedP: "bottom inner"
 79 41 100 70 124 70 c 259
NamedP: "bridge"
 178 70 209 -9 303 -9 c 257
NamedP: "connection lower"
 280 13 l 256
NamedP: "connection upper"
 233 13 210 52 210 156 c 257
NamedP: "top right"
 60 156 l 257
NamedP: "top left"
 60 0 l 257
NamedP: "bottom outer"
 79 0 l 257
NamedP: "bottom inner"
  Named: "O:terminal"
210 670 m 257
NamedP: "right top no-serif"
 10 670 l 257
NamedP: "left top serif"
 10 650 l 257
NamedP: "left top serif"
 210 650 l 1
NamedP: "right top no-serif"
 210 670 l 257
NamedP: "right top no-serif"
  Named: "topSerif"
210 156 m 257
NamedP: "bottom"
 210 660 l 257
NamedP: "top right"
 60 660 l 257
NamedP: "top left"
 60 156 l 0
NamedP: "bottom"
 210 156 l 257
NamedP: "bottom"
  Named: "stem"
EndSplineSet
PickledDataWithLists: "(dp1
S'com.typemytype.robofont.guides'
p2
(lp3
(dp4
S'y'
I700
sS'x'
I219
sS'magnetic'
p5
I5
sS'angle'
p6
I0
sS'isGlobal'
p7
I0
sa(dp8
S'y'
I259
sS'x'
I240
sg5
I5
sg6
I90
sg7
I0
sasS'com.typemytype.robofont.layerData'
p9
(dp10
S'Back'
p11
(dp12
S'name'
p13
S'b'
sS'lib'
p14
(dp15
sS'unicodes'
p16
(lp17
sS'width'
p18
I558
sS'contours'
p19
(lp20
sS'components'
p21
(lp22
sS'anchors'
p23
(lp24
sss."
EndChar
StartChar: c
Encoding: 154 99 154
GlifName: c
Width: 503
VWidth: 0
Flags: W
LayerCount: 2
Back
Fore
SplineSet
30 230 m 257
 30 68 121 -9 291 -9 c 256
 369 -9 433 25 463 75 c 257
 449 85 l 257
 427 52 374 24 328 24 c 256
 229 24 181 98 181 230 c 256
 181 352 206 441 271 451 c 257
 350 461 318 389 318 326 c 257
 318 287 339 263 381 253 c 256
 420 244 459 264 470 306 c 256
 487 371 430 470 274 470 c 257
 141 470 30 395 30 230 c 257
EndSplineSet
Validated: 41
PickledDataWithLists: "(dp1
S'com.typemytype.robofont.guides'
p2
(lp3
sS'com.typemytype.robofont.layerData'
p4
(dp5
S'Back'
p6
(dp7
S'name'
p8
S'c'
sS'lib'
p9
(dp10
sS'unicodes'
p11
(lp12
sS'width'
p13
I503
sS'contours'
p14
(lp15
sS'components'
p16
(lp17
sS'anchors'
p18
(lp19
sss."
EndChar
StartChar: d
Encoding: 155 100 155
GlifName: d
Width: 588
VWidth: 0
Flags: HW
LayerCount: 2
Back
Fore
SplineSet
358 202 m 1
 358 45 325.010742188 27 280 27 c 259
 233.399414062 27 182 83 182 229 c 259
 182 384 234 438 291 438 c 259
 335.012193309 438 363 389 378 323 c 9
 382 356 l 257
 361 438 312.005681635 482 229 482 c 259
 126 482 30 398 30 230 c 259
 30 70 128 -12 229 -12 c 259
 341 -12 382 27 382 202 c 257
 358 202 l 1
  Named: "bowl"
558 20 m 257
 358 20 l 257
 358 0 l 1
 558 0 l 257
 558 20 l 257
  Named: "bottomSerif"
508 10 m 1
 508 660 l 1
 358 660 l 1
 358 10 l 1
 508 10 l 1
  Named: "stem"
508 670 m 257
 308 670 l 257
 308 650 l 257
 508 650 l 1
 508 670 l 257
  Named: "topSerif"
EndSplineSet
PickledDataWithLists: "(dp1
S'com.typemytype.robofont.guides'
p2
(lp3
sS'com.typemytype.robofont.layerData'
p4
(dp5
S'Back'
p6
(dp7
S'name'
p8
S'd'
sS'lib'
p9
(dp10
sS'unicodes'
p11
(lp12
sS'width'
p13
I588
sS'contours'
p14
(lp15
sS'components'
p16
(lp17
sS'anchors'
p18
(lp19
sss."
EndChar
StartChar: e
Encoding: 876 101 876
GlifName: e
Width: 515
VWidth: 0
Flags: W
LayerCount: 2
Back
Fore
SplineSet
317 24 m 257
 244 24 179 69 179 231 c 256
 179 323 196 450 260 450 c 257
 323 450 342 322 342 220 c 257
 342 220 135 220 135 220 c 257
 135 200 l 257
 482 200 l 257
 482 405 371 470 261 470 c 257
 146 470 30 406 30 232 c 256
 30 33 168 -10 290 -10 c 257
 361 -10 442 25 472 75 c 257
 458 85 l 257
 429 42 353 24 317 24 c 257
EndSplineSet
PickledDataWithLists: "(dp1
S'com.typemytype.robofont.layerData'
p2
(dp3
S'Back'
p4
(dp5
S'name'
p6
S'e'
sS'lib'
p7
(dp8
sS'unicodes'
p9
(lp10
sS'width'
p11
I515
sS'contours'
p12
(lp13
sS'components'
p14
(lp15
sS'anchors'
p16
(lp17
sss."
EndChar
StartChar: f
Encoding: 847 102 847
GlifName: f
Width: 432
VWidth: 0
Flags: HW
LayerCount: 2
Back
Fore
SplineSet
290 20 m 1
NamedP: "bottom right serif"
 40 20 l 17
NamedP: "bottom left serif"
 40 0 l 257
NamedP: "bottom left serif"
 290 0 l 257
NamedP: "bottom right serif"
 290 20 l 1
NamedP: "bottom right serif"
  Named: "bottomSerif"
240 10 m 1
NamedP: "bottom right"
 240 460 l 3
NamedP: "vertical left"
 240 588 249 660 288 660 c 259
NamedP: "horizontal top"
 315 660 326 636 326 591 c 259
NamedP: "drop top fixation"
 326 548 349 531 380 531 c 5
NamedP: "drop top"
 380 531 l 257
NamedP: "drop top"
 407 531 432 549 432 582 c 259
NamedP: "drop top fixation"
 432 629 388 680 288 680 c 259
NamedP: "horizontal top"
 149 680 90 602 90 460 c 3
NamedP: "vertical left"
 90 284 90 10 90 10 c 1
NamedP: "bottom left"
 240 10 l 1
NamedP: "bottom right"
  Named: "stem"
370 460 m 1
NamedP: "right"
 30 460 l 1
NamedP: "left"
 30 440 l 257
NamedP: "left"
 370 440 l 257
NamedP: "right"
 370 460 l 1
NamedP: "right"
  Named: "horizontalStroke"
EndSplineSet
PickledDataWithLists: "(dp1
S'com.typemytype.robofont.guides'
p2
(lp3
sS'com.typemytype.robofont.layerData'
p4
(dp5
S'Back'
p6
(dp7
S'name'
p8
S'f'
sS'lib'
p9
(dp10
sS'unicodes'
p11
(lp12
sS'width'
p13
I432
sS'contours'
p14
(lp15
sS'components'
p16
(lp17
sS'anchors'
p18
(lp19
sss."
EndChar
StartChar: g
Encoding: 864 103 864
GlifName: g
Width: 553
VWidth: 0
Flags: HW
LayerCount: 2
Back
Fore
SplineSet
256 130 m 256
NamedP: "horizontal bottom"
 374 130 495 184 495 297 c 259
NamedP: "vertical right"
 495 414 376 469 273 469 c 256
NamedP: "horizontal top"
 261 449 l 256
NamedP: "horizontal top"
 315 449 345 423 345 298 c 259
NamedP: "vertical right"
 345 184 315 150 264 150 c 256
NamedP: "horizontal bottom"
 256 130 l 256
NamedP: "horizontal bottom"
  Spiro
    256 130 o
    370.301 148.149 o
    459.326 203.556 o
    495 297 o
    460.398 393.516 o
    376.235 450.445 o
    273 469 o
    261 449 o
    306.74 437.655 o
    335.242 392.637 o
    345 298 o
    335.352 209.029 o
    307.631 163.009 o
    264 150 o
    0 0 z
  EndSpiro
  Named: "rightBowl"
273 469 m 260
NamedP: "horizontal top"
 162 469 30 416 30 299 c 263
NamedP: "vertical left"
 30 187 133 130 256 130 c 260
NamedP: "horizontal bottom"
 264 150 l 260
NamedP: "horizontal bottom"
 219 150 190 185 190 299 c 263
NamedP: "vertical left"
 190 424 220 449 261 449 c 260
NamedP: "horizontal top"
 273 469 l 260
NamedP: "horizontal top"
  Spiro
    273 469 o
    160.775 450.962 o
    68.2624 394.998 o
    30 299 o
    61.1998 205.483 o
    142.841 148.888 o
    256 130 o
    264 150 o
    224.848 163.268 o
    199.167 209.77 o
    190 299 o
    199.278 393.378 o
    224.402 437.914 o
    261 449 o
    0 0 z
  EndSpiro
  Named: "leftBowl"
416 431 m 257
NamedP: "to-base"
 378 452 360 490.952407917 360 523 c 259
NamedP: "vertical"
 360 566 385 601.846919013 409.000000737 601.846919013 c 3
NamedP: "horizontal"
 417.397981436 601.846919013 422 596.350585938 422 590 c 259
NamedP: "drop top fixation"
 422 582.916992188 407 567.384776311 407 548 c 259
NamedP: "drop top"
 407 515.071501607 430 484 470 484 c 259
NamedP: "drop top"
 509 484 533 516 533 551 c 259
NamedP: "drop top fixation"
 533 590 504 629 449 629 c 259
NamedP: "horizontal"
 382 629 340 589 340 522 c 259
NamedP: "vertical"
 340 482 363 440 411 418 c 257
NamedP: "to-base"
 416 431 l 257
NamedP: "to-base"
  Named: "ear"
172 160 m 256
NamedP: "base"
 141.193540891 152.298385223 64 98 64 30 c 259
NamedP: "vertical upper left"
 64 -42 127 -69 194 -69 c 259
NamedP: "horizontal upper left"
 260 -69 362 -69 362 -69 c 259
NamedP: "horizontal upper right"
 450.447724674 -69 464 -98 464 -113 c 259
NamedP: "vertical right"
 464 -140 405 -201 288 -201 c 259
NamedP: "horizontal bottom"
 186.719730276 -201 110.00000005 -158.444791495 110.00000005 -81.707450511 c 3
NamedP: "vertical lower left"
 110.00000005 -68.9302241078 111 -56 116 -38 c 1
NamedP: "end"
 116 -38 l 257
NamedP: "end"
 82 -39 31 -65 31 -122 c 259
NamedP: "vertical lower left"
 31 -197 157 -221 288 -221 c 259
NamedP: "horizontal bottom"
 440 -221 519 -126.91796875 519 -47 c 259
NamedP: "vertical right"
 519 26.3125 460 61 368 61 c 259
NamedP: "horizontal upper right"
 301 61 263 61 196 61 c 259
NamedP: "horizontal upper left"
 188 61 160 65 160 93 c 259
NamedP: "vertical upper left"
 160 129 181 154 187 159 c 257
NamedP: "base"
 183 161 180 162 172 160 c 256
NamedP: "base"
  Named: "loop"
EndSplineSet
PickledDataWithLists: "(dp1
S'com.typemytype.robofont.layerData'
p2
(dp3
S'Back'
p4
(dp5
S'name'
p6
S'g'
sS'lib'
p7
(dp8
sS'unicodes'
p9
(lp10
sS'width'
p11
I553
sS'contours'
p12
(lp13
sS'components'
p14
(lp15
sS'anchors'
p16
(lp17
sss."
EndChar
StartChar: h
Encoding: 926 104 926
GlifName: h
Width: 645
VWidth: 0
Flags: W
LayerCount: 2
Back
Fore
SplineSet
240 670 m 257
 40 670 l 257
 40 650 l 257
 240 650 l 257
 240 670 l 257
240 661 m 257
 90 661 l 257
 90 1 l 257
 240 1 l 257
 240 661 l 257
290 20 m 257
 40 20 l 257
 40 0 l 257
 290 0 l 257
 290 20 l 257
230 351 m 257
 252 404 290 431 331 431 c 256
 385 431 415 398 415 300 c 258
 415 14 l 257
 565 14 l 257
 565 278 l 258
 565 405 504 471 387 471 c 256
 308 471 241 429 230 387 c 257
 230 351 l 257
615 20 m 257
 365 20 l 257
 365 0 l 257
 615 0 l 257
 615 20 l 257
EndSplineSet
PickledDataWithLists: "(dp1
S'com.typemytype.robofont.layerData'
p2
(dp3
S'Back'
p4
(dp5
S'name'
p6
S'h'
sS'lib'
p7
(dp8
sS'unicodes'
p9
(lp10
sS'width'
p11
I645
sS'contours'
p12
(lp13
sS'components'
p14
(lp15
sS'anchors'
p16
(lp17
sss."
EndChar
StartChar: i
Encoding: 932 105 932
GlifName: i
Width: 320
VWidth: 0
Flags: W
LayerCount: 2
Back
Fore
SplineSet
249 592 m 256
 249 641 210 681 162 681 c 256
 113 681 73 641 73 592 c 256
 73 544 113 505 162 505 c 256
 210 505 249 544 249 592 c 256
240 460 m 257
 240 460 90 460 90 460 c 257
 90 1 l 257
 240 1 l 257
 240 460 l 257
230 460 m 257
 50 460 l 257
 50 440 l 257
 230 440 l 257
 230 460 l 257
290 20 m 257
 40 20 l 257
 40 0 l 257
 290 0 l 257
 290 20 l 257
EndSplineSet
PickledDataWithLists: "(dp1
S'com.typemytype.robofont.guides'
p2
(lp3
sS'com.typemytype.robofont.layerData'
p4
(dp5
S'Back'
p6
(dp7
S'name'
p8
S'i'
sS'lib'
p9
(dp10
sS'unicodes'
p11
(lp12
sS'width'
p13
I320
sS'contours'
p14
(lp15
sS'components'
p16
(lp17
sS'anchors'
p18
(lp19
sss."
EndChar
StartChar: j
Encoding: 947 106 947
GlifName: j
Width: 332
VWidth: 0
Flags: W
LayerCount: 2
Back
Fore
SplineSet
100 0 m 257
 100 -128 91 -200 52 -200 c 257
 25 -200 14 -176 14 -131 c 257
 14 -88 -9 -71 -40 -71 c 256
 -67 -71 -92 -89 -92 -122 c 256
 -92 -169 -58 -220 52 -220 c 256
 191 -220 250 -142 250 0 c 257
 250 0 250 460 250 460 c 257
 50 460 l 257
 50 440 l 257
 100 440 l 257
 100 0 l 257
262 592 m 256
 262 641 223 681 175 681 c 256
 126 681 86 641 86 592 c 256
 86 544 126 505 175 505 c 256
 223 505 262 544 262 592 c 256
EndSplineSet
Validated: 9
PickledDataWithLists: "(dp1
S'com.typemytype.robofont.layerData'
p2
(dp3
S'Back'
p4
(dp5
S'name'
p6
S'j'
sS'lib'
p7
(dp8
sS'unicodes'
p9
(lp10
sS'width'
p11
I332
sS'contours'
p12
(lp13
sS'components'
p14
(lp15
sS'anchors'
p16
(lp17
sss."
EndChar
StartChar: k
Encoding: 892 107 892
GlifName: k
Width: 618
VWidth: 0
Flags: W
LayerCount: 2
Back
Fore
SplineSet
608 0 m 257
 608 20 l 257
 580 20 536 56 479 141 c 258
 357 324 l 257
 245 226 l 257
 316 117 l 258
 386 9 434 0 608 0 c 257
558 460 m 257
 368 460 l 257
 368 440 l 257
 558 440 l 257
 558 460 l 257
226 188 m 257
 498 459 l 257
 468 459 l 257
 196 188 l 257
 226 188 l 257
290 20 m 257
 40 20 l 257
 40 0 l 257
 290 0 l 257
 290 20 l 257
240 670 m 257
 90 670 l 257
 90 0 l 257
 240 0 l 257
 240 670 l 257
230 670 m 257
 40 670 l 257
 40 650 l 257
 230 650 l 257
 230 670 l 257
EndSplineSet
PickledDataWithLists: "(dp1
S'com.typemytype.robofont.guides'
p2
(lp3
sS'com.typemytype.robofont.layerData'
p4
(dp5
S'Back'
p6
(dp7
S'name'
p8
S'k'
sS'lib'
p9
(dp10
sS'unicodes'
p11
(lp12
sS'width'
p13
I618
sS'contours'
p14
(lp15
sS'components'
p16
(lp17
sS'anchors'
p18
(lp19
sss."
EndChar
StartChar: l
Encoding: 894 108 894
GlifName: l
Width: 320
VWidth: 0
Flags: HW
LayerCount: 2
Back
Fore
SplineSet
240 670 m 261
NamedP: "no-serif right top"
 40 670 l 257
NamedP: "serif left top"
 40 650 l 257
NamedP: "serif left top"
 240 650 l 257
NamedP: "no-serif right top"
 240 670 l 261
NamedP: "no-serif right top"
  Named: "topSerif"
290 21 m 257
NamedP: "serif right bottom"
 40 21 l 257
NamedP: "serif left bottom"
 40 0 l 257
NamedP: "serif left bottom"
 290 0 l 257
NamedP: "serif right bottom"
 290 21 l 257
NamedP: "serif right bottom"
  Named: "bottomSerif"
240 11 m 257
NamedP: "bottom"
 240 660 l 257
NamedP: "top"
 90 660 l 257
NamedP: "top"
 90 11 l 257
NamedP: "bottom"
 240 11 l 257
NamedP: "bottom"
  Named: "stem"
EndSplineSet
PickledDataWithLists: "(dp1
S'com.typemytype.robofont.layerData'
p2
(dp3
S'Back'
p4
(dp5
S'name'
p6
S'l'
sS'lib'
p7
(dp8
sS'unicodes'
p9
(lp10
sS'width'
p11
I320
sS'contours'
p12
(lp13
sS'components'
p14
(lp15
sS'anchors'
p16
(lp17
sss."
EndChar
StartChar: m
Encoding: 904 109 904
GlifName: m
Width: 960
VWidth: 0
Flags: HW
LayerCount: 2
Back
SplineSet
880 10 m 261
NamedP: "bottom"
 880 278 l 262
NamedP: "vertical"
 880 405 819 471 702 471 c 263
NamedP: "horizontal"
 623 471 543 433 521 365 c 261
NamedP: "connection"
 535 341 l 261
NamedP: "connection"
 554 400 605 431 646 431 c 263
NamedP: "horizontal"
 700 431 730 398 730 300 c 262
NamedP: "vertical"
 730 10 l 261
NamedP: "bottom"
 880 10 l 261
NamedP: "bottom"
  Named: "archRight"
930 20 m 257
NamedP: "serif bottom right"
 680 20 l 257
NamedP: "serif bottom left"
 680 0 l 257
NamedP: "serif bottom left"
 930 0 l 257
NamedP: "serif bottom right"
 930 20 l 257
NamedP: "serif bottom right"
  Named: "bottomRightSerif"
290 20 m 257
NamedP: "serif bottom right"
 40 20 l 257
NamedP: "serif bottom left"
 40 0 l 257
NamedP: "serif bottom left"
 290 0 l 257
NamedP: "serif bottom right"
 290 20 l 257
NamedP: "serif bottom right"
  Named: "bottomLeftSerif"
565 9 m 257
NamedP: "bottom"
 565 278 l 258
NamedP: "vertical"
 565 415 524 471 387 471 c 259
NamedP: "horizontal"
 308 471 241 428 230 387 c 257
NamedP: "connection"
 230 351 l 257
NamedP: "connection"
 252 404 290 431 331 431 c 259
NamedP: "horizopntal"
 385 431 415 398 415 300 c 258
NamedP: "vertical"
 415 9 l 257
NamedP: "bottom"
 565 9 l 257
NamedP: "bottom"
  Named: "archLeft"
615 20 m 257
NamedP: "serif bottom right"
 355 20 l 257
NamedP: "serif bottom left"
 355 0 l 257
NamedP: "serif bottom left"
 615 0 l 257
NamedP: "serif bottom right"
 615 20 l 257
NamedP: "serif bottom right"
  Named: "bottomCenterSerif"
240 10 m 257
NamedP: "bottom"
 240 450 l 257
NamedP: "top"
 90 450 l 257
NamedP: "top"
 90 10 l 257
NamedP: "bottom"
 240 10 l 257
NamedP: "bottom"
  Named: "stem"
240 460 m 257
NamedP: "no-serif top right"
 40 460 l 257
NamedP: "serif top left"
 40 440 l 257
NamedP: "serif top left"
 240 440 l 257
NamedP: "no-serif top right"
 240 460 l 257
NamedP: "no-serif top right"
  Named: "topSerif"
EndSplineSet
Fore
SplineSet
880 10 m 261
NamedP: "bottom"
 880 278 l 262
NamedP: "vertical"
 880 405 819 471 702 471 c 263
NamedP: "horizontal"
 623 471 543 433 521 365 c 261
NamedP: "connection"
 535 341 l 261
NamedP: "connection"
 554 400 605 431 646 431 c 263
NamedP: "horizontal"
 700 431 730 398 730 300 c 262
NamedP: "vertical"
 730 10 l 261
NamedP: "bottom"
 880 10 l 261
NamedP: "bottom"
  Named: "archRight"
565 9 m 257
NamedP: "bottom"
 565 278 l 258
NamedP: "vertical"
 565 415 524 471 387 471 c 259
NamedP: "horizontal"
 308 471 241 428 230 387 c 257
NamedP: "connection"
 230 351 l 257
NamedP: "connection"
 252 404 290 431 331 431 c 259
NamedP: "horizopntal"
 385 431 415 398 415 300 c 258
NamedP: "vertical"
 415 9 l 257
NamedP: "bottom"
 565 9 l 257
NamedP: "bottom"
  Named: "archLeft"
930 20 m 257
NamedP: "serif bottom right"
 680 20 l 257
NamedP: "serif bottom left"
 680 0 l 257
NamedP: "serif bottom left"
 930 0 l 257
NamedP: "serif bottom right"
 930 20 l 257
NamedP: "serif bottom right"
  Named: "bottomRightSerif"
290 20 m 257
NamedP: "serif bottom right"
 40 20 l 257
NamedP: "serif bottom left"
 40 0 l 257
NamedP: "serif bottom left"
 290 0 l 257
NamedP: "serif bottom right"
 290 20 l 257
NamedP: "serif bottom right"
  Named: "bottomLeftSerif"
615 20 m 257
NamedP: "serif bottom right"
 355 20 l 257
NamedP: "serif bottom left"
 355 0 l 257
NamedP: "serif bottom left"
 615 0 l 257
NamedP: "serif bottom right"
 615 20 l 257
NamedP: "serif bottom right"
  Named: "bottomCenterSerif"
240 10 m 257
NamedP: "bottom"
 240 450 l 257
NamedP: "top"
 90 450 l 257
NamedP: "top"
 90 10 l 257
NamedP: "bottom"
 240 10 l 257
NamedP: "bottom"
  Named: "stem"
240 460 m 257
NamedP: "no-serif top right"
 40 460 l 257
NamedP: "serif top left"
 40 440 l 257
NamedP: "serif top left"
 240 440 l 257
NamedP: "no-serif top right"
 240 460 l 257
NamedP: "no-serif top right"
  Named: "topSerif"
EndSplineSet
PickledDataWithLists: "(dp1
S'com.typemytype.robofont.layerData'
p2
(dp3
S'Back'
p4
(dp5
S'name'
p6
S'm'
sS'lib'
p7
(dp8
sS'unicodes'
p9
(lp10
sS'width'
p11
I960
sS'contours'
p12
(lp13
sS'components'
p14
(lp15
sS'anchors'
p16
(lp17
sss."
EndChar
StartChar: n
Encoding: 965 110 965
GlifName: n
Width: 645
VWidth: 0
Flags: HW
LayerCount: 2
Back
Fore
SplineSet
240 460 m 257
 40 460 l 257
 40 440 l 257
 240 440 l 257
 240 460 l 257
565 14 m 257
 565 278 l 258
 565 405 504 471 387 471 c 259
 308 471 241 428 230 387 c 257
 230 351 l 257
 252 404 290 431 331 431 c 259
 385 431 415 398 415 300 c 258
 415 14 l 257
 565 14 l 257
615 20 m 257
 365 20 l 257
 365 0 l 257
 615 0 l 257
 615 20 l 257
290 20 m 257
 40 20 l 257
 40 0 l 257
 290 0 l 257
 290 20 l 257
240 1 m 257
 240 451 l 257
 90 451 l 257
 90 1 l 257
 240 1 l 257
EndSplineSet
Validated: 5
PickledDataWithLists: "(dp1
S'com.typemytype.robofont.layerData'
p2
(dp3
S'Back'
p4
(dp5
S'name'
p6
S'n'
sS'lib'
p7
(dp8
sS'unicodes'
p9
(lp10
sS'width'
p11
I645
sS'contours'
p12
(lp13
sS'components'
p14
(lp15
sS'anchors'
p16
(lp17
sss."
EndChar
StartChar: o
Encoding: 972 111 972
GlifName: o
Width: 564
VWidth: 0
Flags: W
LayerCount: 2
Back
Fore
SplineSet
281 -10 m 257
 396 -10 534 64 534 228 c 256
 534 398 396 470 281 470 c 257
 166 470 30 398 30 228 c 256
 30 64 166 -10 281 -10 c 257
281 10 m 257
 208 10 183 75 183 228 c 256
 183 385 208 450 281 450 c 257
 354 450 381 385 381 228 c 257
 381 75 354 10 281 10 c 257
EndSplineSet
PickledDataWithLists: "(dp1
S'com.typemytype.robofont.guides'
p2
(lp3
sS'com.typemytype.robofont.layerData'
p4
(dp5
S'Back'
p6
(dp7
S'name'
p8
S'o'
sS'lib'
p9
(dp10
sS'unicodes'
p11
(lp12
sS'width'
p13
I564
sS'contours'
p14
(lp15
sS'components'
p16
(lp17
sS'anchors'
p18
(lp19
sss."
EndChar
StartChar: p
Encoding: 938 112 938
GlifName: p
Width: 578
VWidth: 0
Flags: HW
LayerCount: 2
Back
SplineSet
220 414 m 261
 220 460 l 261
 20 460 l 261
 20 440 l 261
 70 440 l 261
 70 -210 l 261
 270 -210 l 261
 270 -190 l 261
 220 -190 l 261
 220 46 l 261
 243 -2 299 -22 349 -22 c 260
 452 -22 548 62 548 230 c 261
 548 390 450 472 349 472 c 260
 299 472 249 464 220 414 c 261
220 241 m 257
 220 385 233 432 297 432 c 257
 362 432 396 386 396 231 c 257
 396 76 344 22 287 22 c 256
 264 22 239 38 220 76 c 257
 220 241 l 257
EndSplineSet
Fore
SplineSet
220 460 m 257
NamedP: "no-serif right top"
 20 460 l 257
NamedP: "serif left top"
 20 440 l 257
NamedP: "serif left top"
 220 440 l 257
NamedP: "no-serif right top"
 220 460 l 257
NamedP: "no-serif right top"
  Named: "topSerif"
270 -189 m 257
NamedP: "serif right bottom"
 70 -189 l 257
NamedP: "no-serif left bottom"
 70 -210 l 257
NamedP: "no-serif left bottom"
 270 -210 l 257
NamedP: "serif right bottom"
 270 -189 l 257
NamedP: "serif right bottom"
  Named: "bottomSerif"
220 -199 m 257
NamedP: "bottom"
 220 450 l 257
NamedP: "top"
 70 450 l 257
NamedP: "top"
 70 -199 l 257
NamedP: "bottom"
 220 -199 l 257
NamedP: "bottom"
  Named: "stem"
220 258 m 1
NamedP: "connection"
 220 415 252.989257812 433 298 433 c 259
NamedP: "horizontal top"
 364 433 396 377 396 231 c 259
NamedP: "vertical"
 396 76 344 22 287 22 c 259
NamedP: "horizontal bottom"
 242.98828125 22 215 71 200 137 c 9
NamedP: "end"
 196 104 l 257
NamedP: "end"
 217 22 265.994140625 -22 349 -22 c 259
NamedP: "horizontal bottom"
 452 -22 548 62 548 230 c 259
NamedP: "vertical"
 548 390 450 472 349 472 c 263
NamedP: "horizontal top"
 237 472 196 433 196 258 c 257
NamedP: "connection"
 220 258 l 1
NamedP: "connection"
  Named: "bowl"
EndSplineSet
PickledDataWithLists: "(dp1
S'com.typemytype.robofont.guides'
p2
(lp3
(dp4
S'y'
S'-240'
p5
sS'x'
I370
sS'magnetic'
p6
I5
sS'angle'
p7
I0
sS'isGlobal'
p8
I0
sa(dp9
S'y'
S'-210'
p10
sS'x'
I232
sg6
I5
sg7
I0
sg8
I0
sasS'com.typemytype.robofont.layerData'
p11
(dp12
S'Back'
p13
(dp14
S'name'
p15
S'p'
sS'lib'
p16
(dp17
sS'unicodes'
p18
(lp19
sS'width'
p20
I578
sS'contours'
p21
(lp22
sS'components'
p23
(lp24
sS'anchors'
p25
(lp26
sss."
EndChar
StartChar: q
Encoding: 951 113 951
GlifName: q
Width: 578
VWidth: 0
Flags: HWO
LayerCount: 2
Back
SplineSet
358 241 m 257
 358 76 l 257
 339 38 314 22 291 22 c 256
 234 22 182 76 182 231 c 257
 182 386 216 432 281 432 c 257
 345 432 358 385 358 241 c 257
358 414 m 257
 329 464 279 472 229 472 c 256
 128 472 30 390 30 230 c 257
 30 62 126 -22 229 -22 c 256
 279 -22 335 -2 358 46 c 257
 358 -190 l 257
 308 -190 l 257
 308 -210 l 257
 558 -210 l 257
 558 -190 l 257
 508 -190 l 257
 508 440 l 257
 558 440 l 257
 558 460 l 257
 358 460 l 257
 358 414 l 257
EndSplineSet
Fore
SplineSet
558 460 m 257
NamedP: "serif right top"
 358 460 l 257
NamedP: "no-serif left top"
 358 440 l 257
NamedP: "no-serif left top"
 558 440 l 257
NamedP: "serif right top"
 558 460 l 257
NamedP: "serif right top"
  Named: "topSerif"
558 -189 m 257
NamedP: "serif right bottom"
 308 -189 l 257
NamedP: "serif left bottom"
 308 -210 l 257
NamedP: "serif left bottom"
 558 -210 l 257
NamedP: "serif right bottom"
 558 -189 l 257
NamedP: "serif right bottom"
  Named: "bottomSerif"
508 -199 m 257
NamedP: "bottom"
 508 450 l 257
NamedP: "top"
 358 450 l 257
NamedP: "top"
 358 -199 l 257
NamedP: "bottom"
 508 -199 l 257
NamedP: "bottom"
  Named: "stem"
382 258 m 257
NamedP: "connection"
 382 435 336 472 229 472 c 259
NamedP: "horizontal top"
 128 472 30 390 30 230 c 259
NamedP: "vertical"
 30 62 126 -22 229 -22 c 259
NamedP: "horizontal bottom"
 312.005859375 -22 361 22 382 104 c 257
NamedP: "end"
 378 137 l 17
NamedP: "end"
 363 71 335.01171875 22 291 22 c 259
NamedP: "horizontal bottom"
 234 22 182 76 182 231 c 259
NamedP: "vertical"
 182 377 214 433 280 433 c 259
NamedP: "horizontal top"
 327.010742188 433 358 415 358 258 c 1
NamedP: "connection"
 382 258 l 257
NamedP: "connection"
  Named: "bowl"
EndSplineSet
PickledDataWithLists: "(dp1
S'com.typemytype.robofont.guides'
p2
(lp3
(dp4
S'y'
S'-190'
p5
sS'x'
I432
sS'magnetic'
p6
I5
sS'angle'
p7
I0
sS'isGlobal'
p8
I0
sasS'com.typemytype.robofont.layerData'
p9
(dp10
S'Back'
p11
(dp12
S'name'
p13
S'q'
sS'lib'
p14
(dp15
sS'unicodes'
p16
(lp17
sS'width'
p18
I578
sS'contours'
p19
(lp20
sS'components'
p21
(lp22
sS'anchors'
p23
(lp24
sss."
EndChar
StartChar: r
Encoding: 962 114 962
GlifName: r
Width: 483
VWidth: 0
Flags: HW
LayerCount: 2
Back
SplineSet
290 0 m 261
 290 20 l 261
 240 20 l 261
 240 211 l 261
 240 314 281 415 305 415 c 260
 334 415 325 346 372 327 c 260
 412 311 453 330 468 368 c 261
 483 405 465 449 427 464 c 261
 377 484 265 479 240 341 c 261
 240 460 l 261
 40 460 l 261
 40 440 l 261
 90 440 l 261
 90 20 l 261
 40 20 l 261
 40 0 l 261
 290 0 l 261
EndSplineSet
Fore
SplineSet
240 211 m 1
NamedP: "connection"
 240 314 281 415 305 415 c 259
NamedP: "drop fixation"
 338 415 321 321 404 321 c 259
NamedP: "drop terminal"
 439 321 473 353.887695312 473 396 c 259
NamedP: "drop terminal"
 473 450 422.853515625 473 381 473 c 259
NamedP: "drop fixation"
 338 473 225 465 225 211 c 1
NamedP: "connection"
 240 211 l 1
NamedP: "connection"
  Named: "drop"
240 10 m 1
NamedP: "bottom"
 240 450 l 1
NamedP: "top"
 90 450 l 1
NamedP: "top"
 90 10 l 257
NamedP: "bottom"
 240 10 l 1
NamedP: "bottom"
  Named: "stem"
240 460 m 1
NamedP: "top right no-serif"
 40 460 l 257
NamedP: "top left serif"
 40 440 l 257
NamedP: "top left serif"
 240 440 l 257
NamedP: "top right no-serif"
 240 460 l 1
NamedP: "top right no-serif"
  Named: "topSerif"
290 20 m 5
NamedP: "bottom right serif"
 40 20 l 261
NamedP: "bottom left serif"
 40 0 l 257
NamedP: "bottom left serif"
 290 0 l 257
NamedP: "bottom right serif"
 290 20 l 5
NamedP: "bottom right serif"
  Named: "bottomSerif"
EndSplineSet
PickledDataWithLists: "(dp1
S'com.typemytype.robofont.layerData'
p2
(dp3
S'Back'
p4
(dp5
S'name'
p6
S'r'
sS'lib'
p7
(dp8
sS'unicodes'
p9
(lp10
sS'width'
p11
I483
sS'contours'
p12
(lp13
sS'components'
p14
(lp15
sS'anchors'
p16
(lp17
sss."
EndChar
StartChar: s
Encoding: 972 115 972
GlifName: s
Width: 475
VWidth: 0
Flags: HWO
LayerCount: 2
Back
Fore
SplineSet
79 140 m 260
NamedP: "drop bottom"
 45 140 29 118 29 91 c 256
NamedP: "drop bottom fixation"
 29 19 118 -12 239 -12 c 256
NamedP: "horizontal bottom"
 381 -12 456 53 456 140 c 256
NamedP: "vertical bottom"
 456 244.871970709 353.783970714 273.946824316 264.000002295 299.364666779 c 0
NamedP: "spine"
 193.687788855 319.27005519 131 337.932645245 131 387 c 256
NamedP: "vertical top"
 131 420 163 450 241 450 c 256
NamedP: "horizontal top"
 286 450 340 439 340 419 c 256
NamedP: "drop top fixation"
 340 404 323 398 323 374 c 256
NamedP: "drop top"
 323 347 344 331 374 331 c 256
NamedP: "drop top"
 404 331 420 350 420 378 c 256
NamedP: "drop top fixation"
 420 436 337 470 241 470 c 256
NamedP: "horizontal top"
 109 470 31 408 31 312 c 256
NamedP: "vertical top"
 31 207.770465042 136.701798505 179.404983667 228.999997652 154.653434646 c 0
NamedP: "spine"
 300.524527342 135.472747274 364 117.462279025 364 70 c 256
NamedP: "vertical bottom"
 364 26 303 8 239 8 c 256
NamedP: "horizontal bottom"
 181 8 108 19 108 48 c 256
NamedP: "drop bottom fixation"
 108 67 128 66 128 97 c 256
NamedP: "drop bottom"
 128 121 109 140 79 140 c 260
NamedP: "drop bottom"
  Named: "sShape"
EndSplineSet
PickledDataWithLists: "(dp1
S'com.typemytype.robofont.layerData'
p2
(dp3
S'Back'
p4
(dp5
S'name'
p6
S's'
sS'lib'
p7
(dp8
sS'unicodes'
p9
(lp10
sS'width'
p11
I475
sS'contours'
p12
(lp13
sS'components'
p14
(lp15
sS'anchors'
p16
(lp17
sss."
EndChar
StartChar: t
Encoding: 986 116 986
GlifName: t
Width: 361
VWidth: 0
Flags: W
LayerCount: 2
Back
Fore
SplineSet
351 44 m 257
 339 36 319 34 298 34 c 256
 224 34 224 118 224 196 c 257
 224 613 l 257
 210 613 l 257
 190 518 134 470 74 460 c 257
 74 173 l 258
 74 27 144 -10 246 -10 c 256
 293 -10 324 5 351 24 c 257
 351 44 l 257
0 440 m 257
 340 440 l 257
 340 460 l 257
 0 460 l 257
 0 440 l 257
EndSplineSet
PickledDataWithLists: "(dp1
S'com.typemytype.robofont.layerData'
p2
(dp3
S'Back'
p4
(dp5
S'name'
p6
S't'
sS'lib'
p7
(dp8
sS'unicodes'
p9
(lp10
sS'width'
p11
I361
sS'contours'
p12
(lp13
sS'components'
p14
(lp15
sS'anchors'
p16
(lp17
sss."
EndChar
StartChar: u
Encoding: 1000 117 1000
GlifName: u
Width: 615
VWidth: 0
Flags: HW
LayerCount: 2
Back
Fore
SplineSet
210 460 m 257
NamedP: "top right no-serif"
 10 460 l 257
NamedP: "top left serif"
 10 440 l 257
NamedP: "top left serif"
 210 440 l 1
NamedP: "top right no-serif"
 210 460 l 257
NamedP: "top right no-serif"
  Named: "topLeftSerif"
385 89 m 261
NamedP: "to-stem"
 362 49 329 29 294 29 c 259
NamedP: "horizontal"
 240 29 210 62.0322265625 210 160 c 258
NamedP: "vertical"
 210 450 l 1
NamedP: "top"
 60 450 l 1
NamedP: "top"
 60 182 l 258
NamedP: "vertical"
 60 55.0947265625 121 -11 238 -11 c 259
NamedP: "horizontal"
 304 -11 361 19 385 53 c 257
NamedP: "to-stem"
 385 89 l 261
NamedP: "to-stem"
  Named: "arch"
535 460 m 257
NamedP: "top right no-serif"
 335 460 l 257
NamedP: "top left serif"
 335 440 l 257
NamedP: "top left serif"
 535 440 l 257
NamedP: "top right no-serif"
 535 460 l 257
NamedP: "top right no-serif"
  Named: "topRightSerif"
585 20 m 257
NamedP: "bottom right serif"
 385 20 l 257
NamedP: "bottom left no-serif"
 385 0 l 257
NamedP: "bottom left no-serif"
 585 0 l 257
NamedP: "bottom right serif"
 585 20 l 257
NamedP: "bottom right serif"
  Named: "bottomSerif"
535 10 m 1
NamedP: "bottom"
 535 450 l 1
NamedP: "top"
 385 450 l 1
NamedP: "top"
 385 10 l 1
NamedP: "bottom"
 535 10 l 1
NamedP: "bottom"
  Named: "stem"
EndSplineSet
PickledDataWithLists: "(dp1
S'com.typemytype.robofont.layerData'
p2
(dp3
S'Back'
p4
(dp5
S'name'
p6
S'u'
sS'lib'
p7
(dp8
sS'unicodes'
p9
(lp10
sS'width'
p11
I615
sS'contours'
p12
(lp13
sS'components'
p14
(lp15
sS'anchors'
p16
(lp17
sss."
EndChar
StartChar: v
Encoding: 1010 118 1010
GlifName: v
Width: 536
VWidth: 0
Flags: W
LayerCount: 2
Back
Fore
SplineSet
526 460 m 257
 376 460 l 257
 376 440 l 257
 526 440 l 257
 526 460 l 257
270 460 m 257
 10 460 l 257
 10 440 l 257
 270 440 l 257
 270 460 l 257
290 0 m 257
 486 460 l 257
 464 460 l 257
 275 19 l 257
 272 0 l 257
 290 0 l 257
44 452 m 257
 272 0 l 257
 349 169 l 257
 214 452 l 257
 44 452 l 257
EndSplineSet
PickledDataWithLists: "(dp1
S'com.typemytype.robofont.layerData'
p2
(dp3
S'Back'
p4
(dp5
S'name'
p6
S'v'
sS'lib'
p7
(dp8
sS'unicodes'
p9
(lp10
sS'width'
p11
I536
sS'contours'
p12
(lp13
sS'components'
p14
(lp15
sS'anchors'
p16
(lp17
sss."
EndChar
StartChar: w
Encoding: 1011 119 1011
GlifName: w
Width: 830
VWidth: 0
Flags: HW
LayerCount: 2
Back
SplineSet
570 0 m 257
 591 0 l 257
 760 440 l 257
 820 440 l 257
 820 460 l 257
 657 460 l 257
 657 440 l 257
 737 440 l 257
 644 198 l 257
 536 440 l 257
 580 440 l 257
 580 460 l 257
 330 460 l 257
 330 440 l 257
 367 440 l 257
 400 361 l 257
 335 198 l 257
 335 198 227 440 227 440 c 257
 280 440 l 257
 280 460 l 257
 10 460 l 257
 10 440 l 257
 57 440 l 257
 260 0 l 257
 281 0 l 257
 412 331 l 257
 570 0 l 257
EndSplineSet
Fore
SplineSet
588 0 m 1
NamedP: "bottom right"
 645 196 l 1
NamedP: "top right"
 506 132 l 1
NamedP: "top left"
 567 0 l 1
NamedP: "bottom left"
 588 0 l 1
NamedP: "bottom right"
  Named: "O:bottomFillTwo"
281 0 m 1
NamedP: "bottom right"
 338 196 l 1
NamedP: "top right"
 199 132 l 1
NamedP: "top left"
 260 0 l 1
NamedP: "bottom left"
 281 0 l 1
NamedP: "bottom right"
  Named: "O:bottomFillOne"
281 0 m 257
NamedP: "bottom"
 421 354 l 257
NamedP: "top"
 400 362 l 257
NamedP: "top"
 260 8 l 257
NamedP: "bottom"
 281 0 l 257
NamedP: "bottom"
  Named: "upDiagonalOne"
338 196 m 257
NamedP: "bottom"
 222 450 l 257
NamedP: "top"
 82 386 l 257
NamedP: "top"
 199 132 l 257
NamedP: "bottom"
 338 196 l 257
NamedP: "bottom"
  Named: "downDiagonalOne"
645 196 m 257
NamedP: "bottom"
 529 450 l 257
NamedP: "top"
 389 386 l 257
NamedP: "top"
 506 132 l 257
NamedP: "bottom"
 645 196 l 257
NamedP: "bottom"
  Named: "downDiagonalTwo"
588 0 m 257
NamedP: "bottom"
 763 442 l 257
NamedP: "top"
 742 450 l 257
NamedP: "top"
 567 8 l 257
NamedP: "bottom"
 588 0 l 257
NamedP: "bottom"
  Named: "upDiagonalTwo"
580 460 m 257
NamedP: "top right serif"
 330 460 l 257
NamedP: "top left serif"
 330 440 l 257
NamedP: "top left serif"
 580 440 l 257
NamedP: "top right serif"
 580 460 l 257
NamedP: "top right serif"
  Named: "topCenterSerif"
820 460 m 257
NamedP: "top right serif"
 657 460 l 257
NamedP: "top left serif"
 657 440 l 257
NamedP: "top left serif"
 820 440 l 257
NamedP: "top right serif"
 820 460 l 257
NamedP: "top right serif"
  Named: "topRightSerif"
280 460 m 257
NamedP: "top right serif"
 10 460 l 257
NamedP: "top left serif"
 10 440 l 257
NamedP: "top left serif"
 280 440 l 257
NamedP: "top right serif"
 280 460 l 257
NamedP: "top right serif"
  Named: "topLeftSerif"
EndSplineSet
PickledDataWithLists: "(dp1
S'com.typemytype.robofont.guides'
p2
(lp3
sS'com.typemytype.robofont.layerData'
p4
(dp5
S'Back'
p6
(dp7
S'name'
p8
S'w'
sS'lib'
p9
(dp10
sS'unicodes'
p11
(lp12
sS'width'
p13
I830
sS'contours'
p14
(lp15
sS'components'
p16
(lp17
sS'anchors'
p18
(lp19
sss."
EndChar
StartChar: x
Encoding: 1012 120 1012
GlifName: x
Width: 576
VWidth: 0
Flags: HW
LayerCount: 2
Back
SplineSet
182 0 m 257
 182 20 l 257
 101 20 l 257
 228 188 l 257
 354 20 l 257
 304 20 l 257
 304 0 l 257
 566 0 l 257
 566 20 l 257
 526 20 l 257
 339 270 l 257
 477 440 l 257
 537 440 l 257
 537 460 l 257
 369 460 l 257
 369 440 l 257
 449 440 l 257
 327 287 l 257
 213 440 l 257
 263 440 l 257
 263 460 l 257
 0 460 l 257
 0 440 l 257
 40 440 l 257
 214 207 l 257
 73 20 l 257
 13 20 l 257
 13 0 l 257
 182 0 l 257
EndSplineSet
Fore
SplineSet
338 269 m 1
NamedP: "connection"
 485 450 l 257
NamedP: "top"
 457 450 l 257
NamedP: "top"
 312.696289062 269 l 1
NamedP: "connection"
 338 269 l 1
NamedP: "connection"
  Named: "upStrokeRight"
93 10 m 257
NamedP: "bottom"
 243.217773438 208 l 1
NamedP: "connection"
 215 208 l 1
NamedP: "connection"
 65 10 l 257
NamedP: "bottom"
 93 10 l 257
NamedP: "bottom"
  Named: "upStrokeLeft"
566 20 m 1
NamedP: "serif right bottom"
 304 20 l 257
NamedP: "serif left bottom"
 304 0 l 257
NamedP: "serif left bottom"
 566 0 l 1
NamedP: "serif right bottom"
 566 20 l 1
NamedP: "serif right bottom"
  Named: "bottomRightSerif"
537 460 m 1
NamedP: "serif right top"
 369 460 l 257
NamedP: "serif left top"
 369 440 l 257
NamedP: "serif left top"
 537 440 l 1
NamedP: "serif right top"
 537 460 l 1
NamedP: "serif right top"
  Named: "topRightSerif"
182 20 m 1
NamedP: "serif right bottom"
 13 20 l 257
NamedP: "serif left bottom"
 13 0 l 257
NamedP: "serif left bottom"
 182 0 l 1
NamedP: "serif right bottom"
 182 20 l 1
NamedP: "serif right bottom"
  Named: "bottomLeftSerif"
263 460 m 1
NamedP: "serif right top"
 0 460 l 257
NamedP: "serif left top"
 0 440 l 257
NamedP: "serif left top"
 263 440 l 1
NamedP: "serif right top"
 263 460 l 1
NamedP: "serif right top"
  Named: "topLeftSerif"
533 10 m 261
NamedP: "bottom"
 206 450 l 5
NamedP: "top"
 33 450 l 261
NamedP: "top"
 361 10 l 261
NamedP: "bottom"
 533 10 l 261
NamedP: "bottom"
  Named: "downStroke"
EndSplineSet
PickledDataWithLists: "(dp1
S'com.typemytype.robofont.layerData'
p2
(dp3
S'Back'
p4
(dp5
S'name'
p6
S'x'
sS'lib'
p7
(dp8
sS'unicodes'
p9
(lp10
sS'width'
p11
I576
sS'contours'
p12
(lp13
sS'components'
p14
(lp15
sS'anchors'
p16
(lp17
sss."
EndChar
StartChar: y
Encoding: 1013 121 1013
GlifName: y
Width: 562
VWidth: 0
Flags: HW
LayerCount: 2
Back
SplineSet
114 -220 m 261
 184 -220 218 -185 252 -111 c 262
 252 -111 492 440 492 440 c 257
 552 440 l 257
 552 460 l 257
 388 460 l 257
 388 440 l 257
 468 440 l 257
 353 176 l 257
 353 176 219 440 219 440 c 257
 269 440 l 257
 269 460 l 257
 0 460 l 257
 0 440 l 257
 40 440 l 257
 274 -1 l 257
 232 -100 l 262
 222 -123 213 -134 199 -134 c 260
 160 -134 162 -64 81 -64 c 260
 41 -64 9 -94 9 -140 c 261
 9 -189 48 -220 114 -220 c 261
EndSplineSet
Fore
SplineSet
9 -140 m 259
NamedP: "drop terminal"
 9 -189 48 -220 114 -220 c 259
NamedP: "drop fixation"
 184 -220 220 -184 253 -109 c 258
NamedP: "diagonal-connection"
 492 440 l 257
NamedP: "top"
 472 449 l 257
NamedP: "top"
 232 -99 l 258
NamedP: "diagonal-connection"
 222 -122 213 -134 199 -134 c 259
NamedP: "drop fixation"
 160.672464207 -134 162 -64 81 -64 c 259
NamedP: "drop terminal"
 41 -64 9 -94 9 -140 c 259
NamedP: "drop terminal"
  Named: "upDiagonalOne"
300 0 m 1
NamedP: "bottom right"
 358 167 l 1
NamedP: "top right"
 221.026367188 99.009765625 l 5
NamedP: "top left"
 274 0 l 5
NamedP: "bottom left"
 300 0 l 1
NamedP: "bottom right"
  Named: "C:bottomFillOne"
552 460 m 257
NamedP: "top right serif"
 388 460 l 257
NamedP: "top left serif"
 388 440 l 257
NamedP: "top left serif"
 552 440 l 257
NamedP: "top right serif"
 552 460 l 257
NamedP: "top right serif"
  Named: "topRightSerif"
269 460 m 257
NamedP: "top right serif"
 0 460 l 257
NamedP: "top left serif"
 0 440 l 257
NamedP: "top left serif"
 269 440 l 257
NamedP: "top right serif"
 269 460 l 257
NamedP: "top right serif"
  Named: "topLeftSerif"
358 167 m 257
NamedP: "bottom"
 215.100585938 451.6796875 l 257
NamedP: "top"
 71.1826171875 380.564453125 l 257
NamedP: "top"
 221.026367188 99.009765625 l 257
NamedP: "bottom"
 358 167 l 257
NamedP: "bottom"
  Named: "downDiagonalOne"
EndSplineSet
PickledDataWithLists: "(dp1
S'com.typemytype.robofont.layerData'
p2
(dp3
S'Back'
p4
(dp5
S'name'
p6
S'y'
sS'lib'
p7
(dp8
sS'unicodes'
p9
(lp10
sS'width'
p11
I562
sS'contours'
p12
(lp13
sS'components'
p14
(lp15
sS'anchors'
p16
(lp17
sss."
EndChar
StartChar: z
Encoding: 1089 122 1089
GlifName: z
Width: 502
VWidth: 0
Flags: W
LayerCount: 2
Back
Fore
SplineSet
10 0 m 257
 456 0 l 257
 456 0 456 199 456 199 c 257
 456 199 442 199 442 199 c 257
 442 42 373 20 243 20 c 258
 243 20 182 20 182 20 c 257
 182 20 462 448 462 448 c 257
 462 448 462 460 462 460 c 257
 462 460 41 460 41 460 c 257
 41 275 l 257
 41 275 57 275 57 275 c 257
 57 402 132 440 234 440 c 257
 234 440 293 440 293 440 c 257
 293 440 10 15 10 15 c 257
 10 15 10 0 10 0 c 257
EndSplineSet
PickledDataWithLists: "(dp1
S'com.typemytype.robofont.layerData'
p2
(dp3
S'Back'
p4
(dp5
S'name'
p6
S'z'
sS'lib'
p7
(dp8
sS'unicodes'
p9
(lp10
sS'width'
p11
I502
sS'contours'
p12
(lp13
sS'components'
p14
(lp15
sS'anchors'
p16
(lp17
sss."
EndChar
StartChar: braceleft
Encoding: 130 123 130
GlifName: braceleft
Width: 288
VWidth: 0
Flags: W
LayerCount: 2
Back
Fore
SplineSet
241 183 m 256
 241 231 208 269 145 272 c 257
 208 272 241 319 241 362 c 256
 241 412 214 480 214 529 c 256
 214 582 228 609 278 609 c 257
 278 629 l 257
 212 629 l 257
 153 629 90 590 90 501 c 256
 90 451 118 390 118 354 c 256
 118 307 93 280 30 280 c 257
 30 265 l 257
 93 265 118 238 118 191 c 256
 118 155 90 94 90 44 c 256
 90 -45 153 -78 212 -78 c 257
 278 -78 l 257
 278 -58 l 257
 228 -58 214 -37 214 16 c 256
 214 65 241 133 241 183 c 256
EndSplineSet
PickledDataWithLists: "(dp1
S'com.typemytype.robofont.layerData'
p2
(dp3
S'Back'
p4
(dp5
S'name'
p6
S'braceleft'
p7
sS'lib'
p8
(dp9
sS'unicodes'
p10
(lp11
sS'width'
p12
I288
sS'contours'
p13
(lp14
sS'components'
p15
(lp16
sS'anchors'
p17
(lp18
sss."
EndChar
StartChar: bar
Encoding: 145 124 145
GlifName: bar
Width: 140
VWidth: 0
Flags: W
LayerCount: 2
Back
Fore
SplineSet
60 -99 m 257
 80 -99 l 257
 80 585 l 257
 60 585 l 257
 60 -99 l 257
EndSplineSet
Validated: 9
PickledDataWithLists: "(dp1
S'com.typemytype.robofont.layerData'
p2
(dp3
S'Back'
p4
(dp5
S'name'
p6
S'bar'
p7
sS'lib'
p8
(dp9
sS'unicodes'
p10
(lp11
sS'width'
p12
I140
sS'contours'
p13
(lp14
sS'components'
p15
(lp16
sS'anchors'
p17
(lp18
sss."
EndChar
StartChar: braceright
Encoding: 147 125 147
GlifName: braceright
Width: 288
VWidth: 0
Flags: W
LayerCount: 2
Back
Fore
SplineSet
47 183 m 256
 47 133 74 65 74 16 c 256
 74 -37 60 -58 10 -58 c 257
 10 -78 l 257
 76 -78 l 257
 135 -78 198 -45 198 44 c 256
 198 94 170 155 170 191 c 256
 170 238 195 265 258 265 c 257
 258 280 l 257
 195 280 170 307 170 354 c 256
 170 390 198 451 198 501 c 256
 198 590 135 629 76 629 c 257
 10 629 l 257
 10 609 l 257
 60 609 74 582 74 529 c 256
 74 480 47 412 47 362 c 256
 47 319 80 272 143 272 c 257
 80 269 47 231 47 183 c 256
EndSplineSet
PickledDataWithLists: "(dp1
S'com.typemytype.robofont.layerData'
p2
(dp3
S'Back'
p4
(dp5
S'name'
p6
S'braceright'
p7
sS'lib'
p8
(dp9
sS'unicodes'
p10
(lp11
sS'width'
p12
I288
sS'contours'
p13
(lp14
sS'components'
p15
(lp16
sS'anchors'
p17
(lp18
sss."
EndChar
StartChar: asciitilde
Encoding: 123 126 123
GlifName: asciitilde
Width: 484
VWidth: 0
Flags: W
LayerCount: 2
Back
Fore
SplineSet
37 148 m 257
 41 148 53 148 53 148 c 257
 53 148 52 156 52 166 c 256
 52 194 70 215 97 215 c 256
 176 215 230 157 321 157 c 256
 393 157 454 212 454 279 c 256
 454 293 453 308 447 324 c 257
 447 324 433 324 431 324 c 257
 431 324 432 315 432 306 c 256
 432 279 416 257 386 257 c 256
 306 257 252 315 162 315 c 256
 91 315 30 262 30 193 c 256
 30 178 32 164 37 148 c 257
EndSplineSet
PickledDataWithLists: "(dp1
S'com.typemytype.robofont.layerData'
p2
(dp3
S'Back'
p4
(dp5
S'name'
p6
S'asciitilde'
p7
sS'lib'
p8
(dp9
sS'unicodes'
p10
(lp11
sS'width'
p12
I484
sS'contours'
p13
(lp14
sS'components'
p15
(lp16
sS'anchors'
p17
(lp18
sss."
EndChar
StartChar: exclamdown
Encoding: 846 161 846
GlifName: exclamdown
Width: 252
VWidth: 0
Flags: W
LayerCount: 2
Back
Fore
SplineSet
125 465 m 256
 85 465 50 430 50 390 c 256
 50 348 85 314 125 314 c 256
 167 314 201 348 201 390 c 256
 201 430 167 465 125 465 c 256
134 280 m 257
 118 280 l 257
 100 151 35 68 35 -11 c 256
 35 -67 64 -112 127 -112 c 256
 187 -112 217 -67 217 -12 c 256
 217 65 155 151 134 280 c 257
EndSplineSet
PickledDataWithLists: "(dp1
S'com.typemytype.robofont.layerData'
p2
(dp3
S'Back'
p4
(dp5
S'name'
p6
S'exclamdown'
p7
sS'lib'
p8
(dp9
sS'unicodes'
p10
(lp11
sS'width'
p12
I252
sS'contours'
p13
(lp14
sS'components'
p15
(lp16
sS'anchors'
p17
(lp18
sss."
EndChar
StartChar: cent
Encoding: 147 162 147
GlifName: cent
Width: 415
VWidth: 0
Flags: W
LayerCount: 2
Back
Fore
SplineSet
126 36 m 257
 144 27 l 257
 375 468 l 257
 358 476 l 257
 324 411 l 257
 322 376 l 257
 295 355 l 257
 126 36 l 257
363 223 m 257
 357 183 331 142 281 142 c 256
 214 142 170 196 170 274 c 256
 170 359 203 425 260 425 c 256
 298 425 320 407 320 388 c 256
 320 360 257 377 257 322 c 256
 257 299 275 277 306 277 c 256
 340 277 363 301 363 341 c 256
 363 396 315 443 232 443 c 256
 104 443 40 354 40 270 c 256
 40 151 113 89 225 89 c 256
 319 89 375 147 375 223 c 257
 363 223 l 257
EndSplineSet
PickledDataWithLists: "(dp1
S'com.typemytype.robofont.layerData'
p2
(dp3
S'Back'
p4
(dp5
S'name'
p6
S'cent'
p7
sS'lib'
p8
(dp9
sS'unicodes'
p10
(lp11
sS'width'
p12
I415
sS'contours'
p13
(lp14
sS'components'
p15
(lp16
sS'anchors'
p17
(lp18
sss."
EndChar
StartChar: sterling
Encoding: 1030 163 1030
GlifName: sterling
Width: 503
VWidth: 0
Flags: W
LayerCount: 2
Back
Fore
SplineSet
129 135 m 257
 174 161 243 209 243 288 c 256
 243 350 208 374 208 446 c 256
 208 510 243 564 308 564 c 256
 358 564 391 539 391 518 c 256
 391 479 298 500 298 421 c 256
 298 387 324 356 369 356 c 256
 417 356 449 394 449 445 c 256
 449 527 387 588 270 588 c 256
 158 588 67 519 67 412 c 256
 67 314 122 306 122 217 c 256
 122 129 44 115 44 -1 c 257
 64 -1 l 257
 73 41 98 74 137 74 c 256
 209 74 254 -11 352 -11 c 256
 439 -11 472 66 472 141 c 256
 472 163 469 184 464 204 c 257
 454 204 l 257
 447 149 404 124 352 124 c 256
 299 124 260 150 198 150 c 256
 177 150 152 142 132 129 c 257
 129 135 l 257
46 272 m 257
 380 272 l 257
 380 292 l 257
 46 292 l 257
 46 272 l 257
EndSplineSet
Validated: 5
PickledDataWithLists: "(dp1
S'com.typemytype.robofont.layerData'
p2
(dp3
S'Back'
p4
(dp5
S'name'
p6
S'sterling'
p7
sS'lib'
p8
(dp9
sS'unicodes'
p10
(lp11
sS'width'
p12
I503
sS'contours'
p13
(lp14
sS'components'
p15
(lp16
sS'anchors'
p17
(lp18
sss."
EndChar
StartChar: currency
Encoding: 170 164 170
GlifName: currency
Width: 448
VWidth: 0
Flags: W
LayerCount: 2
Back
Fore
SplineSet
351 239 m 256
 351 270 339 299 321 321 c 257
 408 408 l 257
 394 422 l 257
 306 335 l 257
 284 354 255 365 224 365 c 256
 192 365 163 354 141 335 c 257
 54 422 l 257
 40 408 l 257
 127 320 l 257
 108 298 97 270 97 239 c 256
 97 206 110 176 130 154 c 257
 40 64 l 257
 54 50 l 257
 144 140 l 257
 166 123 194 112 224 112 c 256
 254 112 282 123 303 140 c 257
 394 50 l 257
 408 64 l 257
 318 154 l 257
 338 176 351 206 351 239 c 256
224 132 m 256
 165 132 117 180 117 239 c 256
 117 298 165 345 224 345 c 256
 283 345 331 298 331 239 c 256
 331 180 283 132 224 132 c 256
EndSplineSet
Validated: 9
PickledDataWithLists: "(dp1
S'com.typemytype.robofont.layerData'
p2
(dp3
S'Back'
p4
(dp5
S'name'
p6
S'currency'
p7
sS'lib'
p8
(dp9
sS'unicodes'
p10
(lp11
sS'width'
p12
I448
sS'contours'
p13
(lp14
sS'components'
p15
(lp16
sS'anchors'
p17
(lp18
sss."
EndChar
StartChar: yen
Encoding: 1087 165 1087
GlifName: yen
Width: 616
VWidth: 0
Flags: W
LayerCount: 2
Back
Fore
SplineSet
456 0 m 257
 456 20 l 257
 391 20 l 257
 391 185 l 257
 546 185 l 257
 546 205 l 257
 391 205 l 257
 391 258 l 257
 412 300 l 257
 546 300 l 257
 546 320 l 257
 423 320 l 257
 536 540 l 257
 606 540 l 257
 606 560 l 257
 431 560 l 257
 431 540 l 257
 511 540 l 257
 381 288 l 257
 241 540 l 257
 290 540 l 257
 290 560 l 257
 10 560 l 257
 10 540 l 257
 62 540 l 257
 190 320 l 257
 91 320 l 257
 91 300 l 257
 201 300 l 257
 241 231 l 257
 241 205 l 257
 91 205 l 257
 91 185 l 257
 241 185 l 257
 241 20 l 257
 175 20 l 257
 175 0 l 257
 456 0 l 257
EndSplineSet
Validated: 9
PickledDataWithLists: "(dp1
S'com.typemytype.robofont.layerData'
p2
(dp3
S'Back'
p4
(dp5
S'name'
p6
S'yen'
p7
sS'lib'
p8
(dp9
sS'unicodes'
p10
(lp11
sS'width'
p12
I616
sS'contours'
p13
(lp14
sS'components'
p15
(lp16
sS'anchors'
p17
(lp18
sss."
EndChar
StartChar: brokenbar
Encoding: 152 166 152
GlifName: brokenbar
Width: 140
VWidth: 0
Flags: W
LayerCount: 2
Back
Fore
SplineSet
60 0 m 257
 80 0 l 257
 80 227 l 257
 60 227 l 257
 60 0 l 257
60 333 m 257
 80 333 l 257
 80 560 l 257
 60 560 l 257
 60 333 l 257
EndSplineSet
Validated: 9
PickledDataWithLists: "(dp1
S'com.typemytype.robofont.layerData'
p2
(dp3
S'Back'
p4
(dp5
S'name'
p6
S'brokenbar'
p7
sS'lib'
p8
(dp9
sS'unicodes'
p10
(lp11
sS'width'
p12
I140
sS'contours'
p13
(lp14
sS'components'
p15
(lp16
sS'anchors'
p17
(lp18
sss."
EndChar
StartChar: section
Encoding: 1024 167 1024
GlifName: section
Width: 389
VWidth: 0
Flags: W
LayerCount: 2
Back
Fore
SplineSet
153.936 364 m 257
 15.936 364 -37.064 203 99.936 137 c 258
 213 84 l 258
 265 58 269 10 191 10 c 256
 139 10 88.936 40 64.936 121 c 257
 64.936 121 44.936 121 44.936 121 c 257
 44.936 -3 l 257
 44.936 -3 60.936 -3 60.936 -3 c 257
 60.936 7 64 18 79 18 c 256
 104 18 132 -10 190.936 -10 c 256
 274 -10 319 31 327 85 c 256
 335 139 308 185 246 211 c 258
 142.936 256 l 258
 72.936 286 70.936 348 152.936 348 c 257
 153.936 364 l 257
292 423 m 258
 179.936 477 l 258
 127.936 501 132 550 191 550 c 256
 243 550 294 521 317 448 c 257
 317 448 337 448 337 448 c 257
 337 562 l 257
 337 562 322 562 322 562 c 257
 322 552 317 542 301 542 c 256
 278 542 240.936 570 190.936 570 c 256
 108.936 570 63.936 528 54.936 475 c 256
 46.936 422 74.936 375 135.936 348 c 258
 240 303 l 258
 309 274 311 212 229 212 c 256
 228 197 l 257
 368 197 430 357 292 423 c 258
EndSplineSet
PickledDataWithLists: "(dp1
S'com.typemytype.robofont.layerData'
p2
(dp3
S'Back'
p4
(dp5
S'name'
p6
S'section'
p7
sS'lib'
p8
(dp9
sS'unicodes'
p10
(lp11
sS'width'
p12
I389
sS'contours'
p13
(lp14
sS'components'
p15
(lp16
sS'anchors'
p17
(lp18
sss."
EndChar
StartChar: dieresis
Encoding: 162 168 162
GlifName: dieresis
Width: 696
VWidth: 0
Flags: W
LayerCount: 2
Back
Fore
SplineSet
325 582 m 256
 325 617 297 645 264 645 c 256
 229 645 200 617 200 582 c 256
 200 548 229 521 264 521 c 256
 297 521 325 548 325 582 c 256
496 582 m 256
 496 617 470 645 434 645 c 256
 401 645 373 617 373 582 c 256
 373 548 401 521 434 521 c 256
 470 521 496 548 496 582 c 256
EndSplineSet
PickledDataWithLists: "(dp1
S'com.typemytype.robofont.layerData'
p2
(dp3
S'Back'
p4
(dp5
S'name'
p6
S'dieresis'
p7
sS'lib'
p8
(dp9
sS'unicodes'
p10
(lp11
sS'width'
p12
I696
sS'contours'
p13
(lp14
sS'components'
p15
(lp16
sS'anchors'
p17
(lp18
sss."
EndChar
StartChar: copyright
Encoding: 153 169 153
GlifName: copyright
Width: 602
VWidth: 0
Flags: W
LayerCount: 2
Back
Fore
SplineSet
572 282 m 256
 572 431 451 553 301 553 c 256
 151 553 30 431 30 282 c 256
 30 131 151 10 301 10 c 256
 451 10 572 131 572 282 c 256
301 533 m 256
 439 533 552 419 552 282 c 256
 552 143 439 30 301 30 c 256
 163 30 50 143 50 282 c 256
 50 419 163 533 301 533 c 256
438 240 m 257
 433 204 409 167 364 167 c 256
 303 167 264 216 264 286 c 256
 264 363 293 423 345 423 c 256
 379 423 399 407 399 389 c 256
 399 364 342 379 342 330 c 256
 342 309 359 289 387 289 c 256
 417 289 438 311 438 347 c 256
 438 397 395 439 320 439 c 256
 204 439 146 359 146 283 c 256
 146 175 212 119 313 119 c 256
 398 119 449 171 449 240 c 257
 438 240 l 257
EndSplineSet
PickledDataWithLists: "(dp1
S'com.typemytype.robofont.layerData'
p2
(dp3
S'Back'
p4
(dp5
S'name'
p6
S'copyright'
p7
sS'lib'
p8
(dp9
sS'unicodes'
p10
(lp11
sS'width'
p12
I602
sS'contours'
p13
(lp14
sS'components'
p15
(lp16
sS'anchors'
p17
(lp18
sss."
EndChar
StartChar: ordfeminine
Encoding: 934 170 934
GlifName: ordfeminine
Width: 285
VWidth: 0
Flags: W
LayerCount: 2
Back
Fore
SplineSet
128 350 m 256
 108 350 90 359 90 390 c 256
 90 423 114 432 140 437 c 258
 157 440 l 257
 157 365 l 257
 151 357 142 350 128 350 c 256
215 327 m 256
 232 327 253 333 261 339 c 257
 261 349 l 257
 257 348 252 347 249 347 c 256
 236 347 231 356 231 385 c 258
 231 467 l 258
 231 536 203 562 135 562 c 256
 63 562 33 527 33 497 c 256
 33 477 47 461 70 461 c 256
 93 461 106 477 106 497 c 256
 106 514 98 521 98 535 c 256
 98 543 103 549 123 549 c 256
 154 549 157 530 157 477 c 258
 157 453 l 257
 138 450 l 258
 50 439 23 417 23 378 c 256
 23 340 51 325 85 325 c 256
 118 325 143 333 160 350 c 257
 170 331 189 327 215 327 c 256
EndSplineSet
EndChar
StartChar: logicalnot
Encoding: 901 172 901
GlifName: logicalnot
Width: 505
VWidth: 0
Flags: W
LayerCount: 2
Back
Fore
SplineSet
465 245 m 257
 40 245 l 257
 40 225 l 257
 465 225 l 257
 465 245 l 257
445 245 m 257
 445 -1 l 257
 465 -1 l 257
 465 245 l 257
 445 245 l 257
EndSplineSet
PickledDataWithLists: "(dp1
S'com.typemytype.robofont.layerData'
p2
(dp3
S'Back'
p4
(dp5
S'name'
p6
S'logicalnot'
p7
sS'lib'
p8
(dp9
sS'unicodes'
p10
(lp11
sS'width'
p12
F505
sS'contours'
p13
(lp14
sS'components'
p15
(lp16
sS'anchors'
p17
(lp18
sss."
EndChar
StartChar: registered
Encoding: 1017 174 1017
GlifName: registered
Width: 602
VWidth: 0
Flags: W
LayerCount: 2
Back
Fore
SplineSet
279 279 m 257
 358 279 312 136 412 136 c 256
 425 136 453 140 466 147 c 257
 465 154 l 257
 402 154 444 290 332 290 c 257
 395 294 423 321 423 360 c 256
 423 417 373 436 290 436 c 258
 185 436 l 257
 185 417 l 257
 213 417 l 257
 213 162 l 257
 185 162 l 257
 185 143 l 257
 185 143 251 143 310 143 c 257
 310 162 l 257
 279 162 l 257
 279 207 279 279 279 279 c 257
279 418 m 257
 330 418 353 402 353 357 c 256
 353 321 331 298 279 298 c 257
 279 418 l 257
572 282 m 256
 572 431 451 553 301 553 c 256
 151 553 30 431 30 282 c 256
 30 131 151 10 301 10 c 256
 451 10 572 131 572 282 c 256
301 533 m 256
 439 533 552 419 552 282 c 256
 552 143 439 30 301 30 c 256
 163 30 50 143 50 282 c 256
 50 419 163 533 301 533 c 256
EndSplineSet
Validated: 9
PickledDataWithLists: "(dp1
S'com.typemytype.robofont.layerData'
p2
(dp3
S'Back'
p4
(dp5
S'name'
p6
S'registered'
p7
sS'lib'
p8
(dp9
sS'unicodes'
p10
(lp11
sS'width'
p12
I602
sS'contours'
p13
(lp14
sS'components'
p15
(lp16
sS'anchors'
p17
(lp18
sss."
EndChar
StartChar: macron
Encoding: 961 175 961
GlifName: macron
Width: 600
VWidth: 0
Flags: W
LayerCount: 2
Back
Fore
SplineSet
400 607 m 257
 200 607 l 257
 200 557 l 257
 400 557 l 257
 400 607 l 257
EndSplineSet
PickledDataWithLists: "(dp1
S'com.typemytype.robofont.layerData'
p2
(dp3
S'Back'
p4
(dp5
S'name'
p6
S'macron'
p7
sS'lib'
p8
(dp9
sS'unicodes'
p10
(lp11
sS'width'
p12
I600
sS'contours'
p13
(lp14
sS'components'
p15
(lp16
sS'anchors'
p17
(lp18
sss."
EndChar
StartChar: degree
Encoding: 176 176 176
GlifName: degree
Width: 415
VWidth: 0
Flags: W
LayerCount: 2
Back
Fore
SplineSet
207 590 m 257
 281 590 315 619 315 693 c 256
 315 768 281 796 207 796 c 257
 132 796 100 768 100 693 c 256
 100 619 132 590 207 590 c 257
207 610 m 257
 179 610 169 623 169 693 c 256
 169 763 179 776 207 776 c 257
 235 776 246 763 246 693 c 257
 246 623 235 610 207 610 c 257
EndSplineSet
Validated: 9
PickledDataWithLists: "(dp1
S'com.typemytype.robofont.layerData'
p2
(dp3
S'Back'
p4
(dp5
S'name'
p6
S'degree'
p7
sS'lib'
p8
(dp9
sS'unicodes'
p10
(lp11
sS'width'
p12
I415
sS'contours'
p13
(lp14
sS'components'
p15
(lp16
sS'anchors'
p17
(lp18
sss."
EndChar
StartChar: plusminus
Encoding: 1000 177 1000
GlifName: plusminus
Width: 505
VWidth: 0
Flags: W
LayerCount: 2
Back
Fore
SplineSet
262 302 m 257
 262 494 l 257
 242 494 l 257
 242 302 l 257
 40 302 l 257
 40 282 l 257
 242 282 l 257
 242 89 l 257
 262 89 l 257
 262 282 l 257
 465 282 l 257
 465 302 l 257
 262 302 l 257
465 39 m 257
 40 39 l 257
 40 19 l 257
 465 19 l 257
 465 39 l 257
EndSplineSet
PickledDataWithLists: "(dp1
S'com.typemytype.robofont.layerData'
p2
(dp3
S'Back'
p4
(dp5
S'name'
p6
S'plusminus'
p7
sS'lib'
p8
(dp9
sS'unicodes'
p10
(lp11
sS'width'
p12
I505
sS'contours'
p13
(lp14
sS'components'
p15
(lp16
sS'anchors'
p17
(lp18
sss."
EndChar
StartChar: acute
Encoding: 127 180 127
GlifName: acute
Width: 538
VWidth: 0
Flags: W
LayerCount: 2
Back
Fore
SplineSet
200 511 m 257
 214 501 l 257
 249 552 298 529 326 568 c 256
 349 600 339 638 312 650 c 256
 291 663 258 654 242 632 c 256
 209 587 234 560 200 511 c 257
EndSplineSet
Validated: 41
PickledDataWithLists: "(dp1
S'com.typemytype.robofont.layerData'
p2
(dp3
S'Back'
p4
(dp5
S'name'
p6
S'acute'
p7
sS'lib'
p8
(dp9
sS'unicodes'
p10
(lp11
sS'width'
p12
I538
sS'contours'
p13
(lp14
sS'components'
p15
(lp16
sS'anchors'
p17
(lp18
sss."
EndChar
StartChar: uni00B5
Encoding: 1053 181 1053
GlifName: uni00B_5
Width: 595
VWidth: 0
Flags: W
LayerCount: 2
Back
Fore
SplineSet
535 20 m 257
 535 460 l 257
 335 460 l 257
 335 440 l 257
 385 440 l 257
 385 89 l 257
 362 49 329 29 294 29 c 256
 240 29 210 62 210 160 c 258
 210 460 l 257
 10 460 l 257
 10 440 l 257
 60 440 l 257
 60 -210 l 257
 210 -210 l 257
 210 -9.6354 l 257
 218.945 -10.5438 228.279 -11 238 -11 c 256
 304 -11 361 19 385 53 c 257
 385 -2.76566e-09 l 257
 585 -2.76566e-09 l 257
 585 20 l 257
 535 20 l 257
EndSplineSet
PickledDataWithLists: "(dp1
S'com.schriftgestaltung.Glyphs.ColorIndex'
p2
I0
sS'public.markColor'
p3
S'0.85,0.26,0.06,1'
p4
sS'com.typemytype.robofont.layerData'
p5
(dp6
S'Back'
p7
(dp8
S'name'
p9
S'mu'
p10
sS'lib'
p11
(dp12
sS'unicodes'
p13
(lp14
sS'width'
p15
F595
sS'contours'
p16
(lp17
sS'components'
p18
(lp19
sS'anchors'
p20
(lp21
sss."
EndChar
StartChar: paragraph
Encoding: 991 182 991
GlifName: paragraph
Width: 467
VWidth: 0
Flags: W
LayerCount: 2
Back
Fore
SplineSet
192 560 m 257
 80 560 20 520 20 402 c 257
 20 290 80 234 192 234 c 257
 192 560 l 257
447 560 m 257
 197 560 l 256
 197 540 l 257
 447 540 l 257
 447 560 l 257
387 12 m 257
 387 560 l 257
 367 560 l 257
 367 12 l 257
 387 12 l 257
447 20 m 257
 367 20 l 256
 367 0 l 257
 447 0 l 257
 447 20 l 257
207 20 m 257
 127 20 l 256
 127 0 l 257
 207 0 l 257
 207 20 l 257
207 12 m 257
 207 560 l 257
 187 560 l 257
 187 12 l 257
 207 12 l 257
EndSplineSet
Validated: 5
PickledDataWithLists: "(dp1
S'com.typemytype.robofont.layerData'
p2
(dp3
S'Back'
p4
(dp5
S'name'
p6
S'paragraph'
p7
sS'lib'
p8
(dp9
sS'unicodes'
p10
(lp11
sS'width'
p12
I467
sS'contours'
p13
(lp14
sS'components'
p15
(lp16
sS'anchors'
p17
(lp18
sss."
EndChar
StartChar: periodcentered
Encoding: 945 183 945
GlifName: periodcentered
Width: 225
VWidth: 0
Flags: W
LayerCount: 2
Back
Fore
SplineSet
113 145 m 256
 168 145 213 191 213 244 c 256
 213 299 168 344 113 344 c 256
 60 344 14 299 14 244 c 256
 14 191 60 145 113 145 c 256
EndSplineSet
PickledDataWithLists: "(dp1
S'com.typemytype.robofont.layerData'
p2
(dp3
S'Back'
p4
(dp5
S'name'
p6
S'periodcentered'
p7
sS'lib'
p8
(dp9
sS'unicodes'
p10
(lp11
sS'width'
p12
I225
sS'contours'
p13
(lp14
sS'components'
p15
(lp16
sS'anchors'
p17
(lp18
sss."
EndChar
StartChar: ordmasculine
Encoding: 935 186 935
GlifName: ordmasculine
Width: 287
VWidth: 0
Flags: W
LayerCount: 2
Back
Fore
SplineSet
145 325 m 257
 202 325 270 362 270 442 c 256
 270 526 202 562 145 562 c 257
 88 562 21 526 21 442 c 256
 21 362 88 325 145 325 c 257
145 339 m 257
 109 339 97 367 97 442 c 256
 97 520 109 548 145 548 c 257
 181 548 195 520 195 442 c 257
 195 367 181 339 145 339 c 257
EndSplineSet
EndChar
StartChar: onequarter
Encoding: 985 188 985
GlifName: onequarter
Width: 539
VWidth: 0
Flags: W
LayerCount: 2
Back
Fore
SplineSet
487 115 m 257
 487 38 l 257
 499 38 l 257
 499 115 l 257
 487 115 l 257
497 82 m 257
 258 82 l 257
 258 72 l 257
 497 72 l 257
 497 82 l 257
375 4 m 257
 450 4 l 257
 450 291 l 257
 400 291 l 257
 258 82 l 257
 271 82 l 257
 375 236 l 257
 375 4 l 257
483 10 m 257
 343 10 l 257
 343 0 l 257
 483 0 l 257
 483 10 l 257
194 279 m 257
 44 279 l 257
 44 269 l 257
 194 269 l 257
 194 279 l 257
159 269 m 257
 159 560 l 257
 141 560 l 257
 40 514 l 257
 43 504 l 257
 84 520 l 257
 84 269 l 257
 159 269 l 257
100 0 m 257
 121 0 l 257
 421 561 l 257
 400 561 l 257
 100 0 l 257
EndSplineSet
PickledDataWithLists: "(dp1
S'com.typemytype.robofont.layerData'
p2
(dp3
S'Back'
p4
(dp5
S'name'
p6
S'onequarter'
p7
sS'lib'
p8
(dp9
sS'unicodes'
p10
(lp11
sS'width'
p12
I539
sS'contours'
p13
(lp14
sS'components'
p15
(lp16
sS'anchors'
p17
(lp18
sss."
EndChar
StartChar: onehalf
Encoding: 931 189 931
GlifName: onehalf
Width: 559
VWidth: 0
Flags: W
LayerCount: 2
Back
Fore
SplineSet
510 103 m 257
 507 75 485 73 459 73 c 256
 433 73 413 86 382 86 c 256
 370 86 357 83 348 76 c 257
 383 127 514 111 514 217 c 256
 514 266 464 294 396 294 c 256
 338 294 301 262 301 222 c 256
 301 197 317 178 341 178 c 256
 364 178 377 193 377 210 c 256
 377 250 334 239 334 259 c 256
 334 273 358 282 379 282 c 256
 416 282 433 256 433 222 c 256
 433 166 368 131 323 72 c 256
 310 54 297 26 295 0 c 257
 305 0 l 257
 310 21 322 33 342 33 c 256
 378 33 410 -5 459 -5 c 256
 503 -5 519 34 519 71 c 256
 519 82 518 93 515 103 c 257
 510 103 l 257
194 279 m 257
 44 279 l 257
 44 269 l 257
 194 269 l 257
 194 279 l 257
159 269 m 257
 159 560 l 257
 141 560 l 257
 40 514 l 257
 43 504 l 257
 84 520 l 257
 84 269 l 257
 159 269 l 257
100 0 m 257
 121 0 l 257
 421 561 l 257
 400 561 l 257
 100 0 l 257
EndSplineSet
PickledDataWithLists: "(dp1
S'com.typemytype.robofont.layerData'
p2
(dp3
S'Back'
p4
(dp5
S'name'
p6
S'onehalf'
p7
sS'lib'
p8
(dp9
sS'unicodes'
p10
(lp11
sS'width'
p12
I559
sS'contours'
p13
(lp14
sS'components'
p15
(lp16
sS'anchors'
p17
(lp18
sss."
EndChar
StartChar: threequarters
Encoding: 1037 190 1037
GlifName: threequarters
Width: 599
VWidth: 0
Flags: W
LayerCount: 2
Back
Fore
SplineSet
131 560 m 256
 78 560 47 530 47 494 c 256
 47 469 62 453 84 453 c 256
 104 453 115 467 115 482 c 256
 115 518 75 507 75 524 c 256
 75 537 90 548 115 548 c 256
 149 548 168 523 168 490 c 256
 168 466 156 428 108 428 c 258
 100 428 l 257
 100 418 l 257
 108 418 l 258
 165 418 181 393 181 348 c 256
 181 300 154 270 116 270 c 256
 93 270 69 279 69 294 c 256
 69 313 116 300 116 341 c 256
 116 358 103 374 81 374 c 256
 55 374 40 355 40 329 c 256
 40 287 73 258 132 258 c 256
 216 258 263 292 263 348 c 256
 263 395 221 423 161 423 c 257
 217 426 245 456 245 491 c 256
 245 536 210 560 131 560 c 256
543 10 m 257
 403 10 l 257
 403 0 l 257
 543 0 l 257
 543 10 l 257
435 4 m 257
 510 4 l 257
 510 291 l 257
 460 291 l 257
 318 82 l 257
 331 82 l 257
 435 236 l 257
 435 4 l 257
547 115 m 257
 547 38 l 257
 559 38 l 257
 559 115 l 257
 547 115 l 257
557 82 m 257
 318 82 l 257
 318 72 l 257
 557 72 l 257
 557 82 l 257
150 0 m 257
 171 0 l 257
 471 561 l 257
 450 561 l 257
 150 0 l 257
EndSplineSet
Validated: 5
PickledDataWithLists: "(dp1
S'com.typemytype.robofont.layerData'
p2
(dp3
S'Back'
p4
(dp5
S'name'
p6
S'threequarters'
p7
sS'lib'
p8
(dp9
sS'unicodes'
p10
(lp11
sS'width'
p12
I599
sS'contours'
p13
(lp14
sS'components'
p15
(lp16
sS'anchors'
p17
(lp18
sss."
EndChar
StartChar: questiondown
Encoding: 953 191 953
GlifName: questiondown
Width: 451
VWidth: 0
Flags: W
LayerCount: 2
Back
Fore
SplineSet
250 464 m 256
 208 464 173 429 173 389 c 256
 173 347 208 313 250 313 c 256
 290 313 325 347 325 389 c 256
 325 429 290 464 250 464 c 256
249 -132 m 256
 367 -132 442 -65 442 13 c 256
 442 62 411 99 364 99 c 256
 327 99 295 70 295 36 c 256
 295 -41 369 -21 369 -59 c 256
 369 -84 332 -108 289 -108 c 256
 233 -108 185 -74 185 5 c 256
 185 94 298 119 298 180 c 257
 298 215 291 236 262 279 c 257
 245 279 l 257
 245 234 222 211 196 190 c 256
 145 150 38 141 31 33 c 256
 22 -91 132 -132 249 -132 c 256
EndSplineSet
PickledDataWithLists: "(dp1
S'com.typemytype.robofont.layerData'
p2
(dp3
S'Back'
p4
(dp5
S'name'
p6
S'questiondown'
p7
sS'lib'
p8
(dp9
sS'unicodes'
p10
(lp11
sS'width'
p12
I451
sS'contours'
p13
(lp14
sS'components'
p15
(lp16
sS'anchors'
p17
(lp18
sss."
EndChar
StartChar: AE
Encoding: 2 198 2
GlifName: A_E_
Width: 820
VWidth: 0
Flags: W
LayerCount: 2
Back
Fore
SplineSet
511 20 m 257
 340 20 l 257
 340 0 l 257
 511 0 l 257
 511 20 l 257
430 560 m 257
 320 560 l 257
 320 539 l 257
 430 539 l 257
 430 560 l 257
171 20 m 257
 0 20 l 257
 0 0 l 257
 171 0 l 257
 171 20 l 257
86 0 m 257
 423 560 l 257
 396 560 l 257
 59 0 l 257
 86 0 l 257
448 210 m 257
 188 210 l 257
 185 189 l 257
 448 189 l 257
 448 210 l 257
400 560 m 257
 400 0 l 257
 800 0 l 257
 800 20 l 257
 550 20 l 257
 550 280 l 257
 570 280 l 257
 670 280 680 262 680 190 c 257
 700 190 l 257
 700 390 l 257
 680 390 l 257
 680 322 670 300 570 300 c 257
 550 300 l 257
 550 540 l 257
 620 540 l 257
 717 540 770 516 770 390 c 257
 790 390 l 257
 790 560 l 257
 400 560 l 257
780 190 m 257
 780 54 707 20 630 20 c 257
 800 20 l 257
 800 190 l 257
 780 190 l 257
EndSplineSet
Validated: 5
PickledDataWithLists: "(dp1
S'com.typemytype.robofont.layerData'
p2
(dp3
S'Back'
p4
(dp5
S'name'
p6
S'AE'
p7
sS'lib'
p8
(dp9
sS'unicodes'
p10
(lp11
sS'width'
p12
I820
sS'contours'
p13
(lp14
sS'components'
p15
(lp16
sS'anchors'
p17
(lp18
sss."
EndChar
StartChar: multiply
Encoding: 910 215 910
GlifName: multiply
Width: 395
VWidth: 0
Flags: W
LayerCount: 2
Back
Fore
SplineSet
212 230 m 257
 355 373 l 257
 340 387 l 257
 198 244 l 257
 55 387 l 257
 41 373 l 257
 183 230 l 257
 40 87 l 257
 54 73 l 257
 198 216 l 257
 341 73 l 257
 355 87 l 257
 212 230 l 257
EndSplineSet
PickledDataWithLists: "(dp1
S'com.typemytype.robofont.layerData'
p2
(dp3
S'Back'
p4
(dp5
S'name'
p6
S'multiply'
p7
sS'lib'
p8
(dp9
sS'unicodes'
p10
(lp11
sS'width'
p12
I395
sS'contours'
p13
(lp14
sS'components'
p15
(lp16
sS'anchors'
p17
(lp18
sss."
EndChar
StartChar: Oslash
Encoding: 77 216 77
GlifName: O_slash
Width: 702
VWidth: 0
Flags: W
LayerCount: 2
Back
Fore
SplineSet
74 -10 m 257
 642 558 l 257
 627 572 l 257
 60 5 l 257
 74 -10 l 257
351 552 m 256
 433 552 481 451 481 281 c 257
 481 105 437 10 351 10 c 256
 268 10 221 105 221 281 c 257
 221 451 271 552 351 552 c 256
351 -10 m 256
 513 -10 642 82 642 281 c 257
 642 456 531 572 351 572 c 256
 177 572 60 456 60 281 c 257
 60 82 184 -10 351 -10 c 256
EndSplineSet
Validated: 5
PickledDataWithLists: "(dp1
S'com.typemytype.robofont.guides'
p2
(lp3
(dp4
S'y'
I239
sS'x'
I60
sS'magnetic'
p5
I5
sS'angle'
p6
I90
sS'isGlobal'
p7
I0
sa(dp8
S'y'
S'-10'
p9
sS'x'
I368
sg5
I5
sg6
I0
sg7
I0
sa(dp10
S'y'
I136
sS'x'
I642
sg5
I5
sg6
I90
sg7
I0
sa(dp11
S'y'
I572
sS'x'
I466
sg5
I5
sg6
I0
sg7
I0
sasS'com.typemytype.robofont.layerData'
p12
(dp13
S'Back'
p14
(dp15
S'name'
p16
S'Oslash'
p17
sS'lib'
p18
(dp19
sS'unicodes'
p20
(lp21
sS'width'
p22
I702
sS'contours'
p23
(lp24
sS'components'
p25
(lp26
sS'anchors'
p27
(lp28
sss."
EndChar
StartChar: Thorn
Encoding: 87 222 87
GlifName: T_horn
Width: 543
VWidth: 0
Flags: W
LayerCount: 2
Back
Fore
SplineSet
240 463 m 257
 240 540 l 257
 290 540 l 257
 290 560 l 257
 40 560 l 257
 40 540 l 257
 90 540 l 257
 90 20 l 257
 40 20 l 257
 40 0 l 257
 290 0 l 257
 290 20 l 257
 240 20 l 257
 240 97 l 257
 438 87 533 157 533 274 c 256
 533 402 447 473 240 463 c 257
240 117 m 257
 240 443 l 257
 352 443 382 393 382 275 c 256
 382 163 352 117 240 117 c 257
EndSplineSet
PickledDataWithLists: "(dp1
S'com.schriftgestaltung.Glyphs.ColorIndex'
p2
I0
sS'com.typemytype.robofont.guides'
p3
(lp4
(dp5
S'y'
I280
sS'x'
I112
sS'magnetic'
p6
I5
sS'angle'
p7
I0
sS'isGlobal'
p8
I0
sasS'com.typemytype.robofont.layerData'
p9
(dp10
S'Back'
p11
(dp12
S'name'
p13
S'Thorn'
p14
sS'lib'
p15
(dp16
sS'unicodes'
p17
(lp18
sS'width'
p19
I543
sS'contours'
p20
(lp21
sS'components'
p22
(lp23
sS'anchors'
p24
(lp25
sssS'public.markColor'
p26
S'0.85,0.26,0.06,1'
p27
s."
EndChar
StartChar: germandbls
Encoding: 917 223 917
GlifName: germandbls
Width: 694
VWidth: 0
Flags: W
LayerCount: 2
Back
Fore
SplineSet
359 659 m 256
 430 659 471 626 481 574 c 256
 491 521 470 479 432 458 c 256
 340 407 280 370 300 287 c 256
 329 168 558 216 558 76 c 256
 558 27 517 9 479 9 c 256
 443 9 391 20 391 50 c 256
 391 75 434 74 434 118 c 256
 434 150 408 175 369 175 c 256
 324 175 301 142 301 105 c 256
 301 33 386 -11 478 -11 c 256
 586 -11 684 56 684 150 c 256
 684 315 456 291 410 369 c 256
 396 393 411 423 447 442 c 256
 542 493 614 527 594 591 c 256
 573 658 455 680 358 680 c 257
 229 680 90 622 90 460 c 257
 40 460 l 257
 40 440 l 257
 90 440 l 257
 90 20 l 257
 40 20 l 257
 40 0 l 257
 290 0 l 257
 290 20 l 257
 240 20 l 257
 240 460 l 257
 240 595 282 659 359 659 c 256
EndSplineSet
PickledDataWithLists: "(dp1
S'com.typemytype.robofont.guides'
p2
(lp3
(dp4
S'y'
I369
sS'x'
I40
sS'magnetic'
p5
I5
sS'angle'
p6
I90
sS'isGlobal'
p7
I0
sasS'com.typemytype.robofont.layerData'
p8
(dp9
S'Back'
p10
(dp11
S'name'
p12
S'germandbls'
p13
sS'lib'
p14
(dp15
sS'unicodes'
p16
(lp17
sS'width'
p18
I694
sS'contours'
p19
(lp20
sS'components'
p21
(lp22
sS'anchors'
p23
(lp24
sss."
EndChar
StartChar: ae
Encoding: 130 230 130
GlifName: ae
Width: 792
VWidth: 0
Flags: W
LayerCount: 2
Back
Fore
SplineSet
535 450 m 257
 598 450 617 322 617 220 c 257
 455 220 l 257
 455 270 l 257
 459 355 480 450 535 450 c 257
245 34 m 256
 217 34 177 58 170 113 c 257
 164 187 214 222 269 229 c 258
 269 229 305 234 305 234 c 257
 305 162 314 107 344 61 c 257
 342 59 339 58 336 56 c 256
 313 43 281 34 245 34 c 256
747 75 m 257
 733 85 l 257
 704 42 628 24 592 24 c 257
 499 24 461 61 455 188 c 257
 455 200 l 257
 760 200 l 257
 760 405 648 470 543 470 c 257
 494 470 433 453 401 421 c 257
 367 455 311 468 260 468 c 257
 220 468 189 464 163 456 c 256
 87 432 52 389 52 346 c 257
 52 298 86 270 126 270 c 257
 167 270 200 303 200 344 c 257
 200 363 193 390 181 403 c 257
 167 420 183 449 234 449 c 257
 297 449 305 411 305 302 c 257
 305 253 l 257
 265 248 l 258
 86 227 21 179 31 93 c 257
 41 13 109 -8 187 -8 c 257
 247 -8 317 6 356 46 c 257
 389 10 469 -10 565 -10 c 257
 636 -10 717 25 747 75 c 257
EndSplineSet
PickledDataWithLists: "(dp1
S'com.typemytype.robofont.layerData'
p2
(dp3
S'Back'
p4
(dp5
S'name'
p6
S'ae'
p7
sS'lib'
p8
(dp9
sS'unicodes'
p10
(lp11
sS'width'
p12
I792
sS'contours'
p13
(lp14
sS'components'
p15
(lp16
sS'anchors'
p17
(lp18
sss."
EndChar
StartChar: igrave
Encoding: 938 236 938
GlifName: igrave
Width: 320
VWidth: 0
Flags: W
LayerCount: 2
Back
Fore
SplineSet
290 20 m 257
 40 20 l 257
 40 0 l 257
 290 0 l 257
 290 20 l 257
240 460 m 257
 240 460 90 460 90 460 c 257
 90 1 l 257
 240 1 l 257
 240 460 l 257
230 460 m 257
 50 460 l 257
 50 440 l 257
 230 440 l 257
 230 460 l 257
EndSplineSet
Refer: 918 96 N 1 0 0 1 -139 0 2
PickledDataWithLists: "(dp1
S'com.typemytype.robofont.layerData'
p2
(dp3
S'Back'
p4
(dp5
S'name'
p6
S'igrave'
p7
sS'lib'
p8
(dp9
sS'unicodes'
p10
(lp11
sS'width'
p12
I320
sS'contours'
p13
(lp14
sS'components'
p15
(lp16
sS'anchors'
p17
(lp18
sss."
EndChar
StartChar: icircumflex
Encoding: 936 238 936
GlifName: icircumflex
Width: 320
VWidth: 0
Flags: W
LayerCount: 2
Back
Fore
SplineSet
230 460 m 257
 50 460 l 257
 50 440 l 257
 230 440 l 257
 230 460 l 257
290 20 m 257
 40 20 l 257
 40 0 l 257
 290 0 l 257
 290 20 l 257
240 460 m 257
 240 460 90 460 90 460 c 257
 90 1 l 257
 240 1 l 257
 240 460 l 257
EndSplineSet
Refer: 164 710 N 1 0 0 1 -132 0 2
Validated: 5
PickledDataWithLists: "(dp1
S'com.typemytype.robofont.layerData'
p2
(dp3
S'Back'
p4
(dp5
S'name'
p6
S'icircumflex'
p7
sS'lib'
p8
(dp9
sS'unicodes'
p10
(lp11
sS'width'
p12
I320
sS'contours'
p13
(lp14
sS'components'
p15
(lp16
sS'anchors'
p17
(lp18
sss."
EndChar
StartChar: eth
Encoding: 844 240 844
GlifName: eth
Width: 572
VWidth: 0
Flags: W
LayerCount: 2
Back
Fore
SplineSet
519 670 m 257
 125 526 l 257
 134 506 l 257
 527 651 l 257
 519 670 l 257
389 278 m 257
 389 84 349 10 280 10 c 257
 204 10 181 116 181 220 c 257
 181 308 196 430 331 430 c 257
 331 430 331 450 331 450 c 257
 112 450 21 368 21 220 c 256
 21 30 183 -10 280 -10 c 257
 444 -10 551 54 551 278 c 257
 551 502 374 672 120 672 c 257
 120 652 l 257
 271 652 389 520 389 278 c 257
EndSplineSet
PickledDataWithLists: "(dp1
S'com.typemytype.robofont.layerData'
p2
(dp3
S'Back'
p4
(dp5
S'name'
p6
S'eth'
p7
sS'lib'
p8
(dp9
sS'unicodes'
p10
(lp11
sS'width'
p12
I572
sS'contours'
p13
(lp14
sS'components'
p15
(lp16
sS'anchors'
p17
(lp18
sss."
EndChar
StartChar: divide
Encoding: 164 247 164
GlifName: divide
Width: 485
VWidth: 0
Flags: W
LayerCount: 2
Back
Fore
SplineSet
184 102 m 256
 184 70 209 45 241 45 c 256
 272 45 298 70 298 102 c 256
 298 133 272 159 241 159 c 256
 209 159 184 133 184 102 c 256
184 362 m 256
 184 331 209 305 241 305 c 256
 272 305 298 331 298 362 c 256
 298 393 272 419 241 419 c 256
 209 419 184 393 184 362 c 256
445 222 m 257
 40 222 l 257
 40 242 l 257
 445 242 l 257
 445 222 l 257
EndSplineSet
PickledDataWithLists: "(dp1
S'com.typemytype.robofont.layerData'
p2
(dp3
S'Back'
p4
(dp5
S'name'
p6
S'divide'
p7
sS'lib'
p8
(dp9
sS'unicodes'
p10
(lp11
sS'width'
p12
I485
sS'contours'
p13
(lp14
sS'components'
p15
(lp16
sS'anchors'
p17
(lp18
sss."
EndChar
StartChar: oslash
Encoding: 987 248 987
GlifName: oslash
Width: 564
VWidth: 0
Flags: W
LayerCount: 2
Back
Fore
SplineSet
44 -10 m 257
 534 456 l 257
 520 470 l 257
 30 4 l 257
 44 -10 l 257
281 10 m 257
 208 10 183 75 183 228 c 256
 183 385 208 450 281 450 c 257
 354 450 381 385 381 228 c 257
 381 75 354 10 281 10 c 257
281 -10 m 257
 396 -10 534 64 534 228 c 256
 534 398 396 470 281 470 c 257
 166 470 30 398 30 228 c 256
 30 64 166 -10 281 -10 c 257
EndSplineSet
Validated: 5
PickledDataWithLists: "(dp1
S'com.typemytype.robofont.guides'
p2
(lp3
(dp4
S'y'
I309
sS'x'
I544
sS'magnetic'
p5
I5
sS'angle'
p6
I90
sS'isGlobal'
p7
I0
sa(dp8
S'y'
I470
sS'x'
I321
sg5
I5
sg6
I0
sg7
I0
sa(dp9
S'y'
I331
sS'x'
I40
sg5
I5
sg6
I90
sg7
I0
sa(dp10
S'y'
S'-10'
p11
sS'x'
I314
sg5
I5
sg6
I0
sg7
I0
sasS'com.typemytype.robofont.layerData'
p12
(dp13
S'Back'
p14
(dp15
S'name'
p16
S'oslash'
p17
sS'lib'
p18
(dp19
sS'unicodes'
p20
(lp21
sS'width'
p22
I564
sS'contours'
p23
(lp24
sS'components'
p25
(lp26
sS'anchors'
p27
(lp28
sss."
EndChar
StartChar: thorn
Encoding: 990 254 990
GlifName: thorn
Width: 598
VWidth: 0
Flags: W
LayerCount: 2
Back
Fore
SplineSet
240 46 m 257
 263 -4 319 -12 369 -12 c 256
 470 -12 568 70 568 230 c 257
 568 398 472 482 369 482 c 256
 319 482 263 462 240 414 c 257
 240 670 l 257
 90 670 l 257
 90 -209 l 257
 240 -209 l 257
 240 46 l 257
240 387 m 257
 259 426 284 445 307 445 c 256
 364 445 416 384 416 229 c 257
 416 74 361 18 307 18 c 256
 284 18 258 32 240 68 c 257
 240 387 l 257
290 -190 m 257
 40 -190 l 257
 40 -210 l 257
 290 -210 l 257
 290 -190 l 257
230 670 m 257
 40 670 l 257
 40 650 l 257
 230 650 l 257
 230 670 l 257
EndSplineSet
PickledDataWithLists: "(dp1
S'com.typemytype.robofont.guides'
p2
(lp3
(dp4
S'y'
I267
sS'x'
I240
sS'magnetic'
p5
I5
sS'angle'
p6
I90
sS'isGlobal'
p7
I0
sasS'com.typemytype.robofont.layerData'
p8
(dp9
S'Back'
p10
(dp11
S'name'
p12
S'thorn'
p13
sS'lib'
p14
(dp15
sS'unicodes'
p16
(lp17
sS'width'
p18
I598
sS'contours'
p19
(lp20
sS'components'
p21
(lp22
sS'anchors'
p23
(lp24
sss."
EndChar
StartChar: Dcroat
Encoding: 22 272 22
GlifName: D_croat
Width: 625
VWidth: 0
Flags: W
LayerCount: 2
Back
Fore
SplineSet
357 298 m 257
 40 298 l 257
 40 278 l 257
 357 278 l 257
 357 298 l 257
240 20 m 257
 240 540 l 257
 377 540 444 439 444 281 c 256
 444 85 381 20 240 20 c 257
290 0 m 257
 497 0 595 94 595 283 c 256
 595 416 495 560 290 560 c 258
 40 560 l 257
 40 540 l 257
 90 540 l 257
 90 20 l 257
 40 20 l 257
 40 0 l 257
 290 0 l 257
EndSplineSet
PickledDataWithLists: "(dp1
S'com.typemytype.robofont.layerData'
p2
(dp3
S'Back'
p4
(dp5
S'name'
p6
S'Dcroat'
p7
sS'lib'
p8
(dp9
sS'unicodes'
p10
(lp11
sS'width'
p12
I625
sS'contours'
p13
(lp14
sS'components'
p15
(lp16
sS'anchors'
p17
(lp18
sss."
EndChar
StartChar: dcroat
Encoding: 160 273 160
GlifName: dcroat
Width: 598
VWidth: 0
Flags: W
LayerCount: 2
Back
Fore
SplineSet
558 582 m 257
 198 582 l 257
 198 562 l 257
 558 562 l 257
 558 582 l 257
498 670 m 257
 308 670 l 257
 308 650 l 257
 498 650 l 257
 498 670 l 257
388 230 m 257
 388 73 335 18 291 18 c 256
 237 18 182 74 182 229 c 257
 182 384 234 445 291 445 c 256
 335 445 388 375 388 230 c 257
358 46 m 257
 358 1 l 257
 508 1 l 257
 508 670 l 257
 358 670 l 257
 358 414 l 257
 335 462 279 482 229 482 c 256
 126 482 30 398 30 230 c 257
 30 70 128 -12 229 -12 c 256
 279 -12 335 -4 358 46 c 257
558 20 m 257
 358 20 l 257
 358 0 l 257
 558 0 l 257
 558 20 l 257
EndSplineSet
PickledDataWithLists: "(dp1
S'com.typemytype.robofont.layerData'
p2
(dp3
S'Back'
p4
(dp5
S'name'
p6
S'dcroat'
p7
sS'lib'
p8
(dp9
sS'unicodes'
p10
(lp11
sS'width'
p12
I598
sS'contours'
p13
(lp14
sS'components'
p15
(lp16
sS'anchors'
p17
(lp18
sss."
EndChar
StartChar: gbreve
Encoding: 865 287 865
GlifName: gbreve
Width: 538
VWidth: 0
Flags: W
LayerCount: 2
Back
Fore
SplineSet
368 61 m 257
 196 61 l 257
 196 61 160 61 160 93 c 256
 160 134 187 159 187 159 c 257
 187 159 179 162 172 160 c 256
 141 152 64 98 64 30 c 256
 64 -42 127 -69 194 -69 c 257
 362 -69 l 258
 473 -69 487 -117 434 -157 c 256
 405 -179 360 -201 288 -201 c 256
 172 -201 86 -147 116 -38 c 257
 85 -39 36 -61 31 -115 c 256
 23 -197 157 -221 288 -221 c 257
 440 -221 506 -129 516 -75 c 256
 530 -1 493 61 368 61 c 257
261 449 m 256
 315 449 345 423 345 298 c 256
 345 184 315 150 264 150 c 256
 219 150 190 185 190 299 c 256
 190 424 220 449 261 449 c 256
495 297 m 256
 495 414 376 469 273 469 c 256
 162 469 30 416 30 299 c 256
 30 187 133 130 256 130 c 256
 374 130 495 184 495 297 c 256
EndSplineSet
Refer: 134 728 N 1 0 0 1 -25 -1 2
PickledDataWithLists: "(dp1
S'com.typemytype.robofont.layerData'
p2
(dp3
S'Back'
p4
(dp5
S'name'
p6
S'gbreve'
p7
sS'lib'
p8
(dp9
sS'unicodes'
p10
(lp11
sS'width'
p12
I538
sS'contours'
p13
(lp14
sS'components'
p15
(lp16
sS'anchors'
p17
(lp18
sss."
EndChar
StartChar: gcommaaccent
Encoding: 866 291 866
GlifName: gcommaaccent
Width: 538
VWidth: 0
Flags: W
LayerCount: 2
Back
Fore
SplineSet
261 449 m 256
 315 449 345 423 345 298 c 256
 345 184 315 150 264 150 c 256
 219 150 190 185 190 299 c 256
 190 424 220 449 261 449 c 256
368 61 m 257
 196 61 l 257
 196 61 160 61 160 93 c 256
 160 134 187 159 187 159 c 257
 187 159 179 162 172 160 c 256
 141 152 64 98 64 30 c 256
 64 -42 127 -69 194 -69 c 257
 362 -69 l 258
 473 -69 487 -117 434 -157 c 256
 405 -179 360 -201 288 -201 c 256
 172 -201 86 -147 116 -38 c 257
 85 -39 36 -61 31 -115 c 256
 23 -197 157 -221 288 -221 c 257
 440 -221 506 -129 516 -75 c 256
 530 -1 493 61 368 61 c 257
495 297 m 256
 495 414 376 469 273 469 c 256
 162 469 30 416 30 299 c 256
 30 187 133 130 256 130 c 256
 374 130 495 184 495 297 c 256
308 729 m 257
 234 695 193 643 193 582 c 256
 193 543 219 501 270 501 c 256
 309 501 335 529 335 565 c 256
 335 604 305 622 280 622 c 257
 265 622 262 617 250 617 c 256
 243 617 237 622 237 630 c 256
 237 662 269 690 313 716 c 257
 308 729 l 257
EndSplineSet
PickledDataWithLists: "(dp1
S'com.typemytype.robofont.layerData'
p2
(dp3
S'Back'
p4
(dp5
S'name'
p6
S'uni0123'
p7
sS'lib'
p8
(dp9
sS'unicodes'
p10
(lp11
sS'width'
p12
I538
sS'contours'
p13
(lp14
sS'components'
p15
(lp16
sS'anchors'
p17
(lp18
sss."
EndChar
StartChar: Hbar
Encoding: 42 294 42
GlifName: H_bar
Width: 677
VWidth: 0
Flags: W
LayerCount: 2
Back
Fore
SplineSet
637 438 m 257
 40 438 l 257
 40 418 l 257
 637 418 l 257
 637 438 l 257
637 20 m 257
 387 20 l 256
 387 0 l 257
 637 0 l 257
 637 20 l 257
637 560 m 257
 387 560 l 257
 387 540 l 257
 637 540 l 257
 637 560 l 257
587 560 m 257
 437 560 l 257
 437 1 l 257
 587 1 l 257
 587 560 l 257
290 560 m 257
 40 560 l 257
 40 540 l 257
 290 540 l 257
 290 560 l 257
474 308 m 257
 194 308 l 257
 194 288 l 257
 474 288 l 257
 474 308 l 257
240 560 m 257
 90 560 l 257
 90 1 l 257
 240 1 l 257
 240 560 l 257
290 20 m 257
 40 20 l 256
 40 0 l 257
 290 0 l 257
 290 20 l 257
EndSplineSet
Validated: 5
PickledDataWithLists: "(dp1
S'com.typemytype.robofont.layerData'
p2
(dp3
S'Back'
p4
(dp5
S'name'
p6
S'Hbar'
p7
sS'lib'
p8
(dp9
sS'unicodes'
p10
(lp11
sS'width'
p12
I677
sS'contours'
p13
(lp14
sS'components'
p15
(lp16
sS'anchors'
p17
(lp18
sss."
EndChar
StartChar: hbar
Encoding: 927 295 927
GlifName: hbar
Width: 645
VWidth: 0
Flags: W
LayerCount: 2
Back
Fore
SplineSet
400 582 m 257
 40 582 l 257
 40 562 l 257
 400 562 l 257
 400 582 l 257
240 670 m 257
 40 670 l 257
 40 650 l 257
 240 650 l 257
 240 670 l 257
290 20 m 257
 40 20 l 257
 40 0 l 257
 290 0 l 257
 290 20 l 257
230 351 m 257
 252 404 290 431 331 431 c 256
 385 431 415 398 415 300 c 258
 415 14 l 257
 565 14 l 257
 565 278 l 258
 565 405 504 471 387 471 c 256
 308 471 241 429 230 387 c 257
 230 351 l 257
240 661 m 257
 90 661 l 257
 90 1 l 257
 240 1 l 257
 240 661 l 257
615 20 m 257
 365 20 l 257
 365 0 l 257
 615 0 l 257
 615 20 l 257
EndSplineSet
PickledDataWithLists: "(dp1
S'com.typemytype.robofont.layerData'
p2
(dp3
S'Back'
p4
(dp5
S'name'
p6
S'hbar'
p7
sS'lib'
p8
(dp9
sS'unicodes'
p10
(lp11
sS'width'
p12
I645
sS'contours'
p13
(lp14
sS'components'
p15
(lp16
sS'anchors'
p17
(lp18
sss."
EndChar
StartChar: imacron
Encoding: 940 299 940
GlifName: imacron
Width: 320
VWidth: 0
Flags: W
LayerCount: 2
Back
Fore
SplineSet
290 20 m 257
 40 20 l 257
 40 0 l 257
 290 0 l 257
 290 20 l 257
230 460 m 257
 50 460 l 257
 50 440 l 257
 230 440 l 257
 230 460 l 257
240 460 m 257
 240 460 90 460 90 460 c 257
 90 1 l 257
 240 1 l 257
 240 460 l 257
EndSplineSet
Refer: 961 175 N 1 0 0 1 -136 0 2
PickledDataWithLists: "(dp1
S'com.typemytype.robofont.layerData'
p2
(dp3
S'Back'
p4
(dp5
S'name'
p6
S'imacron'
p7
sS'lib'
p8
(dp9
sS'unicodes'
p10
(lp11
sS'width'
p12
I320
sS'contours'
p13
(lp14
sS'components'
p15
(lp16
sS'anchors'
p17
(lp18
sss."
EndChar
StartChar: iogonek
Encoding: 943 303 943
GlifName: iogonek
Width: 320
VWidth: 0
Flags: W
LayerCount: 2
Back
Fore
SplineSet
249 592 m 256
 249 641 210 681 162 681 c 256
 113 681 73 641 73 592 c 256
 73 544 113 505 162 505 c 256
 210 505 249 544 249 592 c 256
290 20 m 257
 40 20 l 257
 40 0 l 257
 290 0 l 257
 290 20 l 257
240 460 m 257
 240 460 90 460 90 460 c 257
 90 1 l 257
 240 1 l 257
 240 460 l 257
230 460 m 257
 50 460 l 257
 50 440 l 257
 230 440 l 257
 230 460 l 257
EndSplineSet
Refer: 978 731 N 1 0 0 1 -110 0 2
Validated: 5
PickledDataWithLists: "(dp1
S'com.typemytype.robofont.layerData'
p2
(dp3
S'Back'
p4
(dp5
S'name'
p6
S'iogonek'
p7
sS'lib'
p8
(dp9
sS'unicodes'
p10
(lp11
sS'width'
p12
I320
sS'contours'
p13
(lp14
sS'components'
p15
(lp16
sS'anchors'
p17
(lp18
sss."
EndChar
StartChar: dotlessi
Encoding: 183 305 183
GlifName: dotlessi
Width: 330
VWidth: 0
Flags: W
LayerCount: 2
Back
Fore
SplineSet
230 460 m 257
 50 460 l 257
 50 440 l 257
 230 440 l 257
 230 460 l 257
240 460 m 257
 240 460 90 460 90 460 c 257
 90 1 l 257
 240 1 l 257
 240 460 l 257
290 20 m 257
 40 20 l 257
 40 0 l 257
 290 0 l 257
 290 20 l 257
EndSplineSet
Validated: 5
PickledDataWithLists: "(dp1
S'com.typemytype.robofont.layerData'
p2
(dp3
S'Back'
p4
(dp5
S'name'
p6
S'dotlessi'
p7
sS'lib'
p8
(dp9
sS'unicodes'
p10
(lp11
sS'width'
p12
I330
sS'contours'
p13
(lp14
sS'components'
p15
(lp16
sS'anchors'
p17
(lp18
sss."
EndChar
StartChar: IJ
Encoding: 44 306 44
GlifName: I_J_
Width: 842
VWidth: 0
Flags: W
LayerCount: 2
Back
Fore
SplineSet
552 540 m 257
 802 540 l 257
 802 560 l 257
 552 560 l 257
 552 540 l 257
752 206 m 257
 752 559 l 257
 602 559 l 257
 602 197 l 257
 602 102 578 23 483 23 c 256
 439 23 397 45 397 70 c 256
 397 89 418 87 442 95 c 256
 478 106 494 131 494 160 c 256
 494 201 465 232 425 232 c 256
 375 232 342 188 342 140 c 256
 342 46 415 0 516 0 c 256
 678 0 752 80 752 206 c 257
290 20 m 257
 40 20 l 256
 40 0 l 257
 290 0 l 257
 290 20 l 257
240 560 m 257
 90 560 l 257
 90 1 l 257
 240 1 l 257
 240 560 l 257
290 560 m 257
 40 560 l 257
 40 540 l 257
 290 540 l 257
 290 560 l 257
EndSplineSet
PickledDataWithLists: "(dp1
S'com.typemytype.robofont.layerData'
p2
(dp3
S'Back'
p4
(dp5
S'name'
p6
S'IJ'
p7
sS'lib'
p8
(dp9
sS'unicodes'
p10
(lp11
sS'width'
p12
I842
sS'contours'
p13
(lp14
sS'components'
p15
(lp16
sS'anchors'
p17
(lp18
sss."
EndChar
StartChar: ij
Encoding: 939 307 939
GlifName: ij
Width: 661
VWidth: 0
Flags: W
LayerCount: 2
Back
Fore
SplineSet
590 -44 m 257
 590 460 l 257
 590 460 440 460 440 460 c 257
 440 -75 l 257
 440 -210 424 -229 371 -229 c 256
 347 -229 290 -215 290 -180 c 256
 290 -154 312 -152 338 -148 c 256
 366 -144 393 -125 393 -85 c 257
 393 -38 359 -17 323 -17 c 256
 282 -17 240 -50 240 -110 c 256
 240 -184 283 -250 394 -250 c 256
 546 -250 590 -160 590 -44 c 257
580 460 m 257
 390 460 l 257
 390 440 l 257
 580 440 l 257
 580 460 l 257
601 592 m 256
 601 641 562 681 514 681 c 256
 465 681 425 641 425 592 c 256
 425 544 465 505 514 505 c 256
 562 505 601 544 601 592 c 256
290 20 m 257
 40 20 l 257
 40 0 l 257
 290 0 l 257
 290 20 l 257
240 460 m 257
 240 460 90 460 90 460 c 257
 90 1 l 257
 240 1 l 257
 240 460 l 257
230 460 m 257
 50 460 l 257
 50 440 l 257
 230 440 l 257
 230 460 l 257
249 592 m 256
 249 641 210 681 162 681 c 256
 113 681 73 641 73 592 c 256
 73 544 113 505 162 505 c 256
 210 505 249 544 249 592 c 256
EndSplineSet
Validated: 5
PickledDataWithLists: "(dp1
S'com.typemytype.robofont.layerData'
p2
(dp3
S'Back'
p4
(dp5
S'name'
p6
S'ij'
p7
sS'lib'
p8
(dp9
sS'unicodes'
p10
(lp11
sS'width'
p12
I661
sS'contours'
p13
(lp14
sS'components'
p15
(lp16
sS'anchors'
p17
(lp18
sss."
EndChar
StartChar: jcircumflex
Encoding: 949 309 949
GlifName: jcircumflex
Width: 313
VWidth: 0
Flags: W
LayerCount: 2
Back
Fore
SplineSet
90 0 m 257
 90 -128 81 -200 42 -200 c 257
 15 -200 4 -176 4 -131 c 257
 4 -88 -19 -71 -50 -71 c 256
 -77 -71 -102 -89 -102 -122 c 256
 -102 -169 -68 -220 42 -220 c 256
 181 -220 240 -142 240 0 c 257
 240 0 240 460 240 460 c 257
 40 460 l 257
 40 440 l 257
 90 440 l 257
 90 0 l 257
EndSplineSet
Refer: 164 710 N 1 0 0 1 -141 0 2
PickledDataWithLists: "(dp1
S'com.typemytype.robofont.layerData'
p2
(dp3
S'Back'
p4
(dp5
S'name'
p6
S'jcircumflex'
p7
sS'lib'
p8
(dp9
sS'unicodes'
p10
(lp11
sS'width'
p12
I313
sS'contours'
p13
(lp14
sS'components'
p15
(lp16
sS'anchors'
p17
(lp18
sss."
EndChar
StartChar: lcaron
Encoding: 896 318 896
GlifName: lcaron
Width: 408
VWidth: 0
Flags: W
LayerCount: 2
Back
Fore
SplineSet
240 670 m 257
 90 670 l 257
 90 1 l 257
 240 1 l 257
 240 670 l 257
290 20 m 257
 40 20 l 257
 40 0 l 257
 290 0 l 257
 290 20 l 257
230 670 m 257
 40 670 l 257
 40 650 l 257
 230 650 l 257
 230 670 l 257
EndSplineSet
Refer: 959 8217 N 0.74 0 0 0.74 273 173 2
PickledDataWithLists: "(dp1
S'com.typemytype.robofont.layerData'
p2
(dp3
S'Back'
p4
(dp5
S'name'
p6
S'lcaron'
p7
sS'lib'
p8
(dp9
sS'unicodes'
p10
(lp11
sS'width'
p12
I408
sS'contours'
p13
(lp14
sS'components'
p15
(lp16
sS'anchors'
p17
(lp18
sss."
EndChar
StartChar: Ldot
Encoding: 60 319 60
GlifName: L_dot
Width: 530
VWidth: 0
Flags: W
LayerCount: 2
Back
Fore
SplineSet
376 240 m 256
 416 240 448 273 448 312 c 256
 448 351 416 384 376 384 c 256
 337 384 304 351 304 312 c 256
 304 273 337 240 376 240 c 256
300 560 m 257
 40 560 l 257
 40 540 l 257
 300 540 l 257
 300 560 l 257
510 20 m 257
 40 20 l 257
 40 0 l 257
 510 0 l 257
 510 20 l 257
240 560 m 257
 90 560 l 257
 90 1 l 257
 240 1 l 257
 240 560 l 257
510 190 m 257
 510 20 l 257
 340 20 l 257
 417 20 490 34 490 190 c 257
 510 190 l 257
EndSplineSet
PickledDataWithLists: "(dp1
S'com.typemytype.robofont.layerData'
p2
(dp3
S'Back'
p4
(dp5
S'name'
p6
S'Ldot'
p7
sS'lib'
p8
(dp9
sS'unicodes'
p10
(lp11
sS'width'
p12
I530
sS'contours'
p13
(lp14
sS'components'
p15
(lp16
sS'anchors'
p17
(lp18
sss."
EndChar
StartChar: ldot
Encoding: 954 320 954
GlifName: ldot
Width: 422
VWidth: 0
Flags: W
LayerCount: 2
Back
Fore
SplineSet
376 240 m 256
 416 240 448 273 448 312 c 256
 448 351 416 384 376 384 c 256
 337 384 304 351 304 312 c 256
 304 273 337 240 376 240 c 256
230 670 m 257
 40 670 l 257
 40 650 l 257
 230 650 l 257
 230 670 l 257
240 670 m 257
 90 670 l 257
 90 1 l 257
 240 1 l 257
 240 670 l 257
290 20 m 257
 40 20 l 257
 40 0 l 257
 290 0 l 257
 290 20 l 257
EndSplineSet
Validated: 5
PickledDataWithLists: "(dp1
S'com.typemytype.robofont.layerData'
p2
(dp3
S'Back'
p4
(dp5
S'name'
p6
S'ldot'
p7
sS'lib'
p8
(dp9
sS'unicodes'
p10
(lp11
sS'width'
p12
I422
sS'contours'
p13
(lp14
sS'components'
p15
(lp16
sS'anchors'
p17
(lp18
sss."
EndChar
StartChar: Lslash
Encoding: 61 321 61
GlifName: L_slash
Width: 530
VWidth: 0
Flags: W
LayerCount: 2
Back
Fore
SplineSet
380 470 m 257
 20 280 l 257
 20 255 l 257
 380 445 l 257
 380 470 l 257
510 190 m 257
 510 20 l 257
 340 20 l 257
 417 20 490 34 490 190 c 257
 510 190 l 257
300 560 m 257
 40 560 l 257
 40 540 l 257
 300 540 l 257
 300 560 l 257
510 20 m 257
 40 20 l 257
 40 0 l 257
 510 0 l 257
 510 20 l 257
240 560 m 257
 90 560 l 257
 90 1 l 257
 240 1 l 257
 240 560 l 257
EndSplineSet
Validated: 5
PickledDataWithLists: "(dp1
S'com.typemytype.robofont.layerData'
p2
(dp3
S'Back'
p4
(dp5
S'name'
p6
S'Lslash'
p7
sS'lib'
p8
(dp9
sS'unicodes'
p10
(lp11
sS'width'
p12
I530
sS'contours'
p13
(lp14
sS'components'
p15
(lp16
sS'anchors'
p17
(lp18
sss."
EndChar
StartChar: lslash
Encoding: 959 322 959
GlifName: lslash
Width: 360
VWidth: 0
Flags: W
LayerCount: 2
Back
Fore
SplineSet
330 470 m 257
 40 280 l 257
 40 255 l 257
 330 445 l 257
 330 470 l 257
260 670 m 257
 110 670 l 257
 110 1 l 257
 260 1 l 257
 260 670 l 257
250 670 m 257
 60 670 l 257
 60 650 l 257
 250 650 l 257
 250 670 l 257
310 20 m 257
 60 20 l 257
 60 0 l 257
 310 0 l 257
 310 20 l 257
EndSplineSet
Validated: 5
PickledDataWithLists: "(dp1
S'com.typemytype.robofont.layerData'
p2
(dp3
S'Back'
p4
(dp5
S'name'
p6
S'lslash'
p7
sS'lib'
p8
(dp9
sS'unicodes'
p10
(lp11
sS'width'
p12
I360
sS'contours'
p13
(lp14
sS'components'
p15
(lp16
sS'anchors'
p17
(lp18
sss."
EndChar
StartChar: Eng
Encoding: 32 330 32
GlifName: E_ng
Width: 638
VWidth: 0
Flags: W
LayerCount: 2
Back
Fore
SplineSet
410 -252 m 256
 495 -252 528 -179 528 -71 c 257
 528 540 l 257
 598 540 l 257
 598 560 l 257
 428 560 l 257
 428 540 l 257
 508 540 l 257
 508 227 l 257
 227 560 l 257
 40 560 l 257
 40 540 l 257
 56 540 77 528 100 496 c 257
 100 20 l 257
 40 20 l 256
 40 0 l 257
 200 0 l 257
 200 20 l 257
 120 20 l 257
 120 471 l 257
 490 12 l 257
 502 -3 508 -17 508 -42 c 257
 508 -70 l 257
 508 -113 502 -145 487 -145 c 256
 468 -145 455 -98 403 -98 c 257
 355 -98 330 -128 330 -173 c 256
 330 -221 368 -252 410 -252 c 256
EndSplineSet
Validated: 9
PickledDataWithLists: "(dp1
S'com.typemytype.robofont.layerData'
p2
(dp3
S'Back'
p4
(dp5
S'name'
p6
S'Eng'
p7
sS'lib'
p8
(dp9
sS'unicodes'
p10
(lp11
sS'width'
p12
I638
sS'contours'
p13
(lp14
sS'components'
p15
(lp16
sS'anchors'
p17
(lp18
sss."
EndChar
StartChar: eng
Encoding: 889 331 889
GlifName: eng
Width: 625
VWidth: 0
Flags: W
LayerCount: 2
Back
Fore
SplineSet
415 0 m 257
 415 -144 385 -220 296 -220 c 257
 296 -240 l 257
 460 -240 565 -184 565 0 c 257
 565 278 l 258
 565 405 504 471 387 471 c 256
 308 471 241 428 230 387 c 257
 230 351 l 257
 252 404 290 431 331 431 c 256
 385 431 415 398 415 300 c 258
 415 0 l 257
240 460 m 257
 40 460 l 257
 40 440 l 257
 240 440 l 257
 240 460 l 257
290 20 m 257
 40 20 l 257
 40 0 l 257
 290 0 l 257
 290 20 l 257
240 451 m 257
 90 451 l 257
 90 1 l 257
 240 1 l 257
 240 451 l 257
EndSplineSet
Validated: 5
PickledDataWithLists: "(dp1
S'com.typemytype.robofont.layerData'
p2
(dp3
S'Back'
p4
(dp5
S'name'
p6
S'eng'
p7
sS'lib'
p8
(dp9
sS'unicodes'
p10
(lp11
sS'width'
p12
I625
sS'contours'
p13
(lp14
sS'components'
p15
(lp16
sS'anchors'
p17
(lp18
sss."
EndChar
StartChar: OE
Encoding: 62 338 62
GlifName: O_E_
Width: 820
VWidth: 0
Flags: W
LayerCount: 2
Back
Fore
SplineSet
321 20 m 257
 238 20 191 105 191 271 c 257
 190 449 241 540 321 540 c 257
 370 540 l 257
 370 20 l 257
 321 20 l 257
750 190 m 257
 750 54 677 20 600 20 c 257
 770 20 l 257
 770 190 l 257
 750 190 l 257
321 0 m 258
 770 0 l 257
 770 20 l 257
 520 20 l 257
 520 280 l 257
 540 280 l 257
 640 280 650 262 650 190 c 257
 670 190 l 257
 670 390 l 257
 650 390 l 257
 650 322 640 300 540 300 c 257
 520 300 l 257
 520 540 l 257
 590 540 l 257
 687 540 740 516 740 390 c 257
 760 390 l 257
 760 560 l 257
 321 560 l 257
 147 560 29 454 30 271 c 257
 30 82 154 0 321 0 c 258
EndSplineSet
PickledDataWithLists: "(dp1
S'com.typemytype.robofont.layerData'
p2
(dp3
S'Back'
p4
(dp5
S'name'
p6
S'OE'
p7
sS'lib'
p8
(dp9
sS'unicodes'
p10
(lp11
sS'width'
p12
I820
sS'contours'
p13
(lp14
sS'components'
p15
(lp16
sS'anchors'
p17
(lp18
sss."
EndChar
StartChar: oe
Encoding: 977 339 977
GlifName: oe
Width: 874
VWidth: 0
Flags: W
LayerCount: 2
Back
Fore
SplineSet
673 24 m 257
 600 24 535 69 535 231 c 256
 535 323 552 450 616 450 c 257
 679 450 698 322 698 220 c 257
 698 220 491 220 491 220 c 257
 491 200 l 257
 841 200 l 257
 841 405 729 470 624 470 c 257
 509 470 386 406 386 232 c 256
 386 33 524 -10 646 -10 c 257
 717 -10 798 25 828 75 c 257
 814 85 l 257
 785 42 709 24 673 24 c 257
281 -10 m 257
 396 -10 534 64 534 228 c 256
 534 398 396 470 281 470 c 257
 166 470 30 398 30 228 c 256
 30 64 166 -10 281 -10 c 257
281 10 m 257
 208 10 183 75 183 228 c 256
 183 385 208 450 281 450 c 257
 354 450 381 385 381 228 c 257
 381 75 354 10 281 10 c 257
EndSplineSet
PickledDataWithLists: "(dp1
S'com.typemytype.robofont.layerData'
p2
(dp3
S'Back'
p4
(dp5
S'name'
p6
S'oe'
p7
sS'lib'
p8
(dp9
sS'unicodes'
p10
(lp11
sS'width'
p12
I874
sS'contours'
p13
(lp14
sS'components'
p15
(lp16
sS'anchors'
p17
(lp18
sss."
EndChar
StartChar: Tbar
Encoding: 90 358 90
GlifName: T_bar
Width: 549
VWidth: 0
Flags: W
LayerCount: 2
Back
Fore
SplineSet
419 20 m 257
 349 20 l 257
 349 270 l 257
 469 270 l 257
 469 290 l 257
 349 290 l 257
 349 540 l 257
 466 540 519 516 519 390 c 257
 539 390 l 257
 539 560 l 257
 10 560 l 257
 10 390 l 257
 30 390 l 257
 30 516 83 540 199 540 c 257
 199 290 l 257
 79 290 l 256
 79 270 l 257
 199 270 l 257
 199 20 l 257
 129 20 l 256
 129 0 l 257
 419 0 l 257
 419 20 l 257
EndSplineSet
PickledDataWithLists: "(dp1
S'com.typemytype.robofont.layerData'
p2
(dp3
S'Back'
p4
(dp5
S'name'
p6
S'Tbar'
p7
sS'lib'
p8
(dp9
sS'unicodes'
p10
(lp11
sS'width'
p12
I549
sS'contours'
p13
(lp14
sS'components'
p15
(lp16
sS'anchors'
p17
(lp18
sss."
EndChar
StartChar: tbar
Encoding: 1033 359 1033
GlifName: tbar
Width: 381
VWidth: 0
Flags: W
LayerCount: 2
Back
Fore
SplineSet
10 270 m 257
 350 270 l 257
 350 290 l 257
 10 290 l 257
 10 270 l 257
10 440 m 257
 350 440 l 257
 350 460 l 257
 10 460 l 257
 10 440 l 257
361 44 m 257
 349 36 329 34 308 34 c 256
 234 34 234 118 234 196 c 257
 234 603 l 257
 220 603 l 257
 200 518 144 470 84 460 c 257
 84 173 l 258
 84 27 154 -10 256 -10 c 256
 303 -10 334 5 361 24 c 257
 361 44 l 257
EndSplineSet
PickledDataWithLists: "(dp1
S'com.typemytype.robofont.layerData'
p2
(dp3
S'Back'
p4
(dp5
S'name'
p6
S'tbar'
p7
sS'lib'
p8
(dp9
sS'unicodes'
p10
(lp11
sS'width'
p12
I381
sS'contours'
p13
(lp14
sS'components'
p15
(lp16
sS'anchors'
p17
(lp18
sss."
EndChar
StartChar: florin
Encoding: 910 402 910
GlifName: florin
Width: 580
VWidth: 0
Flags: W
LayerCount: 2
Back
Fore
SplineSet
88 290 m 257
 498 290 l 257
 498 310 l 257
 88 310 l 257
 88 290 l 257
310 0 m 258
 391 460 l 258
 414 588 440 649 480 660 c 257
 509 667 503 622 503 577 c 257
 503 519 544 500 580 500 c 256
 618 500 653 525 643 580 c 256
 632 638 573 680 488 680 c 256
 349 680 266 602 241 460 c 258
 160 0 l 258
 137 -128 111 -189 71 -200 c 257
 42 -207 48 -162 48 -117 c 257
 48 -63 22 -40 -17 -40 c 256
 -55 -40 -97 -69 -88 -120 c 256
 -78 -179 -22 -220 63 -220 c 256
 202 -220 285 -142 310 0 c 258
EndSplineSet
PickledDataWithLists: "(dp1
S'com.typemytype.robofont.guides'
p2
(lp3
sS'com.typemytype.robofont.layerData'
p4
(dp5
S'Back'
p6
(dp7
S'name'
p8
S'florin'
p9
sS'lib'
p10
(dp11
sS'unicodes'
p12
(lp13
sS'width'
p14
I580
sS'contours'
p15
(lp16
sS'components'
p17
(lp18
sS'anchors'
p19
(lp20
sss."
EndChar
StartChar: circumflex
Encoding: 164 710 164
GlifName: circumflex
Width: 594
VWidth: 0
Flags: W
LayerCount: 2
Back
Fore
SplineSet
209 514 m 257
 297 554 l 257
 385 514 l 257
 394 523 l 257
 306 651 l 257
 287 651 l 257
 200 523 l 257
 209 514 l 257
EndSplineSet
PickledDataWithLists: "(dp1
S'com.typemytype.robofont.layerData'
p2
(dp3
S'Back'
p4
(dp5
S'name'
p6
S'circumflex'
p7
sS'lib'
p8
(dp9
sS'unicodes'
p10
(lp11
sS'width'
p12
I594
sS'contours'
p13
(lp14
sS'components'
p15
(lp16
sS'anchors'
p17
(lp18
sss."
EndChar
StartChar: caron
Encoding: 156 711 156
GlifName: caron
Width: 594
VWidth: 0
Flags: W
LayerCount: 2
Back
Fore
SplineSet
209 651 m 257
 200 642 l 257
 287 514 l 257
 306 514 l 257
 394 642 l 257
 385 651 l 257
 297 611 l 257
 209 651 l 257
EndSplineSet
PickledDataWithLists: "(dp1
S'com.typemytype.robofont.layerData'
p2
(dp3
S'Back'
p4
(dp5
S'name'
p6
S'caron'
p7
sS'lib'
p8
(dp9
sS'unicodes'
p10
(lp11
sS'width'
p12
I594
sS'contours'
p13
(lp14
sS'components'
p15
(lp16
sS'anchors'
p17
(lp18
sss."
EndChar
StartChar: breve
Encoding: 150 728 150
GlifName: breve
Width: 584
VWidth: 0
Flags: W
LayerCount: 2
Back
Fore
SplineSet
293 596 m 257
 236 596 220 618 220 645 c 257
 200 645 l 257
 200 571 224 520 293 520 c 257
 364 520 384 571 384 645 c 257
 364 645 l 257
 364 618 350 596 293 596 c 257
EndSplineSet
PickledDataWithLists: "(dp1
S'com.typemytype.robofont.layerData'
p2
(dp3
S'Back'
p4
(dp5
S'name'
p6
S'breve'
p7
sS'lib'
p8
(dp9
sS'unicodes'
p10
(lp11
sS'width'
p12
I584
sS'contours'
p13
(lp14
sS'components'
p15
(lp16
sS'anchors'
p17
(lp18
sss."
EndChar
StartChar: dotaccent
Encoding: 181 729 181
GlifName: dotaccent
Width: 525
VWidth: 0
Flags: W
LayerCount: 2
Back
Fore
SplineSet
325 582 m 256
 325 617 297 645 264 645 c 256
 229 645 200 617 200 582 c 256
 200 548 229 521 264 521 c 256
 297 521 325 548 325 582 c 256
EndSplineSet
Validated: 9
PickledDataWithLists: "(dp1
S'com.typemytype.robofont.layerData'
p2
(dp3
S'Back'
p4
(dp5
S'name'
p6
S'dotaccent'
p7
sS'lib'
p8
(dp9
sS'unicodes'
p10
(lp11
sS'width'
p12
I525
sS'contours'
p13
(lp14
sS'components'
p15
(lp16
sS'anchors'
p17
(lp18
sss."
EndChar
StartChar: ring
Encoding: 1018 730 1018
GlifName: ring
Width: 568
VWidth: 0
Flags: W
LayerCount: 2
Back
Fore
SplineSet
283 535 m 257
 259 535 240 558 240 582 c 257
 240 607 257 627 283 627 c 257
 309 627 327 607 327 582 c 257
 327 558 307 535 283 535 c 257
283 498 m 257
 329 498 368 536 368 582 c 257
 368 628 329 667 283 667 c 257
 237 667 200 628 200 582 c 257
 200 536 237 498 283 498 c 257
EndSplineSet
Validated: 9
PickledDataWithLists: "(dp1
S'com.typemytype.robofont.layerData'
p2
(dp3
S'Back'
p4
(dp5
S'name'
p6
S'ring'
p7
sS'lib'
p8
(dp9
sS'unicodes'
p10
(lp11
sS'width'
p12
I568
sS'contours'
p13
(lp14
sS'components'
p15
(lp16
sS'anchors'
p17
(lp18
sss."
EndChar
StartChar: ogonek
Encoding: 978 731 978
GlifName: ogonek
Width: 548
VWidth: 0
Flags: W
LayerCount: 2
Back
Fore
SplineSet
288 11 m 257
 149 -114 202 -177 266 -177 c 256
 298 -177 330 -154 348 -131 c 257
 338 -119 l 257
 325 -131 302 -135 282 -121 c 256
 259 -104 252 -69 303 1 c 256
 303 1 288 11 288 11 c 257
EndSplineSet
PickledDataWithLists: "(dp1
S'com.typemytype.robofont.layerData'
p2
(dp3
S'Back'
p4
(dp5
S'name'
p6
S'ogonek'
p7
sS'lib'
p8
(dp9
sS'unicodes'
p10
(lp11
sS'width'
p12
I548
sS'contours'
p13
(lp14
sS'components'
p15
(lp16
sS'anchors'
p17
(lp18
sss."
EndChar
StartChar: tilde
Encoding: 1039 732 1039
GlifName: tilde
Width: 598
VWidth: 0
Flags: W
LayerCount: 2
Back
Fore
SplineSet
220 537 m 257
 220 551 226 564 244 564 c 256
 274 564 292 532 330 532 c 256
 368 532 398 556 398 628 c 257
 378 628 l 257
 378 614 372 602 352 602 c 256
 322 602 304 633 267 633 c 256
 230 633 200 611 200 537 c 257
 220 537 l 257
EndSplineSet
PickledDataWithLists: "(dp1
S'com.typemytype.robofont.layerData'
p2
(dp3
S'Back'
p4
(dp5
S'name'
p6
S'tilde'
p7
sS'lib'
p8
(dp9
sS'unicodes'
p10
(lp11
sS'width'
p12
I598
sS'contours'
p13
(lp14
sS'components'
p15
(lp16
sS'anchors'
p17
(lp18
sss."
EndChar
StartChar: hungarumlaut
Encoding: 929 733 929
GlifName: hungarumlaut
Width: 661
VWidth: 0
Flags: W
LayerCount: 2
Back
Fore
SplineSet
350 500 m 257
 366 494 l 257
 387 552 440 543 457 588 c 256
 471 625 451 659 422 664 c 256
 398 671 369 653 359 628 c 256
 339 576 370 556 350 500 c 257
200 500 m 257
 216 494 l 257
 237 552 290 543 307 588 c 256
 321 625 301 659 272 664 c 256
 248 671 219 653 209 628 c 256
 189 576 220 556 200 500 c 257
EndSplineSet
Validated: 41
PickledDataWithLists: "(dp1
S'com.typemytype.robofont.layerData'
p2
(dp3
S'Back'
p4
(dp5
S'name'
p6
S'hungarumlaut'
p7
sS'lib'
p8
(dp9
sS'unicodes'
p10
(lp11
sS'width'
p12
I661
sS'contours'
p13
(lp14
sS'components'
p15
(lp16
sS'anchors'
p17
(lp18
sss."
EndChar
StartChar: pi
Encoding: 947 960 947
GlifName: pi
Width: 646
VWidth: 0
Flags: W
LayerCount: 2
Back
Fore
SplineSet
556 460 m 257
 406 460 l 257
 406 1 l 257
 556 1 l 257
 556 460 l 257
626 460 m 257
 226 460 l 257
 226 440 l 257
 626 440 l 257
 626 460 l 257
290 460 m 257
 20 460 l 257
 20 440 l 257
 290 440 l 257
 290 460 l 257
240 460 m 257
 90 460 l 257
 90 1 l 257
 240 1 l 257
 240 460 l 257
EndSplineSet
EndChar
StartChar: dvCandrabindu
Encoding: 244 2305 244
GlifName: dvC_andrabindu
Width: 0
VWidth: 0
Flags: W
AnchorPoint: "abvm_Anusvara" -80 560 mark 0
LayerCount: 2
Back
Fore
SplineSet
-82 853 m 256
 -82 815 -112 784 -150 784 c 256
 -188 784 -219 815 -219 853 c 256
 -219 891 -188 921 -150 921 c 256
 -112 921 -82 891 -82 853 c 256
19 800 m 257
 21 798 l 257
 24 691 -48 631 -150 631 c 256
 -252 631 -323 692 -320 798 c 257
 -318 800 l 257
 -308 802 l 257
 -306 801 l 257
 -295 755 -238 724 -150 724 c 256
 -61 724 -4 755 7 801 c 257
 9 802 l 257
 19 800 l 257
EndSplineSet
EndChar
StartChar: dvAnusvara
Encoding: 178 2306 178
GlifName: dvA_nusvara
Width: 0
VWidth: 0
Flags: W
AnchorPoint: "abvm.bindu" -80 560 mark 0
LayerCount: 2
Back
Fore
SplineSet
-82 691 m 256
 -82 653 -112 623 -150 623 c 256
 -188 623 -218 653 -218 691 c 256
 -218 729 -188 760 -150 760 c 256
 -112 760 -82 729 -82 691 c 256
EndSplineSet
EndChar
StartChar: dvVisarga
Encoding: 749 2307 749
GlifName: dvV_isarga
Width: 217
VWidth: 0
Flags: W
LayerCount: 2
Back
Fore
SplineSet
177 446 m 256
 177 408 146 378 108 378 c 256
 70 378 40 408 40 446 c 256
 40 484 70 515 108 515 c 256
 146 515 177 484 177 446 c 256
177 146 m 256
 177 108 146 78 108 78 c 256
 70 78 40 108 40 146 c 256
 40 184 70 215 108 215 c 256
 146 215 177 184 177 146 c 256
EndSplineSet
EndChar
StartChar: dvA
Encoding: 185 2309 185
GlifName: dvA_
Width: 709
VWidth: 0
Flags: W
LayerCount: 2
Back
Fore
SplineSet
263 353 m 257
 354 348 415 300 415 213 c 256
 415 99 317 47 186 47 c 256
 64 47 9 100 9 189 c 256
 9 240 41 278 89 278 c 256
 134 278 160 247 160 213 c 256
 160 134 65 155 65 116 c 256
 65 86 110 71 147 71 c 256
 228 71 270 119 270 213 c 256
 270 287 242 340 140 340 c 258
 125 340 l 257
 125 360 l 257
 140 360 l 258
 210 360 245 397 245 463 c 256
 245 513 219 540 172 540 c 256
 148 540 121 528 107 517 c 257
 99 531 l 257
 120 547 164 572 242 572 c 256
 334 572 381 526 381 471 c 256
 381 402 325 370 263 357 c 257
 263 353 l 257
432 560 m 257
 729 560 l 257
 729 540 l 257
 432 540 l 257
 432 560 l 257
286 237 m 257
 561 237 l 257
 561 217 l 257
 286 217 l 257
 286 237 l 257
489 550 m 257
 629 550 l 257
 629 0 l 257
 489 0 l 257
 489 550 l 257
EndSplineSet
EndChar
StartChar: dvI
Encoding: 352 2311 352
GlifName: dvI_
Width: 462
VWidth: 0
Flags: HW
AnchorPoint: "abvm_Anusvara" 362 560 basechar 0
LayerCount: 2
Back
Fore
SplineSet
111 182 m 5
 78 182 44 158 44 115 c 263
 44 50 107 18 166.513671875 11.7802734375 c 261
 166.513671875 11.7802734375 l 5
 180.837890625 41.275390625 190 71.603515625 190 99 c 263
 190 151 161 182 111 182 c 260
 111 182 l 5
91 -93 m 0
 117 -68 149 -26 166.513671875 11.7802734375 c 0
 148 18 l 257
 134 -13 100 -60 75 -80 c 257
 91 -93 l 0
362 424 m 1
 320 442 287.448242188 453 225 453 c 259
 120 453 44 408 44 335 c 259
 44 186 317 226 317 109 c 259
 317 58 272 27 213 27 c 259
 194 27 176 28 161 31 c 257
 159 12 l 257
 176 9 195 7 217 7 c 259
 327 7 425 61 425 162 c 259
 425 334 137 307 137 388 c 259
 137 409 161 433 225 433 c 259
 271 433 319 423 362 404 c 257
 362 424 l 1
362 415 m 1
 362 546 l 257
 222 546 l 257
 222 443 l 256
 268 443 319 434 362 415 c 1
482 560 m 257
 -20 560 l 257
 -20 540 l 257
 482 540 l 257
 482 560 l 257
EndSplineSet
EndChar
StartChar: dvII
Encoding: 328 2312 328
GlifName: dvI_I_
Width: 467
VWidth: 0
Flags: W
LayerCount: 2
Back
Fore
SplineSet
259 560 m 257
 259 564 l 257
 202 581 157 628 157 685 c 256
 157 754 211 801 280 801 c 256
 356 801 412 757 412 686 c 256
 412 676 410 668 410 668 c 257
 390 668 l 257
 390 668 391 673 391 679 c 256
 391 727 362 751 324 751 c 256
 287 751 256 723 256 674 c 256
 256 606 310 560 395 560 c 257
 259 560 l 257
EndSplineSet
Refer: 327 2311 N 1 0 0 1 0 0 2
EndChar
StartChar: dvU
Encoding: 846 2313 846
GlifName: dvU_
Width: 466
VWidth: 0
Flags: W
AnchorPoint: "abvm_Anusvara" 322 560 basechar 0
LayerCount: 2
Back
Fore
SplineSet
-20 560 m 257
 487 560 l 257
 487 540 l 257
 -20 540 l 257
 -20 560 l 257
269 330 m 257
 357 321 427 269 427 187 c 256
 427 67 326 7 191 7 c 256
 69 7 8 60 8 149 c 256
 8 200 40 238 88 238 c 256
 133 238 159 207 159 173 c 256
 159 94 64 115 64 76 c 256
 64 46 110 31 154 31 c 256
 237 31 283 88 284 186 c 256
 284 275 225 319 139 319 c 258
 123 319 l 257
 123 339 l 257
 139 339 l 258
 213 339 259 380 259 446 c 256
 259 500 222 540 139 540 c 257
 151 544 l 257
 187 548 221 548 255 548 c 256
 335 548 396 515 396 442 c 256
 396 371 332 343 269 334 c 257
 269 330 l 257
EndSplineSet
EndChar
StartChar: dvUU
Encoding: 847 2314 847
GlifName: dvU_U_
Width: 673
VWidth: 0
Flags: W
AnchorPoint: "abvm_Anusvara" 322 560 basechar 0
LayerCount: 2
Back
Fore
SplineSet
390 259 m 257
 408 300 446 337 512 337 c 256
 597 337 662 276 662 176 c 256
 662 75 600 17 508 17 c 256
 466 17 434 31 421 47 c 257
 429 58 l 257
 433 55 444 52 455 52 c 256
 508 52 526 108 526 176 c 256
 526 239 505 290 459 290 c 256
 432 290 411 270 404 245 c 257
 390 259 l 257
269 330 m 257
 357 321 427 269 427 187 c 256
 427 67 326 7 191 7 c 256
 69 7 8 60 8 149 c 256
 8 200 40 238 88 238 c 256
 133 238 159 207 159 173 c 256
 159 94 64 115 64 76 c 256
 64 46 110 31 154 31 c 256
 237 31 283 88 284 186 c 256
 284 275 225 319 139 319 c 258
 123 319 l 257
 123 339 l 257
 139 339 l 258
 213 339 259 380 259 446 c 256
 259 500 222 540 139 540 c 257
 151 544 l 257
 187 548 221 548 255 548 c 256
 335 548 396 515 396 442 c 256
 396 371 332 343 269 334 c 257
 269 330 l 257
-20 560 m 257
 693 560 l 257
 693 540 l 257
 -20 540 l 257
 -20 560 l 257
EndSplineSet
Validated: 5
EndChar
StartChar: dvVocalicR
Encoding: 862 2315 862
GlifName: dvV_ocalicR_
Width: 874
VWidth: 0
Flags: W
AnchorPoint: "abvm_Anusvara" 499 560 basechar 0
AnchorPoint: "abvm_Ekaar" 499 560 basechar 0
LayerCount: 2
Back
Fore
SplineSet
340 267 m 257
 288 369 246 452 152 452 c 256
 81 452 33 415 8 366 c 257
 23 355 l 257
 36 374 56 384 77 384 c 256
 140 384 186 270 240 178 c 257
 340 267 l 257
-20 560 m 257
 -20 540 l 257
 897 540 l 257
 897 560 l 257
 -20 560 l 257
437 284 m 257
 653 284 l 257
 653 304 l 257
 437 304 l 257
 437 284 l 257
88 52 m 257
 363 263 l 257
 363 289 l 257
 75 68 l 257
 88 52 l 257
710 284 m 257
 762 284 801 333 801 384 c 256
 801 437 754 467 694 467 c 256
 621 467 567 419 567 351 c 256
 567 300 596 267 628 237 c 257
 682 187 714 152 714 114 c 256
 714 77 687 60 658 60 c 256
 612 60 573 93 557 134 c 257
 539 124 l 257
 560 74 603 36 679 36 c 256
 771 36 834 88 834 163 c 256
 834 215 807 250 752 299 c 256
 702 344 675 368 675 396 c 256
 675 423 697 438 724 438 c 256
 760 438 779 415 779 384 c 256
 779 333 740 304 706 304 c 257
 710 284 l 257
359 0 m 257
 499 0 l 257
 499 560 l 257
 359 560 l 257
 359 0 l 257
EndSplineSet
EndChar
StartChar: dvvR
Encoding: 827 2315 827
GlifName: dvvR_
Width: 874
VWidth: 0
Flags: W
AnchorPoint: "abvm.bindu" 499 560 basechar 0
AnchorPoint: "abvm.e" 499 560 basechar 0
LayerCount: 2
Back
Fore
SplineSet
340 267 m 257
 288 369 246 452 152 452 c 256
 81 452 33 415 8 366 c 257
 23 355 l 257
 36 374 56 384 77 384 c 256
 140 384 186 270 240 178 c 257
 340 267 l 257
-20 560 m 257
 -20 540 l 257
 897 540 l 257
 897 560 l 257
 -20 560 l 257
437 294 m 257
 653 294 l 257
 653 314 l 257
 437 314 l 257
 437 294 l 257
88 52 m 257
 363 263 l 257
 363 289 l 257
 75 68 l 257
 88 52 l 257
359 0 m 257
 499 0 l 257
 499 560 l 257
 359 560 l 257
 359 0 l 257
738 437 m 256
 769 437 789 419 789 387 c 256
 789 326 720 317 686 317 c 257
 690 297 l 257
 742 297 811 320 811 387 c 256
 811 440 762 467 702 467 c 257
 621 467 567 428 567 361 c 256
 567 300 607 257 680 248 c 257
 680 242 l 257
 596 238 555 198 555 133 c 256
 555 55 617 6 704 6 c 256
 778 6 827 37 851 78 c 257
 838 86 l 257
 822 65 798 54 774 54 c 256
 723 54 693 87 693 145 c 256
 693 205 728 233 799 236 c 257
 799 256 l 257
 745 261 683 283 683 367 c 256
 683 404 699 437 738 437 c 256
EndSplineSet
EndChar
StartChar: dvvL
Encoding: 825 2316 825
GlifName: dvvL_
Width: 751
VWidth: 0
Flags: W
AnchorPoint: "abvm.bindu" 566 560 basechar 0
AnchorPoint: "abvm.e" 565 560 basechar 0
LayerCount: 2
Back
Fore
SplineSet
701 263 m 257
 701 79 490 63 490 -64 c 256
 490 -105 526 -139 576 -139 c 256
 589 -139 600 -134 600 -123 c 256
 600 -104 570 -87 570 -49 c 256
 570 -5 602 22 640 22 c 256
 680 22 711 -10 711 -49 c 256
 711 -119 648 -156 586 -156 c 256
 507 -156 452 -110 452 -28 c 256
 452 14 463 46 500 97 c 256
 540 152 556 199 556 291 c 256
 556 375 531 426 497 426 c 256
 442 426 439 285 439 237 c 258
 439 173 l 257
 309 173 l 257
 309 237 l 258
 309 285 306 426 251 426 c 256
 209 426 188 362 188 227 c 256
 188 100 215 64 264 64 c 256
 280 64 292 70 299 75 c 257
 309 61 l 257
 293 46 261 31 220 31 c 256
 89 31 44 131 44 240 c 256
 44 368 126 446 238 446 c 256
 309 446 351 418 374 376 c 257
 398 416 439 446 510 446 c 256
 615 446 701 369 701 263 c 257
426 554 m 257
 566 554 l 257
 566 436 l 257
 489 443 l 257
 426 419 l 257
 426 554 l 257
769 560 m 257
 769 540 l 257
 -20 540 l 257
 -20 560 l 257
 769 560 l 257
EndSplineSet
EndChar
StartChar: dvEcandra
Encoding: 296 2317 296
GlifName: dvE_candra
Width: 564
VWidth: 0
Flags: W
AnchorPoint: "abvm_Anusvara" 369 721 basechar 0
LayerCount: 2
Back
Fore
SplineSet
469 800 m 257
 473 692 402 631 299 631 c 256
 196 631 125 693 129 800 c 257
 142 803 l 257
 152 754 210 720 299 720 c 256
 395 720 446 758 456 803 c 257
 469 800 l 257
EndSplineSet
Refer: 295 2319 N 1 0 0 1 0 0 2
Validated: 37
EndChar
StartChar: dvE
Encoding: 295 2319 295
GlifName: dvE_
Width: 565
VWidth: 0
Flags: W
AnchorPoint: "abvm_Anusvara" 340 560 basechar 0
LayerCount: 2
Back
Fore
SplineSet
220 560 m 257
 220 250 l 258
 220 185 220 63 346 63 c 256
 391 63 411 80 411 96 c 256
 411 125 362 124 362 178 c 256
 362 214 391 246 435 246 c 256
 478 246 508 214 508 174 c 256
 508 87 414 40 320 40 c 256
 191 40 104 88 83 191 c 256
 75 231 75 273 75 322 c 258
 75 560 l 257
 220 560 l 257
276 336 m 257
 285 332 296 330 306 330 c 256
 360 330 364 377 364 467 c 257
 364 555 l 257
 509 555 l 257
 509 481 l 258
 509 362 496 295 375 295 c 256
 321 295 283 311 267 322 c 257
 276 336 l 257
-19 560 m 257
 585 560 l 257
 585 540 l 257
 -19 540 l 257
 -19 560 l 257
EndSplineSet
EndChar
StartChar: dvKA
Encoding: 391 2325 391
GlifName: dvK_A_
Width: 813
VWidth: 0
Flags: W
AnchorPoint: "blwm_Ukaar" 477 0 basechar 0
AnchorPoint: "blwm_Virama" 477 0 basechar 0
AnchorPoint: "abvm_Ekaar" 478 560 basechar 0
AnchorPoint: "abvm_Anusvara" 478 560 basechar 0
LayerCount: 2
Back
Fore
SplineSet
266 124 m 257
 307 125 331 157 337 203 c 257
 349 204 l 257
 349 131 302 69 206 69 c 256
 93 69 35 156 35 264 c 256
 35 372 100 454 210 454 c 256
 244 454 279 444 300 425 c 257
 295 410 l 257
 289 413 281 414 273 414 c 256
 209 413 180 353 180 264 c 256
 180 183 211 124 266 124 c 257
-20 560 m 257
 833 560 l 257
 833 540 l 257
 -20 540 l 257
 -20 560 l 257
337 550 m 257
 477 550 l 257
 477 0 l 257
 337 0 l 257
 337 550 l 257
548 405 m 257
 509 404 483 372 477 326 c 257
 464 325 l 257
 464 398 511 460 607 460 c 256
 716 460 778 371 778 263 c 256
 778 155 720 75 611 75 c 256
 569 75 534 85 513 104 c 257
 518 119 l 257
 524 116 534 115 542 115 c 256
 611 116 633 191 633 265 c 256
 633 343 603 405 548 405 c 257
EndSplineSet
Validated: 5
EndChar
StartChar: dvKHA
Encoding: 394 2326 394
GlifName: dvK_H_A_
Width: 771
VWidth: 0
Flags: HW
LayerCount: 2
Back
Fore
SplineSet
137 290 m 1
 14 290 l 1
 14 270 l 1
 137 270 l 1
 137 290 l 1
124 283 m 257
 214 283 306 333.894506272 306 424 c 259
 306 500 259 553 151 553 c 256
 74 540 l 257
 139 540 173 487 173 430 c 259
 173 325 102 290 14 290 c 257
 124 283 l 257
14 270 m 1
 91 246 82 25 319 25 c 259
 496 25 608 119 608 287 c 259
 608 383 571 441 461 441 c 259
 382 441 321 381 321 305 c 259
 321 216 382 170 451 170 c 259
 483 170 526 182 543 202 c 257
 538 213 l 257
 531 211 525 210 518 210 c 259
 473 210 448 256 448 308 c 259
 448 363 473 404 518 404 c 259
 564 404 587 367 587 287 c 259
 587 157 510 70 405 70 c 259
 242 70 258 246 137 279 c 257
 14 270 l 1
691 0 m 261
 691 126 l 2
 691 406 l 2
 691 550 l 257
 555 550 l 257
 555 408 l 257
 613 359 610 218 555 134 c 257
 555 0 l 257
 691 0 l 261
791 560 m 257
 -20 560 l 257
 -20 540 l 257
 791 540 l 257
 791 560 l 257
EndSplineSet
EndChar
StartChar: dvGA
Encoding: 281 2327 281
GlifName: dvG_A_
Width: 664
VWidth: 0
Flags: W
LayerCount: 2
Back
Fore
SplineSet
181 293 m 257
 179 326 155 354 112 354 c 256
 61 354 30 314 30 265 c 256
 30 180 93 132 170 132 c 256
 297 132 382 228 382 350 c 256
 382 449 319 548 193 548 c 257
 105 548 l 257
 105 540 l 257
 196 540 237 454 237 350 c 256
 237 253 211 159 141 159 c 256
 112 159 96 175 96 195 c 256
 96 253 181 208 181 293 c 257
-20 540 m 257
 684 540 l 257
 684 560 l 257
 -20 560 l 257
 -20 540 l 257
444 0 m 257
 584 0 l 257
 584 550 l 257
 444 550 l 257
 444 0 l 257
EndSplineSet
EndChar
StartChar: dvGHA
Encoding: 308 2328 308
GlifName: dvG_H_A_
Width: 623
VWidth: 0
Flags: W
LayerCount: 2
Back
Fore
SplineSet
168 329 m 257
 102 338 59 374 59 438 c 256
 59 493 97 548 179 548 c 256
 216 548 262 548 302 544 c 257
 314 540 l 257
 237 540 199 498 199 432 c 256
 199 378 233 335 293 335 c 258
 320 335 l 257
 320 315 l 257
 294 315 l 258
 223 315 191 262 191 199 c 256
 191 128 237 87 304 87 c 256
 348 87 394 115 403 169 c 257
 418 169 l 257
 413 90 336 39 230 39 c 256
 136 39 46 88 46 187 c 256
 46 254 86 310 168 325 c 257
 168 329 l 257
-20 560 m 257
 643 560 l 257
 643 540 l 257
 -20 540 l 257
 -20 560 l 257
403 550 m 257
 543 550 l 257
 543 0 l 257
 403 0 l 257
 403 550 l 257
EndSplineSet
EndChar
StartChar: dvNGA
Encoding: 496 2329 496
GlifName: dvN_G_A_
Width: 547
VWidth: 0
Flags: W
AnchorPoint: "blwm.u" 330 -58 basechar 0
AnchorPoint: "blwm.virama" 328 -3 basechar 0
AnchorPoint: "abvm.e" 368 560 basechar 0
AnchorPoint: "abvm.bindu" 368 560 basechar 0
LayerCount: 2
Back
Fore
SplineSet
407 560 m 257
 567 560 l 257
 567 540 l 257
 407 540 l 257
 407 560 l 257
EndSplineSet
Refer: 233 2337 N 1 0 0 1 0 0 2
Refer: 560 2364 N 1 0 0 1 735 409 2
EndChar
StartChar: dvCA
Encoding: 228 2330 228
GlifName: dvC_A_
Width: 588
VWidth: 0
Flags: W
LayerCount: 2
Back
Fore
SplineSet
368 0 m 257
 368 550 l 257
 508 550 l 257
 508 0 l 257
 368 0 l 257
608 540 m 257
 -20 540 l 257
 -20 560 l 257
 608 560 l 257
 608 540 l 257
32 450 m 257
 320 450 l 257
 320 430 l 257
 32 430 l 257
 32 450 l 257
368 203 m 257
 380 203 l 257
 380 127 324 69 230 69 c 256
 118 69 45 140 45 253 c 256
 45 339 91 404 170 426 c 257
 170 443 l 257
 267 443 l 257
 300 430 l 257
 224 430 190 355 190 254 c 256
 190 177 226 122 286 122 c 256
 336 122 362 163 368 203 c 257
EndSplineSet
EndChar
StartChar: dvCHA
Encoding: 215 2331 215
GlifName: dvC_H_A_
Width: 670
VWidth: 0
Flags: W
AnchorPoint: "blwm.u" 409 -24 basechar 0
AnchorPoint: "blwm.virama" 436 33 basechar 0
AnchorPoint: "abvm.e" 526 560 basechar 0
AnchorPoint: "abvm.bindu" 526 560 basechar 0
LayerCount: 2
Back
Fore
SplineSet
627 282 m 257
 627 126 523 38 339 38 c 256
 182 38 48 78 48 206 c 256
 48 267 81 313 154 325 c 257
 154 329 l 257
 93 339 56 376 56 435 c 256
 56 499 107 548 194 548 c 256
 231 548 267 548 307 544 c 257
 319 540 l 257
 242 540 201 498 201 432 c 256
 201 382 222 344 274 335 c 257
 274 315 l 257
 217 310 193 262 193 206 c 256
 193 106 260 60 339 60 c 256
 463 60 487 168 487 282 c 257
 487 365 458 433 394 433 c 256
 358 433 334 411 321 375 c 257
 302 383 l 257
 316 429 356 469 413 469 c 256
 542 469 627 411 627 282 c 257
386 550 m 257
 526 550 l 257
 526 449 l 257
 386 449 l 257
 386 550 l 257
-20 560 m 257
 690 560 l 257
 690 540 l 257
 -20 540 l 257
 -20 560 l 257
EndSplineSet
EndChar
StartChar: dvJA
Encoding: 356 2332 356
GlifName: dvJ_A_
Width: 695
VWidth: 0
Flags: W
LayerCount: 2
Back
Fore
SplineSet
479 430 m 257
 259 430 l 257
 259 424 l 257
 351 412 410 341 410 245 c 256
 410 129 336 39 184 39 c 256
 83 39 15 85 15 179 c 256
 15 227 48 271 98 271 c 256
 138 271 167 240 167 199 c 256
 167 118 70 145 70 109 c 256
 70 84 107 62 151 62 c 256
 246 62 265 160 265 245 c 256
 265 362 233 429 129 430 c 257
 129 450 l 257
 479 450 l 257
 479 430 l 257
-20 560 m 257
 715 560 l 257
 715 540 l 257
 -20 540 l 257
 -20 560 l 257
475 560 m 257
 615 560 l 257
 615 0 l 257
 475 0 l 257
 475 560 l 257
EndSplineSet
EndChar
StartChar: dvJHA
Encoding: 359 2333 359
GlifName: dvJ_H_A_
Width: 735
VWidth: 0
Flags: W
LayerCount: 2
Back
Fore
SplineSet
515 560 m 257
 655 560 l 257
 655 0 l 257
 515 0 l 257
 515 560 l 257
590 199 m 257
 368 199 l 257
 368 219 l 257
 590 219 l 257
 590 199 l 257
44 115 m 257
 44 158 78 182 111 182 c 256
 161 182 190 151 190 99 c 256
 190 35 140 -45 91 -93 c 257
 75 -80 l 257
 100 -60 134 -13 148 18 c 257
 153 13 l 257
 81 28 44 65 44 115 c 257
161 31 m 257
 176 28 194 27 213 27 c 256
 272 27 317 58 317 109 c 256
 317 226 44 186 44 335 c 256
 44 403 108 450 222 453 c 257
 222 453 222 484 222 546 c 257
 362 546 l 257
 362 414 l 257
 339 420 281 430 232 430 c 256
 161 430 137 409 137 388 c 256
 137 307 425 334 425 162 c 256
 425 61 327 7 217 7 c 256
 195 7 176 9 159 12 c 256
 161 31 l 257
-20 560 m 257
 755 560 l 257
 755 540 l 257
 -20 540 l 257
 -20 560 l 257
EndSplineSet
EndChar
StartChar: dvNYA
Encoding: 512 2334 512
GlifName: dvN_Y_A_
Width: 647
VWidth: 0
Flags: W
LayerCount: 2
Back
Fore
SplineSet
485 282 m 257
 264 282 l 257
 264 262 l 257
 485 262 l 257
 485 282 l 257
44 375 m 257
 61 401 85 417 113 417 c 256
 185 417 195 316 195 264 c 256
 195 176 169 112 104 112 c 256
 67 112 43 140 32 163 c 257
 15 156 l 257
 26 114 76 70 155 70 c 256
 274 70 340 152 340 265 c 256
 340 379 272 457 163 457 c 256
 104 457 55 432 28 385 c 257
 44 375 l 257
427 0 m 257
 567 0 l 257
 567 560 l 257
 427 560 l 257
 427 0 l 257
-20 540 m 257
 667 540 l 257
 667 560 l 257
 -20 560 l 257
 -20 540 l 257
EndSplineSet
EndChar
StartChar: dvTTA
Encoding: 692 2335 692
GlifName: dvT_T_A_
Width: 469
VWidth: 0
Flags: W
AnchorPoint: "blwm.u" 340 -41 basechar 0
AnchorPoint: "blwm.virama" 368 20 basechar 0
AnchorPoint: "abvm.e" 389 560 basechar 0
AnchorPoint: "abvm.bindu" 389 560 basechar 0
LayerCount: 2
Back
Fore
SplineSet
280 24 m 256
 358 24 412 58 442 108 c 257
 428 118 l 257
 406 85 363 57 317 57 c 257
 258 57 189 95 189 233 c 256
 189 325 224 409 329 409 c 256
 350 409 373 405 389 400 c 257
 389 551 l 257
 249 551 l 257
 249 422 l 257
 131 422 44 347 44 232 c 256
 44 90 140 24 280 24 c 256
-20 540 m 257
 489 540 l 257
 489 560 l 257
 -20 560 l 257
 -20 540 l 257
EndSplineSet
EndChar
StartChar: dvTTHA
Encoding: 798 2336 798
GlifName: dvT_T_H_A_
Width: 532
VWidth: 0
Flags: W
AnchorPoint: "blwm_Ukaar" 336 -39 basechar 0
AnchorPoint: "blwm_Virama" 346 35 basechar 0
AnchorPoint: "abvm_Ekaar" 337 560 basechar 0
AnchorPoint: "abvm_Anusvara" 337 560 basechar 0
LayerCount: 2
Back
Fore
SplineSet
265 59 m 257
 328 59 339 119 339 240 c 257
 339 362 328 422 265 422 c 257
 202 422 191 362 191 240 c 256
 191 119 202 59 265 59 c 257
206 559 m 257
 337 559 l 257
 337 421 l 257
 272 434 l 257
 206 419 l 257
 206 559 l 257
-20 560 m 257
 552 560 l 257
 552 540 l 257
 -20 540 l 257
 -20 560 l 257
265 39 m 257
 160 39 44 108 44 240 c 256
 44 375 160 442 265 442 c 256
 370 442 488 375 488 240 c 256
 488 108 370 39 265 39 c 257
EndSplineSet
Validated: 5
EndChar
StartChar: dvDDA
Encoding: 233 2337 233
GlifName: dvD_D_A_
Width: 457
VWidth: 0
Flags: W
AnchorPoint: "blwm.u" 314 -61 basechar 0
AnchorPoint: "blwm.virama" 316 -3 basechar 0
AnchorPoint: "abvm.e" 368 560 basechar 0
AnchorPoint: "abvm.bindu" 368 560 basechar 0
LayerCount: 2
Back
Fore
SplineSet
-20 560 m 257
 477 560 l 257
 477 540 l 257
 368 540 l 257
 368 403 l 257
 341 416 278 433 220 433 c 256
 158 433 135 408 135 388 c 256
 135 306 422 333 422 158 c 256
 422 64 336 -3 208 -3 c 256
 116 -3 31 41 31 113 c 256
 31 150 54 183 99 183 c 256
 138 183 164 158 164 126 c 256
 164 82 121 83 121 58 c 256
 121 28 173 18 209 18 c 256
 277 18 316 55 316 104 c 256
 316 241 42 183 42 335 c 256
 42 404 108 453 228 453 c 257
 228 540 l 257
 -20 540 l 257
 -20 560 l 257
EndSplineSet
EndChar
StartChar: dvDDHA
Encoding: 252 2338 252
GlifName: dvD_D_H_A_
Width: 522
VWidth: 0
Flags: W
AnchorPoint: "blwm_Ukaar" 360 -44 basechar 0
AnchorPoint: "blwm_Virama" 360 24 basechar 0
AnchorPoint: "abvm_Ekaar" 389 560 basechar 0
AnchorPoint: "abvm_Anusvara" 389 560 basechar 0
LayerCount: 2
Back
Fore
SplineSet
189 233 m 256
 189 325 226 409 323 409 c 256
 345 409 375 404 389 397 c 257
 389 551 l 257
 249 551 l 257
 249 422 l 257
 131 422 44 347 44 232 c 256
 44 102 138 24 278 24 c 256
 387 24 485 62 485 169 c 256
 485 237 441 292 362 292 c 256
 303 292 266 265 253 226 c 257
 268 219 l 257
 275 236 289 249 306 249 c 256
 342 249 355 209 355 168 c 256
 355 90 332 44 279 44 c 256
 216 44 189 128 189 233 c 256
-20 540 m 257
 542 540 l 257
 542 560 l 257
 -20 560 l 257
 -20 540 l 257
EndSplineSet
Validated: 5
EndChar
StartChar: dvNNA
Encoding: 598 2339 598
GlifName: dvN_N_A_
Width: 823
VWidth: 0
Flags: W
LayerCount: 2
Back
Fore
SplineSet
336 560 m 257
 336 328 l 258
 336 237 336 157 267 157 c 256
 199 157 198 237 198 328 c 258
 198 560 l 257
 53 560 l 257
 53 560 53 369 53 342 c 256
 53 197 120 137 267 137 c 256
 415 137 481 197 481 342 c 256
 481 369 481 560 481 560 c 257
 336 560 l 257
603 0 m 257
 743 0 l 257
 743 560 l 257
 603 560 l 257
 603 0 l 257
-20 540 m 257
 841 540 l 257
 841 560 l 257
 -20 560 l 257
 -20 540 l 257
EndSplineSet
Validated: 5
EndChar
StartChar: dvTA
Encoding: 787 2340 787
GlifName: dvT_A_
Width: 563
VWidth: 0
Flags: W
LayerCount: 2
Back
Fore
SplineSet
363 392 m 257
 356 394 333 396 323 396 c 256
 197 396 190 297 190 198 c 256
 190 66 210 25 264 25 c 256
 271 25 283 26 288 27 c 257
 292 9 l 257
 277 3 258 1 240 1 c 256
 132 1 45 50 45 198 c 256
 45 375 171 415 310 415 c 257
 339 415 363 411 363 411 c 257
 363 392 l 257
343 560 m 257
 483 560 l 257
 483 0 l 257
 343 0 l 257
 343 560 l 257
-20 560 m 257
 581 560 l 257
 581 540 l 257
 -20 540 l 257
 -20 560 l 257
EndSplineSet
Validated: 5
EndChar
StartChar: dvTHA
Encoding: 789 2341 789
GlifName: dvT_H_A_
Width: 652
VWidth: 0
Flags: W
LayerCount: 2
Back
Fore
SplineSet
153 373 m 257
 99 376 72 409 72 451 c 256
 72 516 118 563 203 563 c 256
 290 563 353 515 353 431 c 256
 353 347 280 298 186 292 c 257
 186 292 184 283 184 269 c 256
 184 201 216 124 304 124 c 256
 375 124 432 168 432 234 c 257
 449 210 l 257
 433 125 341 88 267 88 c 257
 137 88 38 158 38 281 c 256
 38 296 39 306 40 313 c 257
 50 312 59 312 69 312 c 256
 186 312 233 356 233 431 c 256
 233 484 204 509 163 509 c 256
 125 509 100 486 100 451 c 256
 100 414 122 397 155 393 c 257
 153 373 l 257
389 560 m 257
 671 560 l 257
 671 540 l 257
 389 540 l 257
 389 560 l 257
432 560 m 257
 572 560 l 257
 572 0 l 257
 432 0 l 257
 432 560 l 257
EndSplineSet
EndChar
StartChar: dvDA
Encoding: 246 2342 246
GlifName: dvD_A_
Width: 489
VWidth: 0
Flags: HW
AnchorPoint: "blwm_Ukaar" 383 -87 basechar 0
AnchorPoint: "blwm_Virama" 375 -8 basechar 0
LayerCount: 2
Back
Fore
SplineSet
389 420 m 17
 376 425 331.013886211 431 295 431 c 3
 160 431 44 370 44 232 c 256
 44 94 141 24 278 24 c 259
 294 24 318 26 340 31 c 257
 334 48 l 257
 326 46 317 46 309 46 c 259
 236 46 189 119 189 233 c 256
 189 325 226 409 323 409 c 259
 345 409 375 404 389 397 c 257
 389 420 l 17
389 409 m 257
 389 551 l 257
 249 551 l 257
 249 408 l 1
 294 426 345 426 389 409 c 257
337.975585938 31.658203125 m 1
 376.569335938 -13.767578125 418.924804688 -35.56640625 464 -59 c 257
 474 -41 l 257
 419 -14 365 24 348 56 c 257
 337.975585938 31.658203125 l 1
374.024414062 220.341796875 m 1
 324.024414062 220.341796875 296.024414062 186.341796875 296.024414062 137.341796875 c 259
 296.024414062 97.44140625 312.376953125 62.158203125 338 32 c 257
 338 32 l 1
 392.024414062 41.341796875 446.024414062 83.333984375 446.024414062 145.341796875 c 259
 446.024414062 188.341796875 416.024414062 220.341796875 374.024414062 220.341796875 c 256
 374.024414062 220.341796875 l 1
-20 540 m 257
 509 540 l 257
 509 560 l 257
 -20 560 l 257
 -20 540 l 257
EndSplineSet
EndChar
StartChar: dvDHA
Encoding: 269 2343 269
GlifName: dvD_H_A_
Width: 624
VWidth: 0
Flags: HWO
LayerCount: 2
Back
Fore
SplineSet
321 335 m 1
 167 335 l 1
 167 315 l 1
 321 315 l 1
 321 335 l 1
294 335 m 258
 234 335 200 378 200 432 c 259
 200 492 218 540 295 540 c 1
 180 548 l 256
 103 548 60 497 60 438 c 259
 60 375 105 337 167 329 c 257
 294 335 l 258
167 325 m 257
 85 310 47 254 47 187 c 259
 47 88 137 39 231 39 c 259
 337 39 414 90 419 169 c 257
 404 169 l 257
 395 115 349 87 305 87 c 259
 238 87 192 128 192 199 c 259
 192 262 224 315 295 315 c 258
 167 325 l 257
644 560 m 257
 358 560 l 257
 358 540 l 257
 644 540 l 257
 644 560 l 257
295 560 m 257
 -20 560 l 257
 -20 540 l 257
 295 540 l 1
 295 560 l 257
544 0 m 257
 544 550 l 257
 404 550 l 257
 404 0 l 257
 544 0 l 257
EndSplineSet
EndChar
StartChar: dvNA
Encoding: 589 2344 589
GlifName: dvN_A_
Width: 559
VWidth: 0
Flags: W
LayerCount: 2
Back
Fore
SplineSet
35 248 m 257
 35 181 77 141 135 141 c 256
 183 141 220 172 220 221 c 256
 220 319 108 288 108 324 c 256
 108 367 203 371 232 371 c 257
 249 371 366 369 366 369 c 257
 366 391 l 257
 229 391 l 258
 133 391 35 360 35 248 c 257
-20 540 m 257
 579 540 l 257
 579 560 l 257
 -20 560 l 257
 -20 540 l 257
339 0 m 257
 479 0 l 257
 479 560 l 257
 339 560 l 257
 339 0 l 257
EndSplineSet
EndChar
StartChar: dvPA
Encoding: 670 2346 670
GlifName: dvP_A_
Width: 562
VWidth: 0
Flags: W
LayerCount: 2
Back
Fore
SplineSet
342 238 m 257
 335 212 306 184 271 184 c 256
 197 184 197 270 197 338 c 258
 197 546 l 257
 51 546 l 257
 51 345 l 257
 51 241 74 132 213 132 c 256
 271 132 329 172 344 205 c 257
 342 238 l 257
342 0 m 257
 482 0 l 257
 482 559 l 257
 342 559 l 257
 342 0 l 257
-20 540 m 257
 582 540 l 257
 582 560 l 257
 -20 560 l 257
 -20 540 l 257
EndSplineSet
EndChar
StartChar: dvPHA
Encoding: 672 2347 672
GlifName: dvP_H_A_
Width: 818
VWidth: 0
Flags: W
AnchorPoint: "blwm_Ukaar" 482 0 basechar 0
AnchorPoint: "blwm_Virama" 482 0 basechar 0
AnchorPoint: "abvm_Ekaar" 482 560 basechar 0
AnchorPoint: "abvm_Anusvara" 482 560 basechar 0
LayerCount: 2
Back
Fore
SplineSet
342 0 m 257
 482 0 l 257
 482 559 l 257
 342 559 l 257
 342 0 l 257
-20 540 m 257
 838 540 l 257
 838 560 l 257
 -20 560 l 257
 -20 540 l 257
552 410 m 257
 607 410 637 348 637 270 c 256
 637 196 615 121 546 120 c 256
 538 120 528 121 522 124 c 257
 517 109 l 257
 538 90 573 80 615 80 c 256
 724 80 782 160 782 268 c 256
 782 376 720 465 611 465 c 256
 515 465 468 403 468 330 c 257
 481 331 l 257
 487 377 513 409 552 410 c 257
342 238 m 257
 335 212 306 184 271 184 c 256
 197 184 197 270 197 338 c 258
 197 546 l 257
 51 546 l 257
 51 345 l 258
 51 241 74 132 213 132 c 256
 271 132 329 172 344 205 c 257
 342 238 l 257
EndSplineSet
Validated: 5
EndChar
StartChar: dvBA
Encoding: 197 2348 197
GlifName: dvB_A_
Width: 564
VWidth: 0
Flags: W
LayerCount: 2
Back
Fore
SplineSet
188 387 m 257
 406 182 l 257
 392 167 l 257
 173 372 l 257
 188 387 l 257
-20 560 m 257
 584 560 l 257
 584 540 l 257
 -20 540 l 257
 -20 560 l 257
345 560 m 257
 484 560 l 257
 484 0 l 257
 345 0 l 257
 345 560 l 257
352 161 m 257
 347 118 284 72 211 72 c 256
 119 72 35 131 35 258 c 256
 35 398 120 456 210 456 c 256
 244 456 277 445 299 424 c 257
 288 411 l 257
 278 417 268 420 258 420 c 256
 217 420 185 366 185 273 c 256
 185 183 211 124 273 124 c 256
 313 124 343 163 345 193 c 257
 352 161 l 257
EndSplineSet
EndChar
StartChar: dvBHA
Encoding: 199 2349 199
GlifName: dvB_H_A_
Width: 617
VWidth: 0
Flags: HWO
LayerCount: 2
Back
Fore
SplineSet
537 0 m 257
 537 560 l 257
 397 560 l 257
 397 0 l 257
 537 0 l 257
173 331 m 257
 94 331 27 288 27 210 c 259
 27 142 78 105 142 105 c 259
 234 105 294 180 294 337 c 259
 294 496 236 563 146 563 c 259
 78 563 30 523 29 457 c 257
 48 456 l 257
 51 500 75 520 99 520 c 259
 135 520 155 486 155 337 c 259
 155 228 138 160 94 160 c 259
 68 160 53 182 53 210 c 259
 53 267 98 310 173 310 c 257
 173 331 l 257
500 331 m 257
 209 331 l 257
 209 312 l 257
 500 312 l 257
 500 331 l 257
637 560 m 257
 329 560 l 257
 329 540 l 257
 637 540 l 257
 637 560 l 257
EndSplineSet
EndChar
StartChar: dvMA
Encoding: 496 2350 496
GlifName: dvM_A_
Width: 644
VWidth: 0
Flags: W
LayerCount: 2
Back
Fore
SplineSet
220 331 m 257
 511 331 l 257
 511 312 l 257
 220 312 l 257
 220 331 l 257
424 559 m 257
 564 559 l 257
 564 0 l 257
 424 0 l 257
 424 559 l 257
-20 560 m 257
 664 560 l 257
 664 540 l 257
 -20 540 l 257
 -20 560 l 257
295 318 m 257
 295 161 241 105 149 105 c 256
 85 105 28 139 28 210 c 256
 28 288 95 331 174 331 c 257
 174 310 l 257
 99 310 54 267 54 210 c 256
 54 181 69 160 99 160 c 256
 146 160 156 228 156 319 c 258
 156 548 l 257
 295 548 l 257
 295 318 l 257
EndSplineSet
Validated: 5
EndChar
StartChar: dvYA
Encoding: 865 2351 865
GlifName: dvY_A_
Width: 640
VWidth: 0
Flags: W
LayerCount: 2
Back
Fore
SplineSet
420 559 m 257
 560 559 l 257
 560 0 l 257
 420 0 l 257
 420 559 l 257
-20 560 m 257
 660 560 l 257
 660 540 l 257
 -20 540 l 257
 -20 560 l 257
178 295 m 257
 178 294 177 285 177 277 c 256
 177 209 209 132 297 132 c 256
 368 132 425 176 425 242 c 257
 442 218 l 257
 426 133 334 96 260 96 c 256
 130 96 31 166 31 289 c 256
 31 304 32 314 33 321 c 257
 33 321 43 320 50 320 c 256
 124 320 179 349 179 431 c 256
 179 519 131 540 59 540 c 257
 59 546 l 257
 174 546 l 258
 266 546 324 495 324 419 c 256
 324 345 269 304 178 295 c 257
EndSplineSet
Validated: 5
EndChar
StartChar: dvRA
Encoding: 603 2352 603
GlifName: dvR_A_
Width: 373
VWidth: 0
Flags: W
AnchorPoint: "blwm.virama" 276 -3 basechar 0
AnchorPoint: "abvm.e" 211 560 basechar 0
AnchorPoint: "abvm.bindu" 211 560 basechar 0
LayerCount: 2
Back
Fore
SplineSet
-20 560 m 257
 393 560 l 257
 393 540 l 257
 -20 540 l 257
 -20 560 l 257
112 258 m 257
 297 232 227 25 328 25 c 256
 346 25 360 31 365 34 c 257
 371 20 l 257
 348 3 317 -4 276 -4 c 256
 52 -4 117 231 11 260 c 257
 11 280 l 257
 42 280 l 258
 131 280 180 321 180 407 c 256
 180 494 142 540 57 540 c 257
 57 545 l 257
 162 545 l 258
 266 545 318 486 318 407 c 256
 318 314 230 269 112 262 c 257
 112 258 l 257
EndSplineSet
EndChar
StartChar: dvLA
Encoding: 462 2354 462
GlifName: dvL_A_
Width: 728
VWidth: 0
Flags: W
AnchorPoint: "blwm_Ukaar" 555 -37 basechar 0
AnchorPoint: "blwm_Virama" 565 14 basechar 0
AnchorPoint: "abvm_Ekaar" 563 560 basechar 0
AnchorPoint: "abvm_Anusvara" 563 560 basechar 0
LayerCount: 2
Back
Fore
SplineSet
426 559 m 257
 563 559 l 257
 563 431 l 257
 491 439 l 257
 426 419 l 257
 426 559 l 257
-20 560 m 257
 748 560 l 257
 748 540 l 257
 -20 540 l 257
 -20 560 l 257
364 378 m 257
 388 418 429 446 500 446 c 256
 612 446 694 368 694 240 c 256
 694 131 649 31 518 31 c 256
 477 31 445 46 429 61 c 257
 439 75 l 257
 446 70 458 64 474 64 c 256
 523 64 550 100 550 227 c 256
 550 362 529 426 487 426 c 256
 432 426 429 285 429 237 c 258
 429 173 l 257
 299 173 l 257
 299 237 l 258
 299 285 296 426 241 426 c 256
 199 426 178 362 178 227 c 256
 178 100 205 64 254 64 c 256
 270 64 282 70 289 75 c 257
 299 61 l 257
 283 46 251 31 210 31 c 256
 79 31 34 131 34 240 c 256
 34 368 116 446 228 446 c 256
 299 446 340 418 364 378 c 257
EndSplineSet
Validated: 5
EndChar
StartChar: dvLLA
Encoding: 437 2355 437
GlifName: dvL_L_A_
Width: 756
VWidth: 0
Flags: W
AnchorPoint: "blwm.u" 588 -51 basechar 0
AnchorPoint: "blwm.virama" 631 26 basechar 0
AnchorPoint: "abvm.e" 601 560 basechar 0
AnchorPoint: "abvm.bindu" 601 560 basechar 0
LayerCount: 2
Back
Fore
SplineSet
461 560 m 257
 601 560 l 257
 601 427 l 257
 545 442 l 257
 461 427 l 257
 461 560 l 257
-20 560 m 257
 791 560 l 257
 791 540 l 257
 -20 540 l 257
 -20 560 l 257
400 141 m 257
 400 141 417 161 417 161 c 257
 422 111 457 66 498 66 c 256
 567 66 571 161 571 250 c 256
 571 379 567 433 531 433 c 256
 484 433 482 298 442 199 c 256
 397 87 330 32 220 32 c 256
 90 32 35 140 35 248 c 256
 35 363 103 455 213 455 c 256
 290 455 342 413 356 342 c 257
 337 325 l 257
 332 372 299 420 259 420 c 256
 188 420 185 323 185 235 c 256
 185 98 189 51 225 51 c 256
 272 51 273 180 315 289 c 256
 365 419 451 452 536 452 c 256
 662 452 721 367 721 251 c 256
 721 130 674 29 548 29 c 256
 470 29 416 71 400 141 c 257
EndSplineSet
EndChar
StartChar: dvSSA
Encoding: 737 2359 737
GlifName: dvS_S_A_
Width: 562
VWidth: 0
Flags: W
LayerCount: 2
Back
Fore
SplineSet
342 238 m 257
 335 210 306 184 271 184 c 256
 197 184 197 270 197 338 c 258
 197 546 l 257
 51 546 l 257
 51 345 l 257
 51 241 74 132 213 132 c 256
 271 132 329 172 344 205 c 257
 342 238 l 257
342 0 m 257
 482 0 l 257
 482 559 l 257
 342 559 l 257
 342 0 l 257
-20 540 m 257
 580 540 l 257
 580 560 l 257
 -20 560 l 257
 -20 540 l 257
171 465 m 257
 386 263 l 257
 401 276 l 257
 183 481 l 257
 171 465 l 257
EndSplineSet
EndChar
StartChar: dvSA
Encoding: 718 2360 718
GlifName: dvS_A_
Width: 677
VWidth: 0
Flags: W
LayerCount: 2
Back
Fore
SplineSet
457 560 m 257
 597 560 l 257
 597 0 l 257
 457 0 l 257
 457 560 l 257
-20 560 m 257
 697 560 l 257
 697 540 l 257
 -20 540 l 257
 -20 560 l 257
107 258 m 257
 292 232 222 25 323 25 c 256
 341 25 355 31 360 34 c 257
 366 20 l 257
 343 3 312 -4 271 -4 c 256
 47 -4 112 231 6 260 c 257
 6 280 l 257
 37 280 l 258
 126 280 175 321 175 407 c 256
 175 494 137 540 52 540 c 257
 52 545 l 257
 157 545 l 258
 261 545 313 486 313 407 c 256
 313 314 225 269 107 262 c 257
 107 258 l 257
97 282 m 257
 545 282 l 257
 545 262 l 257
 77 262 l 257
 97 282 l 257
EndSplineSet
Validated: 5
EndChar
StartChar: dvHA
Encoding: 341 2361 341
GlifName: dvH_A_
Width: 506
VWidth: 0
Flags: W
AnchorPoint: "blwm_Ukaar" 349 -77 basechar 0
AnchorPoint: "blwm_Virama" 378 -9 basechar 0
AnchorPoint: "abvm_Ekaar" 419 560 basechar 0
AnchorPoint: "abvm_Anusvara" 419 560 basechar 0
LayerCount: 2
Back
Fore
SplineSet
254 157 m 257
 261 154 271 152 280 152 c 256
 311 152 338 174 338 219 c 256
 338 257 312 282 270 282 c 256
 217 282 177 236 177 160 c 256
 177 69 232 26 323 26 c 256
 378 26 423 46 433 53 c 257
 443 35 l 257
 434 28 388 -3 283 -3 c 256
 120 -3 37 57 37 157 c 256
 37 246 122 306 276 306 c 256
 393 306 460 272 460 205 c 256
 460 150 424 111 358 111 c 256
 315 111 275 125 248 145 c 257
 254 157 l 257
172 284 m 257
 118 284 49 309 49 365 c 256
 49 415 92 445 193 445 c 256
 235 445 279 441 279 441 c 257
 279 548 l 257
 419 548 l 257
 419 398 l 257
 395 406 338 420 286 420 c 256
 226 420 184 405 184 364 c 256
 184 323 216 306 275 306 c 257
 172 284 l 257
-20 560 m 257
 526 560 l 257
 526 540 l 257
 -20 540 l 257
 -20 560 l 257
EndSplineSet
EndChar
StartChar: dvNukta
Encoding: 663 2364 663
GlifName: dvN_ukta
Width: 0
VWidth: 0
Flags: W
LayerCount: 2
Back
Fore
SplineSet
-200 -79 m 256
 -200 -117 -231 -148 -269 -148 c 256
 -307 -148 -338 -117 -338 -79 c 256
 -338 -41 -307 -10 -269 -10 c 256
 -231 -10 -200 -41 -200 -79 c 256
EndSplineSet
Validated: 1
EndChar
StartChar: dvAvagraha
Encoding: 195 2365 195
GlifName: dvA_vagraha
Width: 483
VWidth: 0
Flags: W
LayerCount: 2
Back
Fore
SplineSet
37 108 m 257
 85 62 144 27 217 27 c 256
 277 27 315 61 315 112 c 256
 315 247 44 267 44 437 c 256
 44 513 108 560 222 560 c 257
 442 560 l 257
 442 540 l 257
 242 540 l 257
 192 540 161 527 161 492 c 256
 161 386 425 355 425 162 c 256
 425 61 331 7 221 7 c 256
 142 7 76 45 25 92 c 257
 37 108 l 257
EndSplineSet
EndChar
StartChar: dvMatraAA
Encoding: 519 2366 519
GlifName: dvM_atraA_A_
Width: 300
VWidth: 0
Flags: W
LayerCount: 2
Back
Fore
SplineSet
80 560 m 257
 220 560 l 257
 220 0 l 257
 80 0 l 257
 80 560 l 257
-20 560 m 257
 320 560 l 257
 320 540 l 257
 -20 540 l 257
 -20 560 l 257
EndSplineSet
Validated: 5
EndChar
StartChar: dvMatraI
Encoding: 536 2367 536
GlifName: dvM_atraI_
Width: 300
VWidth: 0
Flags: W
LayerCount: 2
Back
Fore
SplineSet
139 551 m 257
 96 558 54 598 54 659 c 256
 54 727 96 787 201 787 c 256
 294 787 441 727 555 727 c 256
 594 727 607 742 607 763 c 256
 607 787 590 803 567 811 c 257
 574 830 l 257
 609 818 644 786 644 732 c 256
 644 668 603 627 531 627 c 256
 419 627 249 690 168 690 c 256
 116 690 96 670 96 638 c 256
 96 582 150 560 192 560 c 257
 139 551 l 257
80 560 m 257
 220 560 l 257
 220 0 l 257
 80 0 l 257
 80 560 l 257
-20 560 m 257
 320 560 l 257
 320 540 l 257
 -20 540 l 257
 -20 560 l 257
EndSplineSet
EndChar
StartChar: dvMatraII
Encoding: 569 2368 569
GlifName: dvM_atraI_I_
Width: 300
VWidth: 0
Flags: W
LayerCount: 2
Back
Fore
SplineSet
-110 618 m 257
 -113 625 -118 640 -118 658 c 256
 -118 710 -82 769 30 769 c 256
 145 769 220 695 220 555 c 257
 80 555 l 257
 80 681 47 731 -19 731 c 256
 -65 731 -98 706 -98 658 c 256
 -98 644 -94 632 -91 625 c 257
 -110 618 l 257
80 560 m 257
 220 560 l 257
 220 0 l 257
 80 0 l 257
 80 560 l 257
-20 560 m 257
 320 560 l 257
 320 540 l 257
 -20 540 l 257
 -20 560 l 257
EndSplineSet
Validated: 5
EndChar
StartChar: dvMatraU
Encoding: 584 2369 584
GlifName: dvM_atraU_
Width: 0
VWidth: 0
Flags: W
AnchorPoint: "blwm_Ukaar" -83 0 mark 0
LayerCount: 2
Back
Fore
SplineSet
-374 -15 m 257
 -372 -94 -320 -184 -218 -184 c 256
 -170 -184 -137 -151 -137 -100 c 256
 -137 -54 -164 -22 -205 -22 c 256
 -233 -22 -255 -39 -262 -59 c 257
 -281 -51 l 256
 -260 0 -203 19 -154 19 c 256
 -64 19 -15 -25 -15 -98 c 256
 -15 -175 -77 -229 -183 -229 c 256
 -311 -229 -394 -133 -395 -15 c 257
 -374 -15 l 257
EndSplineSet
EndChar
StartChar: dvMatraUU
Encoding: 585 2370 585
GlifName: dvM_atraU_U_
Width: 0
VWidth: 0
Flags: W
AnchorPoint: "blwm_Ukaar" -80 0 mark 0
LayerCount: 2
Back
Fore
SplineSet
53 -225 m 257
 52 -150 2 -32 -100 -32 c 256
 -149 -32 -188 -64 -188 -117 c 256
 -188 -168 -157 -194 -122 -194 c 256
 -95 -194 -69 -180 -66 -147 c 257
 -46 -152 l 257
 -52 -198 -88 -231 -165 -231 c 256
 -242 -231 -307 -189 -307 -116 c 256
 -307 -44 -252 13 -150 13 c 256
 2 13 71 -112 73 -225 c 257
 53 -225 l 257
EndSplineSet
Validated: 1
EndChar
StartChar: dvmvR
Encoding: 823 2371 823
GlifName: dvmvR_
Width: 0
VWidth: 0
Flags: W
AnchorPoint: "blwm.u" -83 0 mark 0
LayerCount: 2
Back
Fore
SplineSet
-32 -136 m 257
 -56 -188 -115 -219 -195 -219 c 256
 -305 -219 -372 -168 -372 -101 c 256
 -372 -35 -315 22 -156 22 c 256
 -134 22 -112 21 -87 17 c 257
 -87 0 l 257
 -188 -3 -231 -44 -231 -98 c 256
 -231 -141 -201 -183 -148 -183 c 256
 -107 -183 -70 -158 -49 -126 c 257
 -32 -136 l 257
EndSplineSet
EndChar
StartChar: dvMatraEcandra
Encoding: 534 2373 534
GlifName: dvM_atraE_candra
Width: 0
VWidth: 0
Flags: W
AnchorPoint: "abvm_Anusvara" -80 560 mark 0
AnchorPoint: "abvm_Anusvara" -80 721 basechar 0
LayerCount: 2
Back
Fore
SplineSet
19 800 m 257
 21 798 l 257
 24 691 -48 631 -150 631 c 256
 -252 631 -323 692 -320 798 c 257
 -318 800 l 257
 -308 802 l 257
 -306 801 l 257
 -295 755 -238 724 -150 724 c 256
 -61 724 -4 755 7 801 c 257
 9 802 l 257
 19 800 l 257
EndSplineSet
Validated: 33
EndChar
StartChar: dvMatraEshort
Encoding: 535 2374 535
GlifName: dvM_atraE_short
Width: 9
VWidth: 0
Flags: W
AnchorPoint: "abvm_Ekaar" -71 560 mark 0
LayerCount: 2
Back
Fore
SplineSet
-428 843 m 256
 -398 843 -374 827 -367 819 c 257
 -380 804 l 257
 -389 812 -405 823 -429 823 c 256
 -454 823 -474 808 -474 781 c 256
 -474 737 -421 733 -394 733 c 256
 -359 733 -267 747 -237 747 c 256
 -150 747 -93 708 -93 619 c 256
 -93 581 -108 560 -120 549 c 257
 -141 554 l 257
 -130 562 -118 581 -118 600 c 256
 -118 640 -152 652 -206 652 c 256
 -247 652 -334 637 -367 637 c 256
 -447 637 -510 665 -510 745 c 256
 -510 797 -484 843 -428 843 c 256
EndSplineSet
EndChar
StartChar: dvMatraE
Encoding: 529 2375 529
GlifName: dvM_atraE_
Width: 0
VWidth: 0
Flags: W
AnchorPoint: "abvm_Ekaar" -80 560 mark 0
LayerCount: 2
Back
Fore
SplineSet
-144 589 m 257
 -263 645 -328 662 -370 691 c 256
 -389 704 -399 723 -399 741 c 256
 -399 769 -376 790 -348 790 c 256
 -336 790 -323 786 -312 778 c 256
 -268 749 -230 695 -135 603 c 257
 -144 589 l 257
EndSplineSet
Validated: 1
EndChar
StartChar: dvmE
Encoding: 766 2375 766
GlifName: dvmE_
Width: 0
VWidth: 0
Flags: W
AnchorPoint: "abvm.e" -80 560 mark 0
LayerCount: 2
Back
Fore
SplineSet
-144 589 m 257
 -263 645 -328 662 -370 691 c 256
 -389 704 -399 723 -399 741 c 256
 -399 769 -376 790 -348 790 c 256
 -336 790 -323 786 -312 778 c 256
 -268 749 -230 695 -135 603 c 257
 -144 589 l 257
EndSplineSet
EndChar
StartChar: dvMatraAI
Encoding: 520 2376 520
GlifName: dvM_atraA_I_
Width: 0
VWidth: 0
Flags: W
AnchorPoint: "abvm_Ekaar" -80 560 mark 0
LayerCount: 2
Back
Fore
SplineSet
-188 575 m 257
 -329 617 -411 630 -461 649 c 256
 -490 660 -506 679 -506 701 c 256
 -506 731 -483 751 -451 751 c 256
 -409 751 -362 715 -179 595 c 257
 -188 575 l 257
-124 590 m 257
 -225 666 -279 698 -313 732 c 256
 -329 748 -338 761 -338 778 c 256
 -338 806 -317 828 -287 828 c 256
 -239 828 -215 788 -108 605 c 257
 -124 590 l 257
EndSplineSet
EndChar
StartChar: dvMatraOshort
Encoding: 582 2378 582
GlifName: dvM_atraO_short
Width: 300
VWidth: 0
Flags: W
LayerCount: 2
Back
Fore
SplineSet
80 560 m 257
 220 560 l 257
 220 0 l 257
 80 0 l 257
 80 560 l 257
-20 560 m 257
 320 560 l 257
 320 540 l 257
 -20 540 l 257
 -20 560 l 257
-140 843 m 256
 -110 843 -86 827 -79 819 c 257
 -92 804 l 257
 -101 812 -117 823 -141 823 c 256
 -166 823 -186 808 -186 781 c 256
 -186 737 -133 733 -106 733 c 256
 -71 733 21 747 51 747 c 256
 138 747 195 708 195 619 c 256
 195 581 180 560 168 549 c 257
 147 554 l 257
 158 562 170 581 170 600 c 256
 170 640 136 652 82 652 c 256
 41 652 -46 637 -79 637 c 256
 -159 637 -222 665 -222 745 c 256
 -222 797 -196 843 -140 843 c 256
EndSplineSet
EndChar
StartChar: dvVirama
Encoding: 858 2381 858
GlifName: dvV_irama
Width: 0
VWidth: 0
Flags: W
AnchorPoint: "blwm_Virama" -80 0 mark 0
LayerCount: 2
Back
Fore
SplineSet
-147 -32 m 257
 -72 -89 -3 -158 88 -164 c 257
 91 -176 l 257
 56 -213 24 -229 -16 -229 c 256
 -118 -229 -131 -100 -157 -41 c 257
 -147 -32 l 257
EndSplineSet
EndChar
StartChar: dvOm
Encoding: 666 2384 666
GlifName: dvO_m
Width: 960
VWidth: 0
Flags: W
LayerCount: 2
Back
Fore
SplineSet
383 143 m 257
 392 99 412 73 435 73 c 256
 520 73 484 453 754 453 c 256
 843 453 935 401 935 252 c 256
 935 118 876 30 764 30 c 256
 673 30 626 81 614 142 c 257
 631 162 l 257
 635 97 683 65 715 65 c 256
 780 65 785 166 785 256 c 256
 785 412 773 434 746 434 c 256
 675 434 691 30 496 30 c 256
 417 30 373 80 365 149 c 257
 383 143 l 257
237 325 m 257
 345 313 407 264 407 175 c 256
 407 65 322 1 176 1 c 256
 81 1 5 49 5 138 c 256
 5 193 41 227 88 227 c 256
 130 227 158 198 158 158 c 256
 158 127 139 106 113 96 c 257
 91 86 61 90 61 70 c 256
 61 48 106 25 159 25 c 256
 231 25 260 83 260 179 c 256
 260 246 228 313 120 313 c 258
 107 313 l 257
 107 333 l 257
 120 333 l 258
 195 333 235 370 235 442 c 256
 235 499 199 524 159 524 c 256
 132 524 108 511 100 503 c 257
 88 517 l 257
 103 532 143 560 217 560 c 256
 313 560 379 511 379 453 c 256
 379 374 318 341 237 329 c 257
 237 325 l 257
EndSplineSet
Refer: 244 2305 N 1 0 0 1 708 -130 2
Validated: 5
EndChar
StartChar: dvUdatta
Encoding: 848 2385 848
GlifName: dvU_datta
Width: 0
VWidth: 0
Flags: W
LayerCount: 2
Back
Fore
SplineSet
-148 515 m 256
 -149 509 -153 506 -157 506 c 256
 -162 506 -164 510 -165 515 c 256
 -176 604 -192 694 -192 723 c 256
 -192 744 -175 756 -156 756 c 256
 -138 756 -122 744 -122 723 c 256
 -122 697 -138 604 -148 515 c 256
EndSplineSet
EndChar
StartChar: dvAnudatta
Encoding: 192 2386 192
GlifName: dvA_nudatta
Width: 0
VWidth: 0
Flags: W
LayerCount: 2
Back
Fore
SplineSet
-517 -148 m 257
 -55 -148 l 257
 -55 -128 l 257
 -517 -128 l 257
 -517 -148 l 257
EndSplineSet
EndChar
StartChar: dvGrave
Encoding: 339 2387 339
GlifName: dvG_rave
Width: 0
VWidth: 0
Flags: W
LayerCount: 2
Back
Fore
SplineSet
0 597 m 257
 -2 600 l 257
 -34 613 -57 636 -72 659 c 256
 -101 705 -106 755 -156 755 c 256
 -185 755 -204 733 -204 708 c 256
 -204 630 -84 603 -6 588 c 257
 -3 589 l 257
 0 597 l 257
EndSplineSet
EndChar
StartChar: dvAcute
Encoding: 191 2388 191
GlifName: dvA_cute
Width: 0
VWidth: 0
Flags: W
LayerCount: 2
Back
Fore
SplineSet
-204 597 m 257
 -202 600 l 257
 -170 613 -147 636 -132 659 c 256
 -103 705 -98 755 -48 755 c 256
 -19 755 0 733 0 708 c 256
 0 630 -120 603 -198 588 c 257
 -201 589 l 257
 -204 597 l 257
EndSplineSet
EndChar
StartChar: dvVocalicRR
Encoding: 863 2400 863
GlifName: dvV_ocalicR_R_
Width: 885
VWidth: 0
Flags: W
AnchorPoint: "abvm_Anusvara" 499 560 basechar 0
AnchorPoint: "abvm_Ekaar" 499 560 basechar 0
LayerCount: 2
Back
Fore
SplineSet
340 267 m 257
 288 369 246 452 152 452 c 256
 81 452 33 415 8 366 c 257
 23 355 l 257
 36 374 56 384 77 384 c 256
 140 384 186 270 240 178 c 257
 340 267 l 257
-20 560 m 257
 -20 540 l 257
 905 540 l 257
 905 560 l 257
 -20 560 l 257
437 284 m 257
 784 284 l 257
 784 304 l 257
 437 304 l 257
 437 284 l 257
88 52 m 257
 363 263 l 257
 363 289 l 257
 75 68 l 257
 88 52 l 257
359 0 m 257
 499 0 l 257
 499 560 l 257
 359 560 l 257
 359 0 l 257
867 134 m 257
 851 113 827 102 803 102 c 256
 752 102 722 135 722 193 c 256
 722 253 757 281 828 284 c 257
 828 304 l 257
 774 309 717 328 717 388 c 256
 717 434 746 456 783 456 c 256
 806 456 824 446 835 437 c 257
 847 449 l 257
 820 483 773 495 724 495 c 256
 643 495 596 457 596 397 c 256
 596 344 636 305 709 296 c 257
 709 290 l 257
 625 286 584 246 584 181 c 256
 584 103 646 54 733 54 c 256
 807 54 856 85 880 126 c 257
 867 134 l 257
EndSplineSet
EndChar
StartChar: dvvRR
Encoding: 828 2400 828
GlifName: dvvR_R_
Width: 885
VWidth: 0
Flags: W
AnchorPoint: "abvm.bindu" 499 560 basechar 0
AnchorPoint: "abvm.e" 499 560 basechar 0
LayerCount: 2
Back
Fore
SplineSet
340 267 m 257
 288 369 246 452 152 452 c 256
 81 452 33 415 8 366 c 257
 23 355 l 257
 36 374 56 384 77 384 c 256
 140 384 186 270 240 178 c 257
 340 267 l 257
-20 560 m 257
 -20 540 l 257
 897 540 l 257
 897 560 l 257
 -20 560 l 257
437 294 m 257
 653 294 l 257
 653 314 l 257
 437 314 l 257
 437 294 l 257
88 52 m 257
 363 263 l 257
 363 289 l 257
 75 68 l 257
 88 52 l 257
359 0 m 257
 499 0 l 257
 499 560 l 257
 359 560 l 257
 359 0 l 257
738 437 m 257
 769 437 789 419 789 387 c 256
 789 326 727 314 693 314 c 257
 697 294 l 257
 749 294 811 320 811 387 c 256
 811 440 762 467 702 467 c 256
 621 467 567 428 567 361 c 256
 567 300 607 257 680 248 c 257
 680 242 l 257
 596 238 555 198 555 144 c 256
 555 76 617 47 691 45 c 257
 691 24 l 257
 754 27 l 257
 778 53 l 257
 727 53 693 87 693 145 c 256
 693 205 728 233 799 236 c 257
 799 256 l 257
 745 261 683 283 683 367 c 256
 683 404 699 437 738 437 c 257
800 53 m 257
 759 53 l 257
 751 44 l 257
 606 40 545 -6 545 -70 c 256
 545 -136 604 -187 722 -187 c 256
 802 -187 861 -156 885 -104 c 257
 868 -94 l 257
 847 -126 810 -151 769 -151 c 256
 716 -151 686 -109 686 -66 c 256
 686 -18 721 20 800 30 c 257
 800 53 l 257
EndSplineSet
EndChar
StartChar: dvVocalicLL
Encoding: 861 2401 861
GlifName: dvV_ocalicL_L_
Width: 748
VWidth: 0
Flags: W
AnchorPoint: "abvm_Anusvara" 566 560 basechar 0
AnchorPoint: "abvm_Ekaar" 566 560 basechar 0
LayerCount: 2
Back
Fore
SplineSet
-20 560 m 257
 768 560 l 257
 768 540 l 257
 -20 540 l 257
 -20 560 l 257
374 376 m 257
 398 416 439 446 510 446 c 256
 622 446 704 368 704 240 c 257
 560 235 l 257
 559 364 538 426 497 426 c 256
 442 426 439 285 439 237 c 258
 439 173 l 257
 309 173 l 257
 309 237 l 258
 309 285 306 426 251 426 c 256
 209 426 188 362 188 227 c 256
 188 100 215 64 264 64 c 256
 280 64 292 70 299 75 c 257
 309 61 l 257
 293 46 261 31 220 31 c 256
 89 31 44 131 44 240 c 256
 44 368 126 446 238 446 c 256
 309 446 351 418 374 376 c 257
755 -100 m 257
 731 -141 682 -172 608 -172 c 256
 521 -172 459 -123 459 -45 c 256
 459 20 500 60 584 64 c 257
 584 70 l 257
 511 79 471 118 471 171 c 256
 471 231 518 269 599 269 c 256
 638 269 677 261 704 240 c 257
 704 219 l 257
 693 225 675 230 658 230 c 256
 621 230 592 208 592 162 c 256
 592 102 649 83 703 78 c 257
 703 58 l 257
 632 55 597 27 597 -33 c 256
 597 -91 627 -124 678 -124 c 256
 702 -124 726 -113 742 -92 c 257
 755 -100 l 257
426 554 m 257
 566 554 l 257
 566 436 l 257
 489 443 l 257
 426 419 l 257
 426 554 l 257
EndSplineSet
EndChar
StartChar: danda
Encoding: 158 2404 158
GlifName: danda
Width: 300
VWidth: 0
Flags: W
LayerCount: 2
Back
Fore
SplineSet
80 560 m 257
 220 560 l 257
 220 0 l 257
 80 0 l 257
 80 560 l 257
EndSplineSet
EndChar
StartChar: dvDanda
Encoding: 293 2404 293
GlifName: dvD_anda
Width: 300
VWidth: 0
Flags: W
LayerCount: 2
Back
Fore
SplineSet
80 560 m 257
 220 560 l 257
 220 0 l 257
 80 0 l 257
 80 560 l 257
EndSplineSet
EndChar
StartChar: dvDoubleDanda
Encoding: 294 2405 294
GlifName: dvD_oubleD_anda
Width: 599
VWidth: 0
Flags: W
LayerCount: 2
Back
Fore
SplineSet
130 0 m 257
 130 560 l 257
 270 560 l 257
 270 0 l 257
 130 0 l 257
379 0 m 257
 379 560 l 257
 519 560 l 257
 519 0 l 257
 379 0 l 257
EndSplineSet
Validated: 1
EndChar
StartChar: dvAbbreviationSign
Encoding: 189 2416 189
GlifName: dvA_bbreviationS_ign
Width: 514
VWidth: 0
Flags: W
LayerCount: 2
Back
Fore
SplineSet
480 273 m 256
 480 141 379 66 251 66 c 256
 108 66 35 159 35 263 c 256
 35 393 147 465 268 465 c 256
 391 465 480 380 480 273 c 256
256 449 m 256
 197 449 185 396 185 275 c 256
 185 162 193 86 259 86 c 256
 320 86 330 164 330 275 c 256
 330 397 319 449 256 449 c 256
EndSplineSet
Validated: 1
EndChar
StartChar: dvGlottalStop
Encoding: 338 2429 338
GlifName: dvG_lottalS_top
Width: 448
VWidth: 0
Flags: W
LayerCount: 2
Back
Fore
SplineSet
18 470 m 256
 18 417 50 392 87 392 c 256
 124 392 148 416 148 449 c 256
 148 476 137 491 118 502 c 256
 97 514 81 513 81 534 c 256
 81 554 115 581 164 581 c 256
 237 581 266 535 266 444 c 256
 266 280 197 289 197 180 c 258
 197 0 l 257
 215 0 l 257
 215 180 l 258
 215 338 413 294 413 449 c 256
 413 549 312 597 198 597 c 256
 47 597 18 511 18 470 c 256
EndSplineSet
Validated: 9
EndChar
StartChar: zerowidthnonjoiner
Encoding: 1023 8204 1023
GlifName: zerowidthnonjoiner
Width: 0
VWidth: 0
Flags: W
LayerCount: 2
Back
Fore
SplineSet
24 -230 m 257
 24 811 l 257
 -23 811 l 257
 -23 -230 l 257
 24 -230 l 257
EndSplineSet
EndChar
StartChar: endash
Encoding: 840 8211 840
GlifName: endash
Width: 522
VWidth: 0
Flags: W
LayerCount: 2
Back
Fore
SplineSet
30 206 m 257
 492 206 l 257
 492 226 l 257
 30 226 l 257
 30 206 l 257
EndSplineSet
PickledDataWithLists: "(dp1
S'com.typemytype.robofont.layerData'
p2
(dp3
S'Back'
p4
(dp5
S'name'
p6
S'endash'
p7
sS'lib'
p8
(dp9
sS'unicodes'
p10
(lp11
sS'width'
p12
I522
sS'contours'
p13
(lp14
sS'components'
p15
(lp16
sS'anchors'
p17
(lp18
sss."
EndChar
StartChar: emdash
Encoding: 839 8212 839
GlifName: emdash
Width: 817
VWidth: 0
Flags: W
LayerCount: 2
Back
Fore
SplineSet
30 206 m 257
 779 206 l 257
 779 226 l 257
 30 226 l 257
 30 206 l 257
EndSplineSet
PickledDataWithLists: "(dp1
S'com.typemytype.robofont.layerData'
p2
(dp3
S'Back'
p4
(dp5
S'name'
p6
S'emdash'
p7
sS'lib'
p8
(dp9
sS'unicodes'
p10
(lp11
sS'width'
p12
I817
sS'contours'
p13
(lp14
sS'components'
p15
(lp16
sS'anchors'
p17
(lp18
sss."
EndChar
StartChar: quoteleft
Encoding: 958 8216 958
GlifName: quoteleft
Width: 198
VWidth: 0
Flags: W
LayerCount: 2
Back
Fore
SplineSet
151 708 m 257
 61 667 10 602 10 527 c 256
 10 480 42 428 105 428 c 256
 152 428 184 464 184 508 c 256
 184 555 148 576 117 576 c 256
 99 576 95 570 80 570 c 256
 72 570 64 576 64 586 c 256
 64 625 104 661 158 691 c 257
 151 708 l 257
EndSplineSet
PickledDataWithLists: "(dp1
S'com.typemytype.robofont.layerData'
p2
(dp3
S'Back'
p4
(dp5
S'name'
p6
S'quoteleft'
p7
sS'lib'
p8
(dp9
sS'unicodes'
p10
(lp11
sS'width'
p12
I198
sS'contours'
p13
(lp14
sS'components'
p15
(lp16
sS'anchors'
p17
(lp18
sss."
EndChar
StartChar: quoteright
Encoding: 1010 8217 1010
GlifName: quoteright
Width: 198
VWidth: 0
Flags: W
LayerCount: 2
Back
Fore
SplineSet
43 428 m 257
 133 469 184 534 184 609 c 256
 184 656 152 708 89 708 c 256
 42 708 10 672 10 628 c 256
 10 581 46 560 77 560 c 256
 95 560 99 566 114 566 c 256
 122 566 130 560 130 550 c 256
 130 511 90 475 36 445 c 257
 43 428 l 257
EndSplineSet
Validated: 9
PickledDataWithLists: "(dp1
S'com.typemytype.robofont.layerData'
p2
(dp3
S'Back'
p4
(dp5
S'name'
p6
S'quoteright'
p7
sS'lib'
p8
(dp9
sS'unicodes'
p10
(lp11
sS'width'
p12
I198
sS'contours'
p13
(lp14
sS'components'
p15
(lp16
sS'anchors'
p17
(lp18
sss."
EndChar
StartChar: quotesinglbase
Encoding: 1011 8218 1011
GlifName: quotesinglbase
Width: 204
VWidth: 0
Flags: W
LayerCount: 2
Back
Fore
SplineSet
43 -142 m 257
 133 -101 184 -36 184 39 c 256
 184 86 152 138 89 138 c 256
 42 138 10 102 10 58 c 256
 10 11 46 -10 77 -10 c 256
 95 -10 99 -4 114 -4 c 256
 122 -4 130 -10 130 -20 c 256
 130 -59 90 -95 36 -125 c 257
 43 -142 l 257
EndSplineSet
PickledDataWithLists: "(dp1
S'com.typemytype.robofont.layerData'
p2
(dp3
S'Back'
p4
(dp5
S'name'
p6
S'quotesinglbase'
p7
sS'lib'
p8
(dp9
sS'unicodes'
p10
(lp11
sS'width'
p12
I204
sS'contours'
p13
(lp14
sS'components'
p15
(lp16
sS'anchors'
p17
(lp18
sss."
EndChar
StartChar: quotedblleft
Encoding: 956 8220 956
GlifName: quotedblleft
Width: 433
VWidth: 0
Flags: W
LayerCount: 2
Back
Fore
SplineSet
381 708 m 257
 291 667 240 602 240 527 c 256
 240 480 272 428 335 428 c 256
 382 428 414 464 414 508 c 256
 414 555 378 576 347 576 c 256
 329 576 325 570 310 570 c 256
 302 570 294 576 294 586 c 256
 294 625 334 661 388 691 c 257
 381 708 l 257
161 708 m 257
 71 667 20 602 20 527 c 256
 20 480 52 428 115 428 c 256
 162 428 194 464 194 508 c 256
 194 555 158 576 127 576 c 256
 109 576 105 570 90 570 c 256
 82 570 74 576 74 586 c 256
 74 625 114 661 168 691 c 257
 161 708 l 257
EndSplineSet
PickledDataWithLists: "(dp1
S'com.typemytype.robofont.layerData'
p2
(dp3
S'Back'
p4
(dp5
S'name'
p6
S'quotedblleft'
p7
sS'lib'
p8
(dp9
sS'unicodes'
p10
(lp11
sS'width'
p12
I433
sS'contours'
p13
(lp14
sS'components'
p15
(lp16
sS'anchors'
p17
(lp18
sss."
EndChar
StartChar: quotedblright
Encoding: 957 8221 957
GlifName: quotedblright
Width: 433
VWidth: 0
Flags: W
LayerCount: 2
Back
Fore
SplineSet
53 428 m 257
 143 469 194 534 194 609 c 256
 194 656 162 708 99 708 c 256
 52 708 20 672 20 628 c 256
 20 581 56 560 87 560 c 256
 105 560 109 566 124 566 c 256
 132 566 140 560 140 550 c 256
 140 511 100 475 46 445 c 257
 53 428 l 257
273 428 m 257
 363 469 414 534 414 609 c 256
 414 656 382 708 319 708 c 256
 272 708 240 672 240 628 c 256
 240 581 276 560 307 560 c 256
 325 560 329 566 344 566 c 256
 352 566 360 560 360 550 c 256
 360 511 320 475 266 445 c 257
 273 428 l 257
EndSplineSet
PickledDataWithLists: "(dp1
S'com.typemytype.robofont.layerData'
p2
(dp3
S'Back'
p4
(dp5
S'name'
p6
S'quotedblright'
p7
sS'lib'
p8
(dp9
sS'unicodes'
p10
(lp11
sS'width'
p12
I433
sS'contours'
p13
(lp14
sS'components'
p15
(lp16
sS'anchors'
p17
(lp18
sss."
EndChar
